SplineFontDB: 3.0
FontName: SquareAntiqua-Oblique
FullName: Square Antiqua Oblique
FamilyName: Square Antiqua
Weight: Book
Copyright: Copyright (c) 2011, wmk69 (wmk69@o2.pl)\nwith Reserved Font Names 'SquareAntiqua' and 'Square Antiqua Oblique'.\n\nThis Font Software is licensed under the SIL Open Font License, Version 1.1.\nThis license is available with a FAQ at:\nhttp://scripts.sil.org/OFL
Version: 1.000
ItalicAngle: -13
UnderlinePosition: -81
UnderlineWidth: 122
Ascent: 1638
Descent: 410
LayerCount: 2
Layer: 0 1 "Warstwa t+AUIA-a"  1
Layer: 1 1 "Plan pierwszy"  0
XUID: [1021 783 23647091 10727182]
FSType: 0
OS2Version: 3
OS2_WeightWidthSlopeOnly: 0
OS2_UseTypoMetrics: 1
CreationTime: 1260698820
ModificationTime: 1313130054
PfmFamily: 17
TTFWeight: 400
TTFWidth: 5
LineGap: 0
VLineGap: 0
Panose: 2 1 5 4 2 4 4 13 2 4
OS2TypoAscent: 1937
OS2TypoAOffset: 0
OS2TypoDescent: -491
OS2TypoDOffset: 0
OS2TypoLinegap: 0
OS2WinAscent: 1937
OS2WinAOffset: 0
OS2WinDescent: 491
OS2WinDOffset: 0
HheadAscent: 1937
HheadAOffset: 0
HheadDescent: -491
HheadDOffset: 0
OS2SubXSize: 1434
OS2SubYSize: 1331
OS2SubXOff: 0
OS2SubYOff: 287
OS2SupXSize: 1434
OS2SupYSize: 1331
OS2SupXOff: 0
OS2SupYOff: 977
OS2StrikeYSize: 102
OS2StrikeYPos: 512
OS2Vendor: '    '
OS2CodePages: 20000093.00000000
OS2UnicodeRanges: 8000002f.4000204b.00000000.00000000
Lookup: 258 0 0 "'kern' Kerning poziomy w tablicy 0"  {"Podtablica 'kern' Kerning poziomy w tablicy 0-0"  } ['kern' ('DFLT' <'dflt' > 'grek' <'dflt' > 'latn' <'dflt' > ) ]
DEI: 91125
KernClass2: 14 9 "Podtablica 'kern' Kerning poziomy w tablicy 0-0" 
 33 L Lacute Lcommaaccent Lcaron Ldot
 9 P uni1E56
 42 T Tcommaaccent Tcaron Tbar uni021A uni1E6A
 1 V
 5 Thorn
 5 longs
 14 r rcommaaccent
 13 racute rcaron
 189 a b c e g h k m n o p q s agrave ae ccedilla egrave ograve oslash thorn aogonek eogonek dotlessi kcommaaccent kgreenlandic ncommaaccent napostrophe eng scedilla uni01E5 scommaaccent uni0237

StartChar: .notdef
Encoding: 65536 -1 0
Width: 894
Flags: W
HStem: 0 118<295 653> 1393 118<590 948>
VStem: 150 594<0 594> 499 594<917 1511>
DStem2: 150 0 267.758 0 0.224951 0.97437<147.594 1456.28> 625.758 0 744 0 0.224951 0.97437<121.104 1429.79>
LayerCount: 2
Fore
SplineSet
150 0 m 1,0,-1
 499 1511 l 1,1,-1
 1093 1511 l 1,2,-1
 744 0 l 1,3,-1
 150 0 l 1,0,-1
590 1393 m 1,4,-1
 295 118 l 1,5,-1
 653 118 l 1,6,-1
 948 1393 l 1,7,-1
 590 1393 l 1,4,-1
EndSplineSet
Validated: 1
EndChar

StartChar: exclam
Encoding: 33 33 4
Width: 742
GlyphClass: 2
Flags: W
HStem: -20 255<310.593 480.089> 1491 20G<616.062 820>
VStem: 265 262<25.3018 189.698>
LayerCount: 2
Fore
SplineSet
366 -20 m 16,0,1
 265 -20 265 -20 265 64 c 0,2,3
 264 83 264 83 270 108 c 0,4,5
 300 235 300 235 425 235 c 0,6,7
 527 235 527 235 527 151 c 0,8,9
 527 132 527 132 522 108 c 0,10,11
 493 -20 493 -20 366 -20 c 16,0,1
620 1511 m 1,12,-1
 820 1511 l 1,13,-1
 512 353 l 1,14,-1
 392 353 l 1,15,-1
 620 1511 l 1,12,-1
EndSplineSet
Validated: 1
EndChar

StartChar: quotedbl
Encoding: 34 34 5
Width: 816
GlyphClass: 2
Flags: W
HStem: 994 517
VStem: 429 566
LayerCount: 2
Fore
SplineSet
695 994 m 1,0,-1
 785 1511 l 1,1,-1
 995 1511 l 1,2,-1
 845 994 l 1,3,-1
 695 994 l 1,0,-1
429 993 m 1,4,-1
 519 1510 l 1,5,-1
 729 1510 l 1,6,-1
 579 993 l 1,7,-1
 429 993 l 1,4,-1
EndSplineSet
Validated: 1
EndChar

StartChar: numbersign
Encoding: 35 35 6
Width: 1483
GlyphClass: 2
Flags: W
HStem: 516 150<304 609 794 963 1148 1452> 870 150<385 691 875 1045 1229 1534>
VStem: 531 150<176 326> 804 150<1210 1360> 885 150<176 326> 1158 150<1210 1360>
DStem2: 531 176 681 176 0.224951 0.97437<33.7427 348.832 536.603 712.205 899.752 1215.07> 885 176 1035 176 0.224951 0.97437<33.7427 348.832 536.603 712.205 899.752 1215.07>
LayerCount: 2
Fore
SplineSet
531 176 m 1,0,-1
 609 516 l 1,1,-1
 269 516 l 1,2,-1
 304 666 l 1,3,-1
 644 666 l 1,4,-1
 691 870 l 1,5,-1
 351 870 l 1,6,-1
 385 1020 l 1,7,-1
 725 1020 l 1,8,-1
 804 1360 l 1,9,-1
 954 1360 l 1,10,-1
 875 1020 l 1,11,-1
 1079 1020 l 1,12,-1
 1158 1360 l 1,13,-1
 1308 1360 l 1,14,-1
 1229 1020 l 1,15,-1
 1568 1020 l 1,16,-1
 1534 870 l 1,17,-1
 1195 870 l 1,18,-1
 1148 666 l 1,19,-1
 1487 666 l 1,20,-1
 1452 516 l 1,21,-1
 1113 516 l 1,22,-1
 1035 176 l 1,23,-1
 885 176 l 1,24,-1
 963 516 l 1,25,-1
 759 516 l 1,26,-1
 681 176 l 1,27,-1
 531 176 l 1,0,-1
794 666 m 1,28,-1
 998 666 l 1,29,-1
 1045 870 l 1,30,-1
 841 870 l 1,31,-1
 794 666 l 1,28,-1
EndSplineSet
Validated: 1
EndChar

StartChar: dollar
Encoding: 36 36 7
Width: 1388
GlyphClass: 2
Flags: W
HStem: -20 129<517.094 609 800 904.856> 748 156<714.831 787 981 1070.53> 1400 130<831.189 937 1127 1193.9>
VStem: 228 216<180.731 367.443> 438 215<959.758 1160.31> 571 160<-186 -26> 1005 160<1535 1695> 1153 210<416.311 680.44> 1255 214<1142.63 1341.34>
DStem2: 571 -186 731 -186 0.224951 0.97437<35.9922 170.294 340.902 958.651 1145.52 1626.71 1797.09 1930.42>
LayerCount: 2
Fore
SplineSet
244 365 m 1,0,-1
 457 420 l 1,1,2
 444 363 444 363 444 316 c 0,3,4
 444 136 444 136 639 109 c 1,5,-1
 787 748 l 1,6,7
 438 770 438 770 438 986 c 0,8,9
 438 1030 438 1030 448 1068 c 0,10,11
 551 1458 551 1458 964 1516 c 1,12,-1
 1005 1695 l 1,13,-1
 1165 1695 l 1,14,-1
 1127 1530 l 1,15,16
 1142 1530 1142 1530 1156 1530 c 0,17,18
 1469 1530 1469 1530 1469 1276 c 0,19,20
 1469 1217 1469 1217 1452 1145 c 1,21,-1
 1240 1090 l 1,22,23
 1255 1154 1255 1154 1255 1205 c 0,24,25
 1254 1372 1254 1372 1097 1400 c 1,26,-1
 981 895 l 1,27,28
 1363 879 1363 879 1363 653 c 0,29,30
 1363 601 1363 601 1354 544 c 0,31,32
 1271 72 1271 72 773 -6 c 1,33,-1
 731 -186 l 1,34,-1
 571 -186 l 1,35,-1
 609 -20 l 1,36,37
 595 -20 595 -20 580 -20 c 0,38,39
 228 -20 228 -20 228 242 c 0,40,41
 228 296 228 296 244 365 c 1,0,-1
823 904 m 1,42,-1
 937 1399 l 1,43,44
 709 1362 709 1362 660 1129 c 0,45,46
 653 1096 653 1096 653 1067 c 0,47,48
 653 933 653 933 823 904 c 1,42,-1
945 742 m 1,49,-1
 800 111 l 1,50,51
 1066 159 1066 159 1145 505 c 0,52,53
 1153 540 1153 540 1153 571 c 0,54,55
 1153 721 1153 721 945 742 c 1,49,-1
EndSplineSet
Validated: 1
EndChar

StartChar: percent
Encoding: 37 37 8
Width: 1640
GlyphClass: 2
Flags: W
HStem: -20 151<1077.01 1323.34> 0 21G<378 567.894> 458 146<1134.31 1380.86> 906 151<607.007 853.337> 1384 146<664.312 910.864> 1490 20G<1411.13 1603>
VStem: 378 176<0 176> 418 169<1078.47 1307.88> 888 169<152.471 381.883> 931 169<1136.65 1363.66> 1401 169<210.649 437.664> 1425 178<1332 1510>
DStem2: 378 0 554 0 0.570539 0.821271<100.415 1837.47>
LayerCount: 2
Fore
SplineSet
924 1226 m 0,0,1
 931 1255 931 1255 931 1279 c 0,2,3
 930 1384 930 1384 797 1384 c 0,4,5
 634 1384 634 1384 595 1223 c 0,6,7
 587 1190 587 1190 587 1164 c 0,8,9
 588 1057 588 1057 719 1057 c 0,10,11
 883 1057 883 1057 924 1226 c 0,0,1
831 1530 m 0,12,13
 1100 1530 1100 1530 1100 1320 c 0,14,15
 1100 1274 1100 1274 1087 1218 c 0,16,17
 1015 906 1015 906 687 906 c 0,18,19
 418 906 418 906 418 1116 c 0,20,21
 418 1162 418 1162 431 1218 c 0,22,23
 503 1530 503 1530 831 1530 c 0,12,13
1394 300 m 0,24,25
 1401 329 1401 329 1401 353 c 0,26,27
 1400 458 1400 458 1267 458 c 0,28,29
 1104 458 1104 458 1065 297 c 0,30,31
 1057 264 1057 264 1057 238 c 0,32,33
 1058 131 1058 131 1189 131 c 0,34,35
 1353 131 1353 131 1394 300 c 0,24,25
1301 604 m 0,36,37
 1570 604 1570 604 1570 394 c 0,38,39
 1570 348 1570 348 1557 292 c 0,40,41
 1485 -20 1485 -20 1157 -20 c 0,42,43
 888 -20 888 -20 888 190 c 0,44,45
 888 236 888 236 901 292 c 0,46,47
 973 604 973 604 1301 604 c 0,36,37
378 0 m 17,48,-1
 1425 1510 l 1,49,-1
 1603 1510 l 1,50,-1
 554 0 l 9,51,-1
 378 0 l 17,48,-1
EndSplineSet
Validated: 1
EndChar

StartChar: ampersand
Encoding: 38 38 9
Width: 1570
GlyphClass: 2
Flags: W
HStem: -20 124<525.575 897.529> 0 21G<1231.61 1470> 1394 136<885.448 1301.44>
VStem: 229 215<179.982 462.266> 492 204<943.16 1144.82> 1222 202<1227.69 1349.18> 1400 209<782.658 903>
DStem2: 997 898 841 763 0.466031 -0.884769<28.92 509.946 735.163 908.7>
LayerCount: 2
Fore
SplineSet
1470 0 m 1,0,-1
 1242 0 l 1,1,-1
 1162 154 l 1,2,3
 923 -20 923 -20 580 -20 c 0,4,5
 229 -19 229 -19 229 243 c 0,6,7
 229 298 229 298 244 365 c 0,8,9
 312 671 312 671 564 805 c 1,10,11
 492 855 492 855 492 958 c 0,12,13
 492 1012 492 1012 505 1061 c 0,14,15
 629 1530 629 1530 1177 1530 c 0,16,17
 1424 1530 1424 1530 1424 1331 c 0,18,19
 1424 1286 1424 1286 1412 1231 c 1,20,-1
 1214 1178 l 1,21,22
 1222 1214 1222 1214 1222 1244 c 0,23,24
 1222 1394 1222 1394 1012 1394 c 0,25,26
 779 1394 779 1394 705 1116 c 0,27,28
 696 1082 696 1082 696 1049 c 0,29,30
 696 898 696 898 909 898 c 2,31,-1
 997 898 l 1,32,-1
 1235 447 l 1,33,34
 1337 627 1337 627 1400 903 c 1,35,-1
 1609 942 l 1,36,37
 1515 532 1515 532 1314 297 c 1,38,-1
 1470 0 l 1,0,-1
457 420 m 0,39,40
 444 362 444 362 444 315 c 0,41,42
 444 104 444 104 711 104 c 0,43,44
 939 104 939 104 1102 267 c 1,45,-1
 841 763 l 1,46,47
 530 745 530 745 457 420 c 0,39,40
EndSplineSet
Validated: 1
EndChar

StartChar: quotesingle
Encoding: 39 39 10
Width: 550
GlyphClass: 2
Flags: W
HStem: 993 517<519 579>
VStem: 429 300
LayerCount: 2
Fore
SplineSet
429 993 m 1,0,-1
 519 1510 l 1,1,-1
 729 1510 l 1,2,-1
 579 993 l 1,3,-1
 429 993 l 1,0,-1
EndSplineSet
Validated: 1
EndChar

StartChar: parenleft
Encoding: 40 40 11
Width: 846
GlyphClass: 2
Flags: W
VStem: 390 184<76.1826 727.022>
LayerCount: 2
Fore
SplineSet
1025 1797 m 1,0,-1
 1161 1797 l 1,1,2
 978 1584 978 1584 851 1352 c 0,3,4
 698 1072 698 1072 627 765 c 0,5,6
 574 536 574 536 574 322 c 0,7,8
 574 249 574 249 580 178 c 0,9,10
 600 -54 600 -54 684 -267 c 1,11,-1
 548 -267 l 1,12,13
 471 -123 471 -123 417 160 c 0,14,15
 390 302 390 302 390 442 c 0,16,17
 390 604 390 604 427 765 c 0,18,19
 493 1051 493 1051 698 1370 c 0,20,21
 871 1639 871 1639 1025 1797 c 1,0,-1
EndSplineSet
Validated: 1
EndChar

StartChar: parenright
Encoding: 41 41 12
Width: 846
GlyphClass: 2
Flags: W
VStem: 625 183<799.862 1464.24>
LayerCount: 2
Fore
SplineSet
651 1797 m 1,0,1
 733 1649 733 1649 782 1370 c 0,2,3
 808 1223 808 1223 808 1082 c 0,4,5
 808 921 808 921 773 765 c 0,6,7
 704 467 704 467 503 160 c 0,8,9
 318 -123 318 -123 174 -267 c 1,10,-1
 38 -267 l 1,11,12
 219 -58 219 -58 348 178 c 0,13,14
 505 465 505 465 573 765 c 0,15,16
 625 993 625 993 625 1207 c 0,17,18
 625 1280 625 1280 619 1352 c 0,19,20
 600 1583 600 1583 515 1797 c 1,21,-1
 651 1797 l 1,0,1
EndSplineSet
Validated: 1
EndChar

StartChar: asterisk
Encoding: 42 42 13
Width: 1139
GlyphClass: 2
Flags: W
HStem: 1491 20G<839.362 994>
VStem: 652 150<678 828> 844 150<1361 1511>
DStem2: 373 964 418 834 0.902685 0.430301<0 328.03 619.407 943.911> 542 1373 440 1257 0.853534 -0.521038<0 260.418 494.286 494.286> 652 678 802 678 0.224951 0.97437<33.7427 320.2 605.26 854.841>
LayerCount: 2
Fore
SplineSet
844 1511 m 1,0,-1
 994 1511 l 1,1,-1
 930 1235 l 1,2,-1
 1231 1373 l 1,3,-1
 1279 1257 l 1,4,-1
 963 1114 l 1,5,-1
 1212 964 l 1,6,-1
 1107 834 l 1,7,-1
 874 990 l 1,8,-1
 802 678 l 1,9,-1
 652 678 l 1,10,-1
 724 990 l 1,11,-1
 418 834 l 1,12,-1
 373 964 l 1,13,-1
 689 1114 l 1,14,-1
 440 1257 l 1,15,-1
 542 1373 l 1,16,-1
 780 1235 l 1,17,-1
 844 1511 l 1,0,-1
EndSplineSet
Validated: 1
EndChar

StartChar: plus
Encoding: 43 43 14
Width: 1183
GlyphClass: 2
Flags: W
HStem: 693 150<345 676 861 1193>
VStem: 591 150<326 476> 790 150<1035 1185>
DStem2: 591 326 741 326 0.224951 0.97437<33.7427 376.715 564.486 881.749>
LayerCount: 2
Fore
SplineSet
790 1185 m 1,0,-1
 940 1185 l 1,1,-1
 861 843 l 1,2,-1
 1228 843 l 1,3,-1
 1193 693 l 1,4,-1
 826 693 l 1,5,-1
 741 326 l 1,6,-1
 591 326 l 1,7,-1
 676 693 l 1,8,-1
 310 693 l 1,9,-1
 345 843 l 1,10,-1
 711 843 l 1,11,-1
 790 1185 l 1,0,-1
EndSplineSet
Validated: 1
EndChar

StartChar: comma
Encoding: 44 44 15
Width: 610
GlyphClass: 2
Flags: W
HStem: -366 656
VStem: 271 197<-112.641 128.312>
LayerCount: 2
Fore
SplineSet
381 290 m 17,0,1
 468 216 468 216 468 87 c 0,2,3
 468 35 468 35 454 -26 c 0,4,5
 406 -237 406 -237 159 -366 c 9,6,-1
 89 -265 l 17,7,8
 230 -190 230 -190 263 -51 c 0,9,10
 271 -17 271 -17 271 13 c 0,11,12
 271 106 271 106 194 156 c 1,13,-1
 381 290 l 17,0,1
EndSplineSet
Validated: 1
EndChar

StartChar: hyphen
Encoding: 45 45 16
Width: 1183
GlyphClass: 2
Flags: W
HStem: 693 150<345 1193>
LayerCount: 2
Fore
SplineSet
345 843 m 1,0,-1
 1228 843 l 1,1,-1
 1193 693 l 1,2,-1
 310 693 l 1,3,-1
 345 843 l 1,0,-1
EndSplineSet
Validated: 1
EndChar

StartChar: period
Encoding: 46 46 17
Width: 552
GlyphClass: 2
Flags: W
HStem: -20 255<215.054 387.746>
VStem: 169 263<25.3018 188.583>
LayerCount: 2
Fore
SplineSet
271 -20 m 0,0,1
 169 -20 169 -20 169 64 c 0,2,3
 169 86 169 86 175 110 c 0,4,5
 205 235 205 235 330 235 c 0,6,7
 432 235 432 235 432 151 c 0,8,9
 432 130 432 130 427 106 c 0,10,11
 399 -20 399 -20 271 -20 c 0,0,1
EndSplineSet
Validated: 1
EndChar

StartChar: slash
Encoding: 47 47 18
Width: 1096
GlyphClass: 2
Flags: W
DStem2: 20 -132 149 -200 0.570186 0.821515<17.691 2235.54>
LayerCount: 2
Fore
SplineSet
1294 1705 m 1,0,-1
 1424 1637 l 1,1,-1
 149 -200 l 1,2,-1
 20 -132 l 1,3,-1
 1294 1705 l 1,0,-1
EndSplineSet
Validated: 1
EndChar

StartChar: zero
Encoding: 48 48 19
Width: 1388
GlyphClass: 2
Flags: W
HStem: -20 124<507.899 885.436> 1406 124<847.014 1228.6>
VStem: 229 206<173.094 486.625> 1302 205<1014.69 1336.54>
DStem2: 155.116 -20 355.116 -20 0.224951 0.97437<363.28 1257.66> 1023.4 -20 1223.4 -20 0.224951 0.97437<378.333 1270.86>
LayerCount: 2
Fore
SplineSet
444 365 m 2,0,1
 435 326 435 326 435 287 c 0,2,3
 435 104 435 104 711 104 c 0,4,5
 1052 104 1052 104 1164 589 c 2,6,-1
 1292 1145 l 2,7,8
 1302 1188 1302 1188 1302 1221 c 0,9,10
 1302 1406 1302 1406 1026 1406 c 0,11,12
 686 1406 686 1406 573 921 c 2,13,-1
 444 365 l 2,0,1
244 365 m 2,14,-1
 373 921 l 18,15,16
 513 1530 513 1530 1156 1530 c 0,17,18
 1507 1530 1507 1530 1507 1267 c 0,19,20
 1507 1212 1507 1212 1492 1145 c 10,21,-1
 1364 589 l 2,22,23
 1223 -20 1223 -20 580 -20 c 0,24,25
 229 -20 229 -20 229 243 c 0,26,27
 229 298 229 298 244 365 c 2,14,-1
EndSplineSet
Validated: 1
EndChar

StartChar: one
Encoding: 49 49 20
Width: 705
GlyphClass: 2
Flags: W
HStem: 0 21G<255 459.612> 1383 127<369 551>
VStem: 255 200<0 200> 551 213<1153.28 1408.84>
DStem2: 255 0 455 0 0.224951 0.97437<44.9902 1373.24>
LayerCount: 2
Fore
SplineSet
255 0 m 1,0,-1
 534 1210 l 2,1,2
 551 1280 551 1280 551 1343 c 0,3,4
 551 1365 551 1365 549 1383 c 1,5,-1
 339 1383 l 1,6,-1
 369 1510 l 1,7,-1
 754 1510 l 1,8,9
 764 1474 764 1474 764 1424 c 0,10,11
 764 1337 764 1337 734 1210 c 2,12,-1
 455 0 l 1,13,-1
 255 0 l 1,0,-1
EndSplineSet
Validated: 1
EndChar

StartChar: two
Encoding: 50 50 21
Width: 1278
GlyphClass: 2
Flags: W
HStem: 0 127<362 1079.03> 654 128<634.328 938.848> 1403 127<656.13 1131.91>
VStem: 1199 207<1086.44 1346.25>
LayerCount: 2
Fore
SplineSet
130 0 m 1,0,1
 311 782 311 782 737 782 c 0,2,3
 1084 782 1084 782 1192 1185 c 0,4,5
 1199 1211 1199 1211 1199 1242 c 0,6,7
 1199 1403 1199 1403 937 1403 c 2,8,-1
 906 1403 l 2,9,10
 754 1403 754 1403 590 1333 c 1,11,-1
 624 1480 l 1,12,13
 787 1530 787 1530 935 1530 c 2,14,-1
 1048 1530 l 2,15,16
 1406 1530 1406 1530 1406 1290 c 0,17,18
 1406 1240 1406 1240 1394 1194 c 0,19,20
 1263 654 1263 654 765 654 c 0,21,22
 512 654 512 654 362 127 c 1,23,-1
 830 127 l 2,24,25
 986 127 986 127 1146 197 c 9,26,-1
 1113 50 l 17,27,28
 980 0 980 0 801 0 c 2,29,-1
 130 0 l 1,0,1
EndSplineSet
Validated: 1
EndChar

StartChar: three
Encoding: 51 51 22
Width: 1358
GlyphClass: 2
Flags: W
HStem: -20 124<495.575 863.536> 765 127<609 913.125> 1403 127<712.13 1165.95>
VStem: 199 215<179.873 367.132> 1128 207<430.354 700.704> 1202 195<1144.68 1364.49>
LayerCount: 2
Fore
SplineSet
214 365 m 1,0,-1
 427 420 l 1,1,2
 414 362 414 362 414 315 c 0,3,4
 414 104 414 104 681 104 c 0,5,6
 1002 104 1002 104 1115 505 c 0,7,8
 1128 551 1128 551 1128 592 c 0,9,10
 1128 765 1128 765 848 765 c 2,11,-1
 580 765 l 1,12,-1
 609 892 l 1,13,14
 1085 892 1085 892 1185 1191 c 0,15,16
 1202 1242 1202 1242 1202 1281 c 0,17,18
 1202 1403 1202 1403 993 1403 c 2,19,-1
 962 1403 l 2,20,21
 810 1403 810 1403 646 1333 c 1,22,-1
 680 1480 l 1,23,24
 850 1530 850 1530 991 1530 c 2,25,-1
 1047 1530 l 2,26,27
 1397 1530 1397 1530 1397 1326 c 0,28,29
 1397 1288 1397 1288 1384 1234 c 0,30,31
 1321 977 1321 977 1058 880 c 1,32,33
 1335 837 1335 837 1335 644 c 0,34,35
 1335 590 1335 590 1324 544 c 0,36,37
 1199 -20 1199 -20 550 -20 c 0,38,39
 199 -20 199 -20 199 243 c 0,40,41
 199 298 199 298 214 365 c 1,0,-1
EndSplineSet
Validated: 1
EndChar

StartChar: four
Encoding: 52 52 23
Width: 1321
GlyphClass: 2
Flags: W
HStem: 0 21G<921 1125.61> 443 127<532 1023> 1490 20G<544.37 749>
VStem: 549 200<1310 1510> 921 200<0 200> 1200 200<1010 1210>
DStem2: 199.725 0 400.405 0 0.224951 0.97437<630.136 1549.87> 921 0 1121 0 0.224951 0.97437<44.9902 454.591 585.084 1241.75>
LayerCount: 2
Fore
SplineSet
921 0 m 25,0,-1
 1023 443 l 1,1,-1
 302 443 l 1,2,-1
 549 1510 l 25,3,-1
 749 1510 l 25,4,-1
 532 570 l 1,5,-1
 1053 570 l 1,6,-1
 1200 1210 l 1,7,-1
 1400 1210 l 1,8,-1
 1121 0 l 25,9,-1
 921 0 l 25,0,-1
EndSplineSet
Validated: 1
EndChar

StartChar: five
Encoding: 53 53 24
Width: 1358
GlyphClass: 2
Flags: W
HStem: -20 124<495.575 871.435> 765 127<692 1057.02> 1382 128<837 1409>
VStem: 199 215<179.873 367.132> 1128 210<443.574 699.878>
DStem2: 477 765 692 892 0.283212 0.959057<182.691 693.695>
LayerCount: 2
Fore
SplineSet
214 365 m 1,0,-1
 427 420 l 1,1,2
 414 362 414 362 414 315 c 0,3,4
 414 104 414 104 681 104 c 0,5,6
 1007 104 1007 104 1117 504 c 24,7,8
 1128 544 1128 544 1128 592 c 0,9,10
 1128 765 1128 765 848 765 c 2,11,12
 477 765 l 1,13,-1
 697 1510 l 1,14,-1
 1439 1510 l 1,15,-1
 1409 1382 l 1,16,-1
 837 1382 l 1,17,-1
 692 892 l 1,18,-1
 971 892 l 2,19,20
 1338 892 1338 892 1338 657 c 0,21,22
 1338 604 1338 604 1324 544 c 24,23,24
 1193 -20 1193 -20 550 -20 c 0,25,26
 199 -20 199 -20 199 243 c 0,27,28
 199 298 199 298 214 365 c 1,0,-1
EndSplineSet
Validated: 1
EndChar

StartChar: six
Encoding: 54 54 25
Width: 1388
GlyphClass: 2
Flags: W
HStem: -20 124<525.575 897.621> 765 124<665.507 1084.36> 1406 124<847.626 1210.33>
VStem: 229 215<180.432 488.983> 1158 210<445.771 700.487> 1293 208<1142.88 1330.51>
DStem2: 155.116 -20 355.418 -20 0.224951 0.97437<393.807 715.037 880.392 1257.84>
LayerCount: 2
Fore
SplineSet
1485 1145 m 1,0,-1
 1280 1090 l 1,1,2
 1293 1148 1293 1148 1293 1195 c 0,3,4
 1293 1406 1293 1406 1026 1406 c 0,5,6
 688 1406 688 1406 573 921 c 2,7,-1
 543 794 l 1,8,9
 715 889 715 889 979 889 c 0,10,11
 1368 889 1368 889 1368 651 c 0,12,13
 1368 600 1368 600 1354 544 c 0,14,15
 1216 -20 1216 -20 580 -20 c 0,16,17
 229 -20 229 -20 229 244 c 0,18,19
 229 300 229 300 244 365 c 2,20,-1
 373 921 l 2,21,22
 514 1530 514 1530 1156 1530 c 0,23,24
 1499 1530 1499 1530 1501 1268 c 0,25,26
 1501 1213 1501 1213 1485 1145 c 1,0,-1
1148 509 m 24,27,28
 1158 557 1158 557 1158 592 c 0,29,30
 1158 765 1158 765 878 765 c 0,31,32
 534 765 534 765 457 420 c 0,33,34
 444 363 444 363 444 316 c 0,35,36
 444 104 444 104 711 104 c 0,37,38
 1064 105 1064 105 1148 509 c 24,27,28
EndSplineSet
Validated: 1
EndChar

StartChar: seven
Encoding: 55 55 26
Width: 1059
GlyphClass: 2
Flags: W
HStem: 0 21G<158 401.042> 1383 127<415.23 1147>
VStem: 158 229<0 229>
LayerCount: 2
Fore
SplineSet
158 0 m 1,0,-1
 1147 1383 l 1,1,-1
 669 1383 l 2,2,3
 501 1383 501 1383 353 1313 c 9,4,-1
 387 1460 l 17,5,6
 537 1510 537 1510 699 1510 c 2,7,-1
 1388 1510 l 1,8,-1
 1358 1383 l 1,9,-1
 387 0 l 1,10,-1
 158 0 l 1,0,-1
EndSplineSet
Validated: 1
EndChar

StartChar: eight
Encoding: 56 56 27
Width: 1388
GlyphClass: 2
Flags: W
HStem: -20 124<525.575 900.951> 765 133<740.276 1064.22> 1394 136<879.684 1301>
VStem: 229 215<179.873 463.442> 492 204<942.239 1161.8> 1156 212<443.999 701.664> 1218 207<1131.67 1349.03>
LayerCount: 2
Fore
SplineSet
711 104 m 0,0,1
 1052 104 1052 104 1145 505 c 24,2,3
 1156 556 1156 556 1156 592 c 0,4,5
 1156 765 1156 765 878 765 c 0,6,7
 534 765 534 765 457 420 c 0,8,9
 444 362 444 362 444 315 c 0,10,11
 444 104 444 104 711 104 c 0,0,1
905 898 m 0,12,13
 1142 898 1142 898 1209 1175 c 0,14,15
 1218 1212 1218 1212 1218 1243 c 0,16,17
 1218 1394 1218 1394 1012 1394 c 0,18,19
 766 1394 766 1394 704 1114 c 0,20,21
 696 1078 696 1078 696 1048 c 0,22,23
 696 898 696 898 905 898 c 0,12,13
229 243 m 0,24,25
 229 298 229 298 244 365 c 0,26,27
 312 671 312 671 564 805 c 1,28,29
 492 855 492 855 492 961 c 0,30,31
 492 1008 492 1008 505 1063 c 0,32,33
 615 1530 615 1530 1177 1530 c 0,34,35
 1425 1530 1425 1530 1425 1331 c 0,36,37
 1425 1286 1425 1286 1412 1231 c 0,38,39
 1354 986 1354 986 1175 869 c 1,40,41
 1368 821 1368 821 1368 653 c 0,42,43
 1368 605 1368 605 1354 544 c 24,44,45
 1225 -20 1225 -20 580 -20 c 0,46,47
 229 -20 229 -20 229 243 c 0,24,25
EndSplineSet
Validated: 1
EndChar

StartChar: nine
Encoding: 57 57 28
Width: 1388
GlyphClass: 2
Flags: W
HStem: -20 124<525.67 888.374> 621 124<651.643 1070.49> 1406 124<838.379 1210.42>
VStem: 235 208<179.49 367.117> 368 210<809.513 1064.23> 1292 215<1021.02 1329.57>
DStem2: 1022.4 -20 1222.4 -20 0.224951 0.97437<378.06 755.513 920.868 1242.1>
LayerCount: 2
Fore
SplineSet
251 365 m 1,0,-1
 456 420 l 1,1,2
 443 362 443 362 443 315 c 0,3,4
 443 104 443 104 710 104 c 0,5,6
 1048 104 1048 104 1163 589 c 2,7,-1
 1193 716 l 1,8,9
 1021 621 1021 621 757 621 c 0,10,11
 368 621 368 621 368 859 c 0,12,13
 368 910 368 910 382 966 c 0,14,15
 520 1530 520 1530 1156 1530 c 0,16,17
 1507 1530 1507 1530 1507 1266 c 0,18,19
 1507 1210 1507 1210 1492 1145 c 2,20,-1
 1363 589 l 2,21,22
 1222 -20 1222 -20 580 -20 c 0,23,24
 237 -20 237 -20 235 242 c 0,25,26
 235 297 235 297 251 365 c 1,0,-1
588 1001 m 24,27,28
 578 953 578 953 578 918 c 0,29,30
 578 745 578 745 858 745 c 0,31,32
 1202 745 1202 745 1279 1090 c 0,33,34
 1292 1147 1292 1147 1292 1194 c 0,35,36
 1292 1406 1292 1406 1025 1406 c 0,37,38
 672 1405 672 1405 588 1001 c 24,27,28
EndSplineSet
Validated: 1
EndChar

StartChar: colon
Encoding: 58 58 29
Width: 552
GlyphClass: 2
Flags: W
HStem: -20 255<215.054 387.746> 637 255<373.808 540.789>
VStem: 169 263<25.3018 188.583> 326 263<684.25 843.172>
LayerCount: 2
Fore
SplineSet
428 637 m 0,0,1
 330 637 330 637 326 721 c 0,2,3
 325 741 325 741 332 767 c 0,4,5
 365 892 365 892 487 892 c 0,6,7
 589 892 589 892 589 808 c 0,8,9
 589 786 589 786 584 763 c 0,10,11
 550 637 550 637 428 637 c 0,0,1
271 -20 m 0,12,13
 169 -20 169 -20 169 64 c 0,14,15
 169 86 169 86 175 110 c 0,16,17
 205 235 205 235 330 235 c 0,18,19
 432 235 432 235 432 151 c 0,20,21
 432 130 432 130 427 106 c 0,22,23
 399 -20 399 -20 271 -20 c 0,12,13
EndSplineSet
Validated: 1
EndChar

StartChar: semicolon
Encoding: 59 59 30
Width: 610
GlyphClass: 2
Flags: W
HStem: 636 255<401.808 568.789>
VStem: 271 197<-112.641 128.312> 354 263<685.219 843.75>
LayerCount: 2
Fore
SplineSet
381 290 m 17,0,1
 468 216 468 216 468 87 c 0,2,3
 468 35 468 35 454 -26 c 0,4,5
 406 -237 406 -237 159 -366 c 9,6,-1
 89 -265 l 17,7,8
 230 -190 230 -190 263 -51 c 0,9,10
 271 -17 271 -17 271 13 c 0,11,12
 271 106 271 106 194 156 c 1,13,-1
 381 290 l 17,0,1
456 636 m 0,14,15
 358 636 358 636 354 720 c 0,16,17
 353 739 353 739 360 766 c 0,18,19
 392 891 392 891 515 891 c 0,20,21
 617 891 617 891 617 807 c 0,22,23
 617 781 617 781 612 762 c 0,24,25
 577 636 577 636 456 636 c 0,14,15
EndSplineSet
Validated: 1
EndChar

StartChar: less
Encoding: 60 60 31
Width: 1206
GlyphClass: 2
Flags: W
DStem2: 508 798 306 676 0.81231 -0.583225<0 723.781> 350 865 508 798 0.8805 0.474046<107.358 991.419>
LayerCount: 2
Fore
SplineSet
1327 1391 m 1,0,-1
 1287 1216 l 1,1,-1
 508 798 l 1,2,-1
 1091 369 l 1,3,-1
 1040 149 l 1,4,-1
 306 676 l 1,5,-1
 350 865 l 1,6,-1
 1327 1391 l 1,0,-1
EndSplineSet
Validated: 1
EndChar

StartChar: equal
Encoding: 61 61 32
Width: 1183
GlyphClass: 2
Flags: W
HStem: 551 150<312 1160> 839 150<378 1227>
LayerCount: 2
Fore
SplineSet
378 989 m 1,0,-1
 1261 989 l 1,1,-1
 1227 839 l 1,2,-1
 344 839 l 1,3,-1
 378 989 l 1,0,-1
312 701 m 1,4,-1
 1195 701 l 1,5,-1
 1160 551 l 1,6,-1
 277 551 l 1,7,-1
 312 701 l 1,4,-1
EndSplineSet
Validated: 1
EndChar

StartChar: greater
Encoding: 62 62 33
Width: 1206
GlyphClass: 2
Flags: W
DStem2: 275 325 235 150 0.8805 0.474046<0 884.061> 521 1392 471 1172 0.812686 -0.582702<87.56 811.335>
LayerCount: 2
Fore
SplineSet
521 1392 m 1,0,-1
 1256 865 l 1,1,-1
 1212 676 l 1,2,-1
 235 150 l 1,3,-1
 275 325 l 1,4,-1
 1054 743 l 1,5,-1
 471 1172 l 1,6,-1
 521 1392 l 1,0,-1
EndSplineSet
Validated: 1
EndChar

StartChar: question
Encoding: 63 63 34
Width: 1388
GlyphClass: 2
Flags: W
HStem: -20 255<583.054 753.956> 574 128<898.963 1077.5> 1406 124<847.334 1227.76>
VStem: 373 212<976 1063.73> 537 263<26.4172 188.583> 1300 206<1026.95 1335.77>
LayerCount: 2
Fore
SplineSet
639 -20 m 0,0,1
 537 -20 537 -20 537 64 c 0,2,3
 537 85 537 85 543 110 c 0,4,5
 573 235 573 235 698 235 c 0,6,7
 800 235 800 235 800 151 c 0,8,9
 800 131 800 131 794 105 c 0,10,11
 766 -20 766 -20 639 -20 c 0,0,1
373 921 m 17,12,13
 513 1530 513 1530 1156 1530 c 0,14,15
 1506 1530 1506 1530 1506 1267 c 0,16,17
 1506 1211 1506 1211 1492 1142 c 0,18,19
 1369 574 1369 574 971 574 c 0,20,21
 877 574 877 574 824 345 c 9,22,-1
 608 276 l 17,23,24
 706 702 706 702 942 702 c 0,25,26
 1190 702 1190 702 1292 1142 c 0,27,28
 1300 1181 1300 1181 1300 1221 c 0,29,30
 1300 1406 1300 1406 1026 1406 c 0,31,32
 685 1406 685 1406 585 976 c 9,33,-1
 373 921 l 17,12,13
EndSplineSet
Validated: 1
EndChar

StartChar: at
Encoding: 64 64 35
Width: 1481
GlyphClass: 2
Flags: W
HStem: -430 124<433.032 821.639> -20 150<615 906.031> 0 21G<1127 1351> 566 106<963.562 1195> 1013 107<875.665 1252.07>
VStem: 155 204<-236.349 85.3125> 518 212<132.496 315.164> 1123 209<1.78235 355.206> 1273 211<687.281 993.895>
DStem2: 81.1157 -430 280.116 -430 0.224951 0.97437<365.543 1230.41>
LayerCount: 2
Fore
SplineSet
1351 0 m 9,0,-1
 1131 0 l 17,1,2
 1123 42 1123 42 1123 92 c 0,3,4
 1123 186 1123 186 1150 300 c 1,5,6
 995 -20 995 -20 712 -20 c 0,7,8
 518 -20 518 -20 518 133 c 0,9,10
 518 168 518 168 528 211 c 0,11,12
 632 658 632 658 1233 672 c 1,13,14
 1246 714 1246 714 1256 756 c 1,15,16
 1273 829 1273 829 1273 879 c 0,17,18
 1273 1013 1273 1013 1160 1013 c 0,19,20
 613 1013 613 1013 497 511 c 2,21,-1
 369 -45 l 2,22,23
 359 -88 359 -88 359 -120 c 0,24,25
 359 -306 359 -306 636 -306 c 0,26,27
 866 -306 866 -306 915 -138 c 9,28,-1
 1123 -114 l 17,29,30
 1011 -430 1011 -430 506 -430 c 0,31,32
 155 -430 155 -430 155 -167 c 0,33,34
 155 -110 155 -110 170 -45 c 2,35,-1
 298 511 l 18,36,37
 438 1120 438 1120 1236 1120 c 0,38,39
 1484 1120 1484 1120 1484 921 c 0,40,41
 1484 877 1484 877 1471 821 c 2,42,-1
 1350 300 l 2,43,44
 1332 222 1332 222 1332 145 c 0,45,46
 1332 72 1332 72 1351 0 c 9,0,-1
1195 566 m 1,47,48
 802 561 802 561 736 251 c 0,49,50
 730 223 730 223 730 201 c 0,51,52
 730 130 730 130 798 130 c 0,53,54
 944 130 944 130 1078 343 c 0,55,56
 1150 453 1150 453 1195 566 c 1,47,48
EndSplineSet
Validated: 1
EndChar

StartChar: B
Encoding: 66 66 36
Width: 1336
GlyphClass: 2
Flags: W
HStem: 0 127<429 872.491> 765 127<607 926.376> 1383 127<705 1150.66>
VStem: 498 207<1134.38 1381.35> 1125 210<453.873 698.515> 1191 199<1132.41 1340.81>
DStem2: 200 0 399.68 0 0.224951 0.97437<175.259 830.425 960.693 1394.82>
LayerCount: 2
Fore
SplineSet
429 127 m 1,0,-1
 684 127 l 2,1,2
 1026 127 1026 127 1117 525 c 0,3,4
 1125 560 1125 560 1125 589 c 0,5,6
 1125 765 1125 765 846 765 c 2,7,-1
 578 765 l 1,8,-1
 429 127 l 1,0,-1
200 0 m 1,9,-1
 479 1210 l 2,10,11
 498 1292 498 1292 498 1365 c 0,12,13
 498 1440 498 1440 479 1510 c 1,14,-1
 1041 1510 l 2,15,16
 1390 1510 1390 1510 1390 1304 c 0,17,18
 1390 1268 1390 1268 1382 1234 c 0,19,20
 1323 980 1323 980 1056 880 c 1,21,22
 1335 837 1335 837 1335 641 c 0,23,24
 1335 606 1335 606 1326 564 c 0,25,26
 1192 0 1192 0 553 0 c 2,27,-1
 200 0 l 1,9,-1
607 892 m 1,28,29
 1121 892 1121 892 1186 1206 c 0,30,31
 1191 1230 1191 1230 1191 1251 c 0,32,33
 1191 1383 1191 1383 986 1383 c 2,34,-1
 705 1383 l 1,35,36
 705 1325 705 1325 679 1210 c 2,37,-1
 607 892 l 1,28,29
EndSplineSet
Validated: 1
EndChar

StartChar: C
Encoding: 67 67 37
Width: 1388
GlyphClass: 2
Flags: W
HStem: -20 124<507.899 883.277> 1406 124<846.805 1210.92>
VStem: 229 206<173.651 486.625> 1131 208<390.091 472> 1293 214<1142.85 1330.13>
DStem2: 155.116 -20 355.116 -20 0.224951 0.97437<366.082 1257.57>
LayerCount: 2
Fore
SplineSet
1339 497 m 17,0,1
 1172 -20 1172 -20 580 -20 c 0,2,3
 229 -20 229 -20 229 243 c 0,4,5
 229 298 229 298 244 365 c 2,6,-1
 373 921 l 18,7,8
 513 1530 513 1530 1156 1530 c 0,9,10
 1507 1530 1507 1530 1507 1267 c 0,11,12
 1507 1211 1507 1211 1492 1145 c 9,13,-1
 1280 1090 l 17,14,15
 1293 1148 1293 1148 1293 1195 c 0,16,17
 1293 1406 1293 1406 1026 1406 c 0,18,19
 685 1406 685 1406 573 921 c 2,20,-1
 444 365 l 2,21,22
 435 325 435 325 435 290 c 0,23,24
 435 104 435 104 711 104 c 0,25,26
 1008 104 1008 104 1131 472 c 9,27,-1
 1339 497 l 17,0,1
EndSplineSet
Validated: 1
EndChar

StartChar: D
Encoding: 68 68 38
Width: 1388
GlyphClass: 2
Flags: W
HStem: 0 127<429 890.215> 1383 127<705 1223.09>
VStem: 498 207<1142.31 1381.35> 1297 206<996 1315.04>
DStem2: 200 0 399.68 0 0.224951 0.97437<175.259 1394.76> 1028.4 0 1228.4 0 0.224951 0.97437<379.764 1226.68>
LayerCount: 2
Fore
SplineSet
429 127 m 1,0,-1
 717 127 l 2,1,2
 1057 127 1057 127 1169 609 c 2,3,-1
 1288 1125 l 2,4,5
 1297 1164 1297 1164 1297 1198 c 0,6,7
 1297 1383 1297 1383 1019 1383 c 2,8,-1
 705 1383 l 1,9,10
 703 1314 703 1314 679 1210 c 2,11,-1
 429 127 l 1,0,-1
200 0 m 1,12,-1
 479 1210 l 2,13,14
 498 1290 498 1290 498 1365 c 128,-1,15
 498 1440 498 1440 479 1510 c 1,16,-1
 1152 1510 l 2,17,18
 1503 1510 1503 1510 1503 1247 c 0,19,20
 1503 1192 1503 1192 1488 1125 c 10,21,-1
 1369 609 l 2,22,23
 1228 0 1228 0 586 0 c 2,24,-1
 200 0 l 1,12,-1
EndSplineSet
Validated: 1
EndChar

StartChar: E
Encoding: 69 69 39
Width: 1196
GlyphClass: 2
Flags: W
HStem: 0 127<429 1102.66> 698 127<590 1128> 1383 127<701.605 1286>
VStem: 498 207<1134.38 1381.35>
DStem2: 200 0 399.68 0 0.224951 0.97437<175.259 761.318 891.586 1394.76>
LayerCount: 2
Fore
SplineSet
200 0 m 1,0,-1
 479 1210 l 2,1,2
 498 1290 498 1290 498 1365 c 128,-1,3
 498 1440 498 1440 479 1510 c 1,4,-1
 1316 1510 l 17,5,-1
 1286 1383 l 9,6,-1
 705 1383 l 1,7,8
 701 1305 701 1305 679 1210 c 2,9,-1
 590 825 l 1,10,-1
 1157 825 l 25,11,-1
 1128 698 l 25,12,-1
 561 698 l 1,13,-1
 429 127 l 1,14,-1
 845 127 l 2,15,16
 1027 127 1027 127 1161 197 c 1,17,-1
 1128 50 l 1,18,19
 995 0 995 0 816 0 c 2,20,-1
 200 0 l 1,0,-1
EndSplineSet
Validated: 1
EndChar

StartChar: F
Encoding: 70 70 40
Width: 1087
GlyphClass: 2
Flags: W
HStem: 0 21G<200 404.613> 698 127<590 1128> 1383 127<701.605 1286>
VStem: 200 200<0 200> 498 207<1134.38 1381.35>
DStem2: 200 0 400 0 0.224951 0.97437<44.9902 761.318 891.586 1394.76>
LayerCount: 2
Fore
SplineSet
200 0 m 17,0,-1
 479 1210 l 2,1,2
 498 1290 498 1290 498 1365 c 128,-1,3
 498 1440 498 1440 479 1510 c 1,4,-1
 1316 1510 l 17,5,-1
 1286 1383 l 9,6,-1
 705 1383 l 1,7,8
 701 1305 701 1305 679 1210 c 2,9,-1
 590 825 l 1,10,-1
 1157 825 l 25,11,-1
 1128 698 l 25,12,-1
 561 698 l 1,13,-1
 400 0 l 9,14,-1
 200 0 l 17,0,-1
EndSplineSet
Validated: 1
EndChar

StartChar: G
Encoding: 71 71 41
Width: 1388
GlyphClass: 2
Flags: W
HStem: -20 124<507.899 885.436> 635 127<875.342 1175> 1406 124<846.805 1210.92>
VStem: 229 206<173.651 486.625> 1293 214<1142.87 1330.13>
DStem2: 155.116 -20 355.116 -20 0.224951 0.97437<366.082 1257.57> 1023.4 -20 1223.4 -20 0.224951 0.97437<378.333 672.315>
LayerCount: 2
Fore
SplineSet
1404 762 m 1,0,-1
 1364 589 l 2,1,2
 1223 -20 1223 -20 580 -20 c 0,3,4
 229 -20 229 -20 229 243 c 0,5,6
 229 298 229 298 244 365 c 2,7,-1
 373 921 l 2,8,9
 513 1530 513 1530 1156 1530 c 0,10,11
 1507 1530 1507 1530 1507 1267 c 0,12,13
 1507 1212 1507 1212 1492 1145 c 1,14,-1
 1280 1090 l 1,15,16
 1293 1148 1293 1148 1293 1195 c 0,17,18
 1293 1406 1293 1406 1026 1406 c 0,19,20
 685 1406 685 1406 573 921 c 2,21,-1
 444 365 l 2,22,23
 435 325 435 325 435 290 c 0,24,25
 435 104 435 104 711 104 c 0,26,27
 1052 104 1052 104 1164 589 c 2,28,-1
 1175 635 l 1,29,-1
 1133 635 l 2,30,31
 951 635 951 635 816 565 c 1,32,-1
 850 712 l 1,33,34
 983 762 983 762 1162 762 c 2,35,-1
 1404 762 l 1,0,-1
EndSplineSet
Validated: 1
EndChar

StartChar: H
Encoding: 72 72 42
Width: 1406
GlyphClass: 2
Flags: W
HStem: 0 21G<200 404.626 1051 1276> 696 127<590 1167> 1490 20G<479 704 1350.37 1555>
VStem: 200 200<0 200> 500 209<1151.41 1508.51> 1046 208<1.50378 362.391> 1355 200<1310 1510>
DStem2: 200 0 400 0 0.224951 0.97437<44.9902 759.369 889.637 1405.93> 1005.74 0 1205.74 0 0.224951 0.97437<190.619 714.437 844.706 1549.87>
LayerCount: 2
Fore
SplineSet
200 0 m 1,0,-1
 479 1210 l 2,1,2
 500 1301 500 1301 500 1376 c 128,-1,3
 500 1451 500 1451 479 1510 c 1,4,-1
 699 1510 l 1,5,6
 709 1474 709 1474 709 1424 c 0,7,8
 709 1337 709 1337 679 1210 c 2,9,-1
 590 823 l 1,10,-1
 1196 823 l 1,11,-1
 1355 1510 l 1,12,-1
 1555 1510 l 1,13,-1
 1275 300 l 2,14,15
 1254 210 1254 210 1254 136 c 0,16,17
 1255 59 1255 59 1276 0 c 1,18,-1
 1056 0 l 1,19,20
 1046 37 1046 37 1046 87 c 0,21,22
 1046 173 1046 173 1075 300 c 2,23,-1
 1167 696 l 1,24,-1
 561 696 l 1,25,-1
 400 0 l 1,26,-1
 200 0 l 1,0,-1
EndSplineSet
Validated: 1
EndChar

StartChar: I
Encoding: 73 73 43
Width: 600
GlyphClass: 2
Flags: W
HStem: 0 21G<200 404.612> 1490 20G<479 704>
VStem: 200 200<0 200> 500 209<1153.28 1508.51>
DStem2: 200 0 400 0 0.224951 0.97437<44.9902 1405.93>
LayerCount: 2
Fore
SplineSet
200 0 m 25,0,-1
 479 1210 l 2,1,2
 500 1301 500 1301 500 1376 c 128,-1,3
 500 1451 500 1451 479 1510 c 9,4,-1
 699 1510 l 17,5,6
 709 1474 709 1474 709 1424 c 0,7,8
 709 1337 709 1337 679 1210 c 2,9,-1
 400 0 l 25,10,-1
 200 0 l 25,0,-1
EndSplineSet
Validated: 1
EndChar

StartChar: J
Encoding: 74 74 44
Width: 1128
GlyphClass: 2
Flags: W
HStem: -20 124<235 645.386> 1383 127<648.425 1047>
VStem: 111 215<137.935 279>
DStem2: 723.642 -20 923.718 -20 0.224951 0.97437<314.844 1439.78>
LayerCount: 2
Fore
SplineSet
615 1460 m 1,0,1
 740 1510 740 1510 927 1510 c 2,2,-1
 1277 1510 l 1,3,-1
 1044 501 l 2,4,5
 923 -20 923 -20 359 -20 c 0,6,7
 111 -20 111 -20 111 179 c 0,8,9
 111 224 111 224 124 279 c 1,10,-1
 337 334 l 1,11,12
 326 287 326 287 326 249 c 0,13,14
 327 104 327 104 490 104 c 0,15,16
 752 104 752 104 840 484 c 2,17,-1
 1047 1383 l 1,18,-1
 897 1383 l 2,19,20
 749 1383 749 1383 581 1313 c 1,21,-1
 615 1460 l 1,0,1
EndSplineSet
Validated: 1
EndChar

StartChar: K
Encoding: 75 75 45
Width: 1277
GlyphClass: 2
Flags: W
HStem: 0 21G<200 404.626 922.5 1147> 696 127<590 903.137> 1490 20G<479 702.5 1204.38 1409>
VStem: 200 200<0 200> 500 206<1135.91 1508.43> 918 208<1.6123 394.178> 968 198<170.591 631.166> 1209 200<1310 1510>
DStem2: 200 0 400 0 0.224951 0.97437<44.9902 759.369 889.637 1405.93> 876.74 0 1076.74 0 0.224951 0.97437<194.77 477.168 1142.27 1488.38>
LayerCount: 2
Fore
SplineSet
200 0 m 1,0,-1
 479 1210 l 2,1,2
 500 1301 500 1301 500 1376 c 128,-1,3
 500 1451 500 1451 479 1510 c 9,4,-1
 699 1510 l 17,5,6
 706 1469 706 1469 706 1421 c 0,7,8
 706 1329 706 1329 679 1210 c 2,9,-1
 590 823 l 1,10,-1
 792 823 l 2,11,12
 1050 823 1050 823 1136 1194 c 2,13,-1
 1209 1510 l 25,14,-1
 1409 1510 l 25,15,-1
 1361 1305 l 2,16,17
 1268 909 1268 909 984 779 c 1,18,19
 1166 681 1166 681 1166 460 c 0,20,21
 1166 385 1166 385 1146 300 c 128,-1,22
 1126 215 1126 215 1126 140 c 0,23,24
 1126 63 1126 63 1147 0 c 1,25,-1
 927 0 l 1,26,27
 918 40 918 40 918 90 c 0,28,29
 918 178 918 178 946 300 c 0,30,31
 968 396 968 396 968 471 c 0,32,33
 968 696 968 696 763 696 c 2,34,-1
 561 696 l 1,35,-1
 400 0 l 1,36,-1
 200 0 l 1,0,-1
EndSplineSet
Validated: 1
EndChar

StartChar: L
Encoding: 76 76 46
Width: 1041
GlyphClass: 2
Flags: W
HStem: 0 127<429 1017.66> 1490 20G<479 704>
VStem: 500 209<1156.26 1508.51>
DStem2: 200 0 399.68 0 0.224951 0.97437<175.259 1405.93>
LayerCount: 2
Fore
SplineSet
200 0 m 1,0,-1
 479 1210 l 2,1,2
 500 1301 500 1301 500 1376 c 128,-1,3
 500 1451 500 1451 479 1510 c 1,4,-1
 699 1510 l 1,5,6
 709 1474 709 1474 709 1424 c 0,7,8
 709 1337 709 1337 679 1210 c 2,9,-1
 429 127 l 1,10,-1
 760 127 l 2,11,12
 942 127 942 127 1076 197 c 1,13,-1
 1043 50 l 1,14,15
 910 0 910 0 731 0 c 2,16,-1
 200 0 l 1,0,-1
EndSplineSet
Validated: 1
EndChar

StartChar: O
Encoding: 79 79 47
Width: 1388
GlyphClass: 2
Flags: W
HStem: -20 124<507.899 885.436> 1406 124<847.014 1228.6>
VStem: 229 206<173.094 486.625> 1302 205<1014.69 1336.54>
DStem2: 155.116 -20 355.116 -20 0.224951 0.97437<363.28 1257.66> 1023.4 -20 1223.4 -20 0.224951 0.97437<378.333 1270.86>
LayerCount: 2
Fore
SplineSet
444 365 m 2,0,1
 435 326 435 326 435 287 c 0,2,3
 435 104 435 104 711 104 c 0,4,5
 1052 104 1052 104 1164 589 c 2,6,-1
 1292 1145 l 2,7,8
 1302 1188 1302 1188 1302 1221 c 0,9,10
 1302 1406 1302 1406 1026 1406 c 0,11,12
 686 1406 686 1406 573 921 c 2,13,-1
 444 365 l 2,0,1
244 365 m 2,14,-1
 373 921 l 18,15,16
 513 1530 513 1530 1156 1530 c 0,17,18
 1507 1530 1507 1530 1507 1267 c 0,19,20
 1507 1212 1507 1212 1492 1145 c 10,21,-1
 1364 589 l 2,22,23
 1223 -20 1223 -20 580 -20 c 0,24,25
 229 -20 229 -20 229 243 c 0,26,27
 229 298 229 298 244 365 c 2,14,-1
EndSplineSet
Validated: 1
EndChar

StartChar: P
Encoding: 80 80 48
Width: 1274
GlyphClass: 2
Flags: W
HStem: 0 21G<200 404.606> 508 127<547 934.294> 1383 127<701.948 1149.09>
VStem: 200 200<0 200> 496 211<1139.88 1381.49> 1223 206<1028.02 1315.04>
DStem2: 200 0 400 0 0.224951 0.97437<44.9902 566.289 696.783 1387.5>
LayerCount: 2
Fore
SplineSet
200 0 m 1,0,-1
 479 1210 l 2,1,2
 496 1283 496 1283 496 1358 c 128,-1,3
 496 1433 496 1433 479 1510 c 1,4,-1
 1078 1510 l 2,5,6
 1429 1510 1429 1510 1429 1247 c 0,7,8
 1429 1192 1429 1192 1414 1125 c 0,9,10
 1276 508 1276 508 629 508 c 2,11,-1
 517 508 l 1,12,-1
 400 0 l 1,13,-1
 200 0 l 1,0,-1
547 635 m 17,14,-1
 761 635 l 2,15,16
 1101 635 1101 635 1214 1125 c 0,17,18
 1223 1164 1223 1164 1223 1198 c 0,19,20
 1223 1383 1223 1383 945 1383 c 2,21,-1
 707 1383 l 1,22,23
 696 1282 696 1282 680 1212 c 10,24,-1
 547 635 l 17,14,-1
EndSplineSet
Validated: 1
EndChar

StartChar: Q
Encoding: 81 81 49
Width: 1392
GlyphClass: 2
Flags: W
HStem: -20 124<507.899 891.219> 0 21G<1080.74 1312> 1406 124<846.805 1227.85>
VStem: 229 206<173.651 486.625> 742 214<314 528> 1302 205<1014.69 1336.54>
DStem2: 155.116 -20 355.116 -20 0.224951 0.97437<366.082 1257.57> 956 528 742 528 0.559041 -0.82914<0 219.666 404.688 514.934> 1023.4 -20 1223.4 -20 0.224951 0.97437<372.576 1270.8>
LayerCount: 2
Fore
SplineSet
742 528 m 1,0,-1
 956 528 l 1,1,-1
 1079 346 l 1,2,3
 1131 447 1131 447 1164 589 c 2,4,-1
 1292 1145 l 2,5,6
 1302 1186 1302 1186 1302 1221 c 0,7,8
 1299 1406 1299 1406 1026 1406 c 0,9,10
 685 1406 685 1406 573 921 c 2,11,-1
 444 365 l 2,12,13
 435 325 435 325 435 290 c 0,14,15
 435 104 435 104 711 104 c 0,16,17
 859 104 859 104 964 195 c 1,18,-1
 742 528 l 1,0,-1
1312 0 m 1,19,-1
 1094 0 l 1,20,-1
 1035 89 l 1,21,22
 852 -20 852 -20 580 -20 c 0,23,24
 229 -20 229 -20 229 243 c 0,25,26
 229 298 229 298 244 365 c 2,27,-1
 373 921 l 2,28,29
 513 1530 513 1530 1156 1530 c 0,30,31
 1507 1530 1507 1530 1507 1267 c 0,32,33
 1507 1212 1507 1212 1492 1145 c 2,34,-1
 1364 589 l 2,35,36
 1309 349 1309 349 1175 203 c 1,37,-1
 1312 0 l 1,19,-1
EndSplineSet
Validated: 1
EndChar

StartChar: R
Encoding: 82 82 50
Width: 1340
GlyphClass: 2
Flags: W
HStem: 0 21G<200 404.606 956.5 1180> 508 127<547 941.022> 1383 127<701.948 1140.55>
VStem: 200 200<0 200> 496 211<1139.88 1381.49> 953 209<1.72058 378.498> 988 203<148.531 468.206> 1222 206<1011.8 1312.82>
DStem2: 200 0 400 0 0.224951 0.97437<44.9902 566.289 696.783 1387.53>
LayerCount: 2
Fore
SplineSet
547 635 m 1,0,-1
 761 635 l 2,1,2
 1097 635 1097 635 1212 1114 c 0,3,4
 1222 1156 1222 1156 1222 1194 c 0,5,6
 1222 1383 1222 1383 945 1383 c 2,7,-1
 707 1383 l 1,8,9
 696 1282 696 1282 680 1212 c 2,10,-1
 547 635 l 1,0,-1
200 0 m 1,11,-1
 479 1210 l 2,12,13
 496 1284 496 1284 496 1358 c 0,14,15
 496 1433 496 1433 479 1510 c 1,16,-1
 1078 1510 l 2,17,18
 1428 1510 1428 1510 1428 1243 c 0,19,20
 1428 1181 1428 1181 1412 1112 c 8,21,22
 1323 727 1323 727 1034 591 c 1,23,24
 1191 542 1191 542 1191 392 c 0,25,26
 1191 355 1191 355 1181 308 c 0,27,28
 1162 227 1162 227 1162 146 c 0,29,30
 1162 71 1162 71 1180 0 c 1,31,-1
 960 0 l 1,32,33
 953 39 953 39 953 89 c 0,34,35
 953 176 953 176 981 308 c 0,36,37
 988 340 988 340 988 367 c 0,38,39
 988 508 988 508 787 508 c 2,40,-1
 517 508 l 1,41,-1
 400 0 l 1,42,-1
 200 0 l 1,11,-1
EndSplineSet
Validated: 1
EndChar

StartChar: S
Encoding: 83 83 51
Width: 1388
GlyphClass: 2
Flags: W
HStem: -20 124<525.5 895.819> 745 151<724.148 1078.49> 1406 124<841.09 1186.47>
VStem: 228 216<179.49 367.594> 435 218<962.119 1168.19> 1153 212<438.272 680.644> 1255 214<1142.87 1342.41>
LayerCount: 2
Fore
SplineSet
244 365 m 9,0,-1
 457 420 l 17,1,2
 444 364 444 364 444 315 c 0,3,4
 444 104 444 104 711 104 c 0,5,6
 1056 104 1056 104 1145 505 c 0,7,8
 1153 541 1153 541 1153 569 c 0,9,10
 1153 745 1153 745 873 745 c 0,11,12
 435 745 435 745 435 984 c 0,13,14
 435 1019 435 1019 444 1058 c 0,15,16
 552 1528 552 1528 1156 1530 c 0,17,-1
 1158 1530 l 0,18,19
 1469 1530 1469 1530 1469 1276 c 0,20,21
 1469 1217 1469 1217 1452 1145 c 9,22,-1
 1240 1090 l 17,23,24
 1255 1155 1255 1155 1255 1205 c 0,25,26
 1255 1406 1255 1406 1026 1406 c 0,27,28
 719 1406 719 1406 660 1128 c 0,29,30
 653 1095 653 1095 653 1067 c 0,31,32
 653 896 653 896 931 896 c 0,33,34
 1365 896 1365 896 1365 635 c 0,35,36
 1365 589 1365 589 1354 544 c 0,37,38
 1216 -20 1216 -20 580 -20 c 0,39,40
 228 -20 228 -20 228 242 c 0,41,42
 228 296 228 296 244 365 c 9,0,-1
EndSplineSet
Validated: 1
EndChar

StartChar: T
Encoding: 84 84 52
Width: 1040
GlyphClass: 2
Flags: W
HStem: 0 21G<420 624.613> 1383 127<371.037 739 939 1349>
VStem: 420 200<0 200>
DStem2: 420 0 620 0 0.224951 0.97437<44.9902 1419.31>
LayerCount: 2
Fore
SplineSet
347 1460 m 1,0,1
 428 1510 428 1510 659 1510 c 2,2,-1
 1379 1510 l 25,3,-1
 1349 1383 l 25,4,-1
 939 1383 l 1,5,-1
 620 0 l 1,6,-1
 420 0 l 1,7,-1
 739 1383 l 1,8,-1
 629 1383 l 2,9,10
 452 1383 452 1383 313 1313 c 1,11,-1
 347 1460 l 1,0,1
EndSplineSet
Validated: 1
EndChar

StartChar: U
Encoding: 85 85 53
Width: 1406
GlyphClass: 2
Flags: W
HStem: -20 123<544.341 886.536> 1490 20G<479 704 1350.37 1555>
VStem: 269 205<165.699 483.828> 500 209<1157.19 1508.51> 1355 200<1310 1510>
DStem2: 195.116 -20 395.116 -20 0.224951 0.97437<361.991 1426.52> 1001.4 -20 1201.4 -20 0.224951 0.97437<366.842 1570.33>
LayerCount: 2
Fore
SplineSet
479 1510 m 1,0,-1
 699 1510 l 1,1,2
 709 1474 709 1474 709 1424 c 0,3,4
 709 1337 709 1337 679 1210 c 2,5,-1
 484 365 l 2,6,7
 474 322 474 322 474 286 c 0,8,9
 474 103 474 103 727 103 c 0,10,11
 1030 103 1030 103 1142 589 c 2,12,-1
 1355 1510 l 25,13,-1
 1555 1510 l 25,14,-1
 1342 589 l 2,15,16
 1201 -20 1201 -20 620 -20 c 0,17,18
 269 -20 269 -20 269 243 c 0,19,20
 269 298 269 298 284 365 c 2,21,-1
 479 1210 l 2,22,23
 500 1301 500 1301 500 1376 c 128,-1,24
 500 1451 500 1451 479 1510 c 1,0,-1
EndSplineSet
Validated: 1
EndChar

StartChar: V
Encoding: 86 86 54
Width: 1358
GlyphClass: 2
Flags: W
HStem: 0 21G<475 1036> 1490 20G<429 654 1259.5 1567>
VStem: 372 190<376.842 1096.49> 450 209<1137.08 1508.51> 1367 200<1354.44 1510>
LayerCount: 2
Fore
SplineSet
578 0 m 1,0,1
 372 323 372 323 372 742 c 0,2,3
 372 962 372 962 429 1208 c 0,4,5
 450 1299 450 1299 450 1374.5 c 128,-1,6
 450 1450 450 1450 429 1510 c 1,7,-1
 649 1510 l 1,8,9
 659 1475 659 1475 659 1422 c 0,10,11
 659 1339 659 1339 630 1208 c 0,12,13
 562 912 562 912 562 669 c 0,14,15
 562 342 562 342 682 98 c 1,16,17
 1152 581 1152 581 1367 1510 c 1,18,-1
 1567 1510 l 1,19,20
 1332 494 1332 494 740 0 c 1,21,-1
 578 0 l 1,0,1
EndSplineSet
Validated: 1
EndChar

StartChar: X
Encoding: 88 88 55
Width: 1278
GlyphClass: 2
Flags: W
HStem: 0 21G<140 388 933 1158> 1490 20G<469 694 1242.5 1487>
VStem: 140 200<0 138.295> 458 204<988.155 1371.62> 490 209<1127.24 1508.5> 928 208<1.50391 410.842> 970 202<114.568 564.729> 1287 200<1372.57 1510>
LayerCount: 2
Fore
SplineSet
140 0 m 1,0,1
 258 510 258 510 700 768 c 1,2,3
 458 910 458 910 458 1117 c 0,4,5
 458 1161 458 1161 469 1208 c 0,6,7
 490 1298 490 1298 490 1374 c 128,-1,8
 490 1450 490 1450 469 1510 c 1,9,-1
 689 1510 l 1,10,11
 699 1474 699 1474 699 1423 c 0,12,13
 699 1346 699 1346 670 1208 c 0,14,15
 662 1170 662 1170 662 1135 c 0,16,17
 662 978 662 978 836 853 c 1,18,19
 1198 1124 1198 1124 1287 1510 c 1,20,-1
 1487 1510 l 1,21,22
 1382 1056 1382 1056 931 784 c 1,23,24
 1172 655 1172 655 1172 422 c 0,25,26
 1172 364 1172 364 1157 300 c 0,27,28
 1136 211 1136 211 1136 136 c 0,29,30
 1136 59 1136 59 1158 0 c 1,31,-1
 938 0 l 1,32,33
 928 37 928 37 928 88 c 0,34,35
 928 177 928 177 957 300 c 0,36,37
 970 355 970 355 970 403 c 0,38,39
 970 584 970 584 799 692 c 1,40,41
 436 414 436 414 340 0 c 1,42,-1
 140 0 l 1,0,1
EndSplineSet
Validated: 1
EndChar

StartChar: Y
Encoding: 89 89 56
Width: 1336
GlyphClass: 2
Flags: W
HStem: 0 21G<558 762.615> 507 123<628.75 675 878 980.161> 1490 20G<449 672.5 1320.34 1525>
VStem: 361 205<689.434 1020.59> 470 206<1135.23 1508.37> 558 200<0 200> 1325 200<1310 1510>
DStem2: 170.296 0 370.296 0 0.224951 0.97437<874.662 1403.06> 558 0 758 0 0.224951 0.97437<44.9902 520.325> 975.582 0 1175.58 0 0.224951 0.97437<886.531 1549.9>
LayerCount: 2
Fore
SplineSet
558 0 m 1,0,-1
 675 507 l 1,1,2
 361 520 361 520 361 769 c 0,3,4
 361 825 361 825 376 891 c 2,5,-1
 449 1210 l 2,6,7
 470 1302 470 1302 470 1373 c 0,8,9
 470 1448 470 1448 449 1510 c 1,10,-1
 669 1510 l 1,11,12
 676 1468 676 1468 676 1420 c 0,13,14
 676 1328 676 1328 649 1210 c 2,15,-1
 576 891 l 2,16,17
 566 847 566 847 566 805 c 0,18,19
 566 630 566 630 817 630 c 0,20,21
 1120 630 1120 630 1233 1115 c 2,22,-1
 1325 1510 l 1,23,-1
 1525 1510 l 1,24,-1
 1433 1115 l 2,25,26
 1313 598 1313 598 878 520 c 1,27,-1
 758 0 l 1,28,-1
 558 0 l 1,0,-1
EndSplineSet
Validated: 1
EndChar

StartChar: Z
Encoding: 90 90 57
Width: 1273
GlyphClass: 2
Flags: W
HStem: 0 127<346 1174.46> 1383 127<541.23 1247>
DStem2: 109 127 346 127 0.671438 0.74106<159.131 1694.87>
LayerCount: 2
Fore
SplineSet
80 0 m 1,0,-1
 109 127 l 1,1,-1
 1247 1383 l 1,2,-1
 795 1383 l 2,3,4
 627 1383 627 1383 479 1313 c 9,5,-1
 513 1460 l 17,6,7
 663 1510 663 1510 825 1510 c 2,8,-1
 1514 1510 l 1,9,-1
 1484 1383 l 1,10,-1
 346 127 l 1,11,-1
 922 127 l 2,12,13
 1082 127 1082 127 1238 197 c 9,14,-1
 1205 50 l 17,15,16
 1072 0 1072 0 893 0 c 2,17,-1
 80 0 l 1,0,-1
EndSplineSet
Validated: 1
EndChar

StartChar: bracketleft
Encoding: 91 91 58
Width: 853
GlyphClass: 2
Flags: W
HStem: -289 150<368 736> 1668 150<785 1188>
DStem2: 133 -289 333.37 -289 0.224951 0.97437<199.019 2053.51>
LayerCount: 2
Fore
SplineSet
620 1818 m 1,0,-1
 1223 1818 l 1,1,-1
 1188 1668 l 1,2,-1
 785 1668 l 1,3,-1
 368 -139 l 1,4,-1
 771 -139 l 1,5,-1
 736 -289 l 1,6,-1
 133 -289 l 1,7,-1
 620 1818 l 1,0,-1
EndSplineSet
Validated: 1
EndChar

StartChar: backslash
Encoding: 92 92 59
Width: 1096
GlyphClass: 2
Flags: W
VStem: 428 588
DStem2: 590 1705 428 1637 0.226408 -0.974033<29.5561 1885.75>
LayerCount: 2
Fore
SplineSet
590 1705 m 1,0,-1
 1016 -132 l 1,1,-1
 855 -200 l 1,2,-1
 428 1637 l 1,3,-1
 590 1705 l 1,0,-1
EndSplineSet
Validated: 1
EndChar

StartChar: bracketright
Encoding: 93 93 60
Width: 853
GlyphClass: 2
Flags: W
HStem: -289 150<18 421> 1668 150<470 838>
DStem2: 386.37 -289 586 -289 0.224951 0.97437<153.946 2008.44>
LayerCount: 2
Fore
SplineSet
470 1818 m 1,0,-1
 1073 1818 l 1,1,-1
 586 -289 l 1,2,-1
 -17 -289 l 1,3,-1
 18 -139 l 1,4,-1
 421 -139 l 1,5,-1
 838 1668 l 1,6,-1
 435 1668 l 1,7,-1
 470 1818 l 1,0,-1
EndSplineSet
Validated: 1
EndChar

StartChar: asciicircum
Encoding: 94 94 61
Width: 1176
GlyphClass: 2
Flags: W
HStem: 988 523
VStem: 328 205<988 1193> 1040 264<988 1252>
DStem2: 328 988 533 988 0.703702 0.710495<144.259 622.292> 1028 1511 866 1331 0.466722 -0.884404<83.5838 468.144>
LayerCount: 2
Fore
SplineSet
846 1511 m 1,0,-1
 1028 1511 l 1,1,-1
 1304 988 l 1,2,-1
 1040 988 l 1,3,-1
 866 1331 l 1,4,-1
 533 988 l 1,5,-1
 328 988 l 1,6,-1
 846 1511 l 1,0,-1
EndSplineSet
Validated: 1
EndChar

StartChar: underscore
Encoding: 95 95 62
Width: 1183
GlyphClass: 2
Flags: W
HStem: -410 150<90 938>
LayerCount: 2
Fore
SplineSet
55 -410 m 1,0,-1
 90 -260 l 1,1,-1
 973 -260 l 1,2,-1
 938 -410 l 1,3,-1
 55 -410 l 1,0,-1
EndSplineSet
Validated: 1
EndChar

StartChar: grave
Encoding: 96 96 63
Width: 792
GlyphClass: 2
Flags: W
HStem: 1037 493
VStem: 469 437
LayerCount: 2
Fore
SplineSet
651 1530 m 1,0,-1
 906 1143 l 1,1,-1
 775 1037 l 1,2,-1
 469 1382 l 1,3,-1
 651 1530 l 1,0,-1
EndSplineSet
Validated: 1
EndChar

StartChar: a
Encoding: 97 97 64
Width: 1168
GlyphClass: 2
Flags: W
HStem: -20 150<366.479 590.359> 0 21G<814 1038> 566 106<606.533 882> 1013 107<695.854 939.073>
VStem: 141 212<145 315.984> 810 209<1.78259 355.206> 960 211<687.281 993.895>
LayerCount: 2
Fore
SplineSet
1038 0 m 9,0,-1
 818 0 l 17,1,2
 810 42 810 42 810 92 c 0,3,4
 810 186 810 186 837 300 c 1,5,6
 683 -19 683 -19 401 -20 c 0,7,8
 141 -20 141 -20 141 145 c 0,9,10
 141 176 141 176 149 211 c 0,11,12
 251 658 251 658 920 672 c 1,13,14
 933 714 933 714 943 756 c 1,15,16
 960 827 960 827 960 879 c 0,17,18
 960 1013 960 1013 847 1013 c 0,19,20
 680 1013 680 1013 558 825 c 9,21,-1
 427 884 l 17,22,23
 622 1120 622 1120 923 1120 c 0,24,25
 1171 1120 1171 1120 1171 921 c 0,26,27
 1171 877 1171 877 1158 821 c 2,28,-1
 1037 300 l 2,29,30
 1019 222 1019 222 1019 147 c 128,-1,31
 1019 72 1019 72 1038 0 c 9,0,-1
882 566 m 1,32,33
 431 561 431 561 357 248 c 0,34,35
 353 231 353 231 353 215 c 0,36,37
 353 130 353 130 485 130 c 0,38,39
 632 130 632 130 767 345 c 0,40,41
 836 455 836 455 882 566 c 1,32,33
EndSplineSet
Validated: 1
EndChar

StartChar: b
Encoding: 98 98 65
Width: 1228
GlyphClass: 2
Flags: W
HStem: -20 136<375 794.627> 970 150<830.592 1034.27> 1490 20G<479 703>
VStem: 251 217<159.557 410.58> 498 209<1138.4 1508.25> 1056 215<768.116 950.879>
DStem2: 194.97 -20 394.349 -20 0.224951 0.97437<341.125 738.814 886.721 1415.38> 863.488 -20 1063.49 -20 0.224951 0.97437<306.828 888.904>
LayerCount: 2
Fore
SplineSet
479 1510 m 9,0,-1
 699 1510 l 17,1,2
 707 1468 707 1468 707 1420 c 0,3,4
 706 1324 706 1324 679 1210 c 2,5,-1
 585 800 l 1,6,7
 740 1120 740 1120 1023 1120 c 0,8,9
 1271 1120 1271 1120 1271 921 c 0,10,11
 1271 876 1271 876 1258 821 c 2,12,-1
 1181 489 l 2,13,14
 1063 -20 1063 -20 499 -20 c 0,15,16
 251 -20 251 -20 251 179 c 0,17,18
 251 224 251 224 264 279 c 2,19,-1
 479 1210 l 2,20,21
 498 1290 498 1290 498 1365 c 128,-1,22
 498 1440 498 1440 479 1510 c 9,0,-1
477 338 m 0,23,24
 468 300 468 300 468 266 c 0,25,26
 468 116 468 116 665 116 c 8,27,28
 895 116 895 116 981 489 c 2,29,-1
 1045 765 l 2,30,31
 1056 812 1056 812 1056 849 c 0,32,33
 1056 970 1056 970 937 970 c 0,34,35
 789 970 789 970 655 755 c 0,36,37
 528 552 528 552 477 338 c 0,23,24
EndSplineSet
Validated: 1
EndChar

StartChar: c
Encoding: 99 99 66
Width: 1168
GlyphClass: 2
Flags: W
HStem: -20 136<325 739.929> 984 136<677.588 1096.5>
VStem: 201 217<160.781 331.884> 1004 216<817.809 940.443>
DStem2: 144.97 -20 345.273 -20 0.224951 0.97437<340.06 908.327>
LayerCount: 2
Fore
SplineSet
1096 373 m 17,0,1
 945 -20 945 -20 449 -20 c 0,2,3
 201 -20 201 -20 201 179 c 0,4,5
 201 224 201 224 214 279 c 2,6,-1
 291 611 l 2,7,8
 409 1120 409 1120 973 1120 c 0,9,10
 1220 1120 1220 1120 1220 921 c 0,11,12
 1220 876 1220 876 1208 821 c 9,13,-1
 995 765 l 17,14,15
 1004 803 1004 803 1004 834 c 0,16,17
 1004 984 1004 984 807 984 c 0,18,19
 578 984 578 984 491 611 c 2,20,-1
 427 334 l 2,21,22
 418 296 418 296 418 265 c 0,23,24
 418 116 418 116 615 116 c 0,25,26
 795 116 795 116 889 349 c 9,27,-1
 1096 373 l 17,0,1
EndSplineSet
Validated: 1
EndChar

StartChar: d
Encoding: 100 100 67
Width: 1228
GlyphClass: 2
Flags: W
HStem: -20 149<447.734 652.633> 0 21G<874 1098> 1010 110<689.736 970.576> 1490 20G<1107 1331>
VStem: 211 215<149.121 331.884> 870 209<1.78259 355.096> 1126 209<1137.59 1508.25>
DStem2: 154.97 -20 355.273 -20 0.224951 0.97437<324.204 932.651> 823.122 -20 1023.12 -20 0.224951 0.97437<222.535 328.417 475.847 889.583 1115.58 1415.35>
LayerCount: 2
Fore
SplineSet
1098 0 m 9,0,-1
 878 0 l 17,1,2
 870 42 870 42 870 92 c 0,3,4
 870 186 870 186 897 300 c 1,5,6
 743 -20 743 -20 459 -20 c 0,7,8
 211 -20 211 -20 211 179 c 0,9,10
 211 224 211 224 224 279 c 2,11,-1
 301 611 l 2,12,13
 418 1120 418 1120 853 1120 c 0,14,15
 991 1120 991 1120 1074 1067 c 1,16,-1
 1107 1210 l 2,17,18
 1126 1290 1126 1290 1126 1365 c 128,-1,19
 1126 1440 1126 1440 1107 1510 c 9,20,-1
 1327 1510 l 17,21,22
 1335 1468 1335 1468 1335 1420 c 0,23,24
 1335 1331 1335 1331 1307 1210 c 2,25,-1
 1097 300 l 2,26,27
 1079 221 1079 221 1079 147 c 0,28,29
 1079 72 1079 72 1098 0 c 9,0,-1
1002 755 m 0,30,31
 1015 808 1015 808 1015 850 c 0,32,33
 1014 1010 1014 1010 829 1010 c 0,34,35
 594 1010 594 1010 501 610 c 2,36,-1
 437 334 l 2,37,38
 426 286 426 286 426 249 c 0,39,40
 426 129 426 129 545 129 c 0,41,42
 688 129 688 129 826 348 c 0,43,44
 951 545 951 545 1002 755 c 0,30,31
EndSplineSet
Validated: 1
EndChar

StartChar: e
Encoding: 101 101 68
Width: 1168
GlyphClass: 2
Flags: W
HStem: -20 136<325 740.405> 984 136<677.588 1087>
VStem: 201 217<160.781 331.884> 984 217<789.962 932.422>
DStem2: 144.97 -20 345.273 -20 0.224951 0.97437<340.06 448.395 618.688 908.327> 474 539 436 373 0.921448 0.388502<0 566.092>
LayerCount: 2
Fore
SplineSet
1096 373 m 1,0,1
 945 -20 945 -20 449 -20 c 0,2,3
 201 -20 201 -20 201 179 c 0,4,5
 201 224 201 224 214 279 c 2,6,-1
 291 611 l 2,7,8
 409 1120 409 1120 973 1120 c 0,9,10
 1201 1120 1201 1120 1201 875 c 0,11,12
 1201 794 1201 794 1176 685 c 1,13,-1
 436 373 l 1,14,-1
 427 334 l 2,15,16
 418 296 418 296 418 265 c 0,17,18
 420 116 420 116 615 116 c 0,19,20
 797 116 797 116 889 349 c 1,21,-1
 1096 373 l 1,0,1
474 539 m 1,22,-1
 983 753 l 1,23,24
 984 771 984 771 984 787 c 0,25,26
 984 984 984 984 807 984 c 0,27,28
 578 984 578 984 491 611 c 2,29,-1
 474 539 l 1,22,-1
EndSplineSet
Validated: 1
EndChar

StartChar: f
Encoding: 102 102 69
Width: 851
GlyphClass: 2
Flags: W
HStem: 0 21G<220 424.624> 705 127<612 883> 1394 136<841.917 1145.77>
VStem: 220 200<0 200>
DStem2: 220 0 420 0 0.224951 0.97437<44.9902 693.767 898.857 1308.47>
LayerCount: 2
Fore
SplineSet
220 0 m 1,0,-1
 376 676 l 1,1,2
 321 661 321 661 260 635 c 1,3,-1
 294 782 l 1,4,5
 359 805 359 805 409 817 c 1,6,-1
 456 1021 l 2,7,8
 573 1530 573 1530 1137 1530 c 0,9,10
 1167 1530 1167 1530 1194 1527 c 9,11,-1
 1119 1358 l 17,12,13
 1070 1394 1070 1394 972 1394 c 8,14,15
 742 1394 742 1394 656 1021 c 10,16,-1
 612 832 l 17,17,18
 762 832 762 832 912 832 c 25,19,-1
 883 705 l 25,20,-1
 583 705 l 17,21,-1
 420 0 l 1,22,-1
 220 0 l 1,0,-1
EndSplineSet
Validated: 1
EndChar

StartChar: g
Encoding: 103 103 70
Width: 1188
GlyphClass: 2
Flags: W
HStem: -430 107<339.291 584.153> -20 150<437.734 642.56> 984 136<677.373 1097>
VStem: 201 215<148.792 415.406> 1002 219<684.209 939.878>
DStem2: 50.3144 -430 250.386 -430 0.224951 0.97437<746.907 1329.01> 718.466 -430 918.687 -430 0.224951 0.97437<480.728 749.202 890.704 1290.48>
LayerCount: 2
Fore
SplineSet
427 335 m 2,0,1
 416 287 416 287 416 251 c 0,2,3
 416 130 416 130 535 130 c 0,4,5
 688 130 688 130 817 345 c 0,6,7
 952 569 952 569 993 756 c 0,8,9
 1002 797 1002 797 1002 830 c 0,10,11
 1002 984 1002 984 807 984 c 0,12,13
 577 984 577 984 491 611 c 2,14,-1
 427 335 l 2,0,1
111 -277 m 1,15,-1
 319 -221 l 1,16,17
 330 -323 330 -323 430 -323 c 0,18,19
 743 -323 743 -323 887 300 c 1,20,21
 732 -20 732 -20 449 -20 c 0,22,23
 201 -20 201 -20 201 179 c 0,24,25
 201 224 201 224 214 279 c 2,26,-1
 291 611 l 2,27,28
 409 1120 409 1120 973 1120 c 0,29,30
 1221 1120 1221 1120 1221 921 c 0,31,32
 1221 876 1221 876 1208 821 c 2,33,-1
 1111 403 l 2,34,35
 919 -430 919 -430 355 -430 c 0,36,37
 136 -430 136 -430 111 -277 c 1,15,-1
EndSplineSet
Validated: 1
EndChar

StartChar: h
Encoding: 104 104 71
Width: 1268
GlyphClass: 2
Flags: W
HStem: 0 21G<200 404.615 914 1138> 970 150<830.424 1034.27> 1490 20G<479 703>
VStem: 498 209<1146.41 1508.22> 910 209<1.79797 372.961> 1056 215<765.261 950.879>
DStem2: 200 0 400 0 0.224951 0.97437<44.9902 654.575 866.102 1394.76> 867.74 0 1067.74 0 0.224951 0.97437<202.009 868.49>
LayerCount: 2
Fore
SplineSet
200 0 m 1,0,-1
 479 1210 l 2,1,2
 498 1290 498 1290 498 1365 c 128,-1,3
 498 1440 498 1440 479 1510 c 9,4,-1
 699 1510 l 17,5,6
 707 1466 707 1466 707 1420 c 0,7,8
 707 1332 707 1332 679 1210 c 2,9,-1
 585 800 l 1,10,11
 739 1120 739 1120 1023 1120 c 0,12,13
 1271 1120 1271 1120 1271 921 c 0,14,15
 1271 876 1271 876 1258 821 c 2,16,-1
 1137 300 l 2,17,18
 1119 221 1119 221 1119 147 c 128,-1,19
 1119 73 1119 73 1138 0 c 9,20,-1
 918 0 l 17,21,22
 910 42 910 42 910 92 c 0,23,24
 910 184 910 184 937 300 c 2,25,-1
 1045 765 l 2,26,27
 1056 813 1056 813 1056 849 c 0,28,29
 1056 970 1056 970 937 970 c 0,30,31
 624 970 624 970 418 78 c 2,32,-1
 400 0 l 1,33,-1
 200 0 l 1,0,-1
EndSplineSet
Validated: 1
EndChar

StartChar: i
Encoding: 105 105 72
Width: 600
GlyphClass: 2
Flags: W
HStem: 0 21G<246 470> 1080 20G<384 608> 1275 255<506.371 677.394>
VStem: 242 209<1.78271 370.312> 403 209<729.688 1098.23> 460 262<1318.71 1483.95>
DStem2: 199.74 0 399.74 0 0.224951 0.97437<202.983 971.069>
LayerCount: 2
Fore
SplineSet
250 0 m 17,0,1
 242 43 242 43 242 92 c 0,2,3
 243 187 243 187 269 300 c 2,4,-1
 385 800 l 2,5,6
 403 878 403 878 403 952 c 0,7,8
 402 1029 402 1029 384 1100 c 9,9,-1
 604 1100 l 17,10,11
 612 1058 612 1058 612 1008 c 0,12,13
 611 914 611 914 585 800 c 2,14,-1
 469 300 l 2,15,16
 451 222 451 222 451 148 c 0,17,18
 452 71 452 71 470 0 c 9,19,-1
 250 0 l 17,0,1
561 1275 m 16,20,21
 464 1275 464 1275 460 1359 c 0,22,23
 459 1378 459 1378 466 1406 c 0,24,25
 497 1530 497 1530 620 1530 c 0,26,27
 722 1530 722 1530 722 1446 c 0,28,29
 722 1424 722 1424 716 1399 c 0,30,31
 689 1275 689 1275 561 1275 c 16,20,21
EndSplineSet
Validated: 1
EndChar

StartChar: j
Encoding: 106 106 73
Width: 610
GlyphClass: 2
Flags: W
HStem: -430 128<-60 0.265381> 1080 20G<394 618> 1275 255<506.371 677.394>
VStem: 413 209<724.844 1098.19> 460 262<1318.71 1483.95>
DStem2: 111.08 -430 311.08 -430 0.224951 0.97437<427.11 1414.13>
LayerCount: 2
Fore
SplineSet
561 1275 m 16,0,1
 464 1275 464 1275 460 1359 c 0,2,3
 459 1378 459 1378 466 1406 c 0,4,5
 497 1530 497 1530 620 1530 c 0,6,7
 722 1530 722 1530 722 1446 c 0,8,9
 722 1424 722 1424 716 1399 c 0,10,11
 689 1275 689 1275 561 1275 c 16,0,1
394 1100 m 9,12,-1
 614 1100 l 17,13,14
 622 1058 622 1058 622 1008 c 0,15,16
 621 913 621 913 595 800 c 2,17,-1
 484 319 l 2,18,19
 334 -331 334 -331 -89 -430 c 9,20,-1
 -60 -302 l 17,21,22
 169 -181 169 -181 284 319 c 2,23,-1
 395 800 l 2,24,25
 413 878 413 878 413 954 c 0,26,27
 413 1026 413 1026 394 1100 c 9,12,-1
EndSplineSet
Validated: 1
EndChar

StartChar: k
Encoding: 107 107 74
Width: 1218
GlyphClass: 2
Flags: W
HStem: 0 21G<200 410.292 832 1056> 513 107<719 809.732> 970 150<953.604 1198> 1490 20G<479 703>
VStem: 498 209<1149.14 1508.26> 828 209<1.81335 375.435> 863 203<149.252 467.18> 1062 213<818.64 968.532>
DStem2: 200 0 399.732 0 0.224951 0.97437<44.9902 148.429 432.873 1394.76> 487 378 664 513 0.45751 0.889204<0 218.915 321.33 690.95>
LayerCount: 2
Fore
SplineSet
200 0 m 1,0,-1
 479 1210 l 2,1,2
 498 1290 498 1290 498 1365 c 128,-1,3
 498 1440 498 1440 479 1510 c 9,4,-1
 699 1510 l 17,5,6
 707 1469 707 1469 707 1420 c 0,7,8
 707 1331 707 1331 679 1210 c 2,9,-1
 487 378 l 1,10,11
 640 712 640 712 718 834 c 0,12,13
 901 1120 901 1120 1121 1120 c 0,14,15
 1275 1120 1275 1120 1275 952 c 0,16,17
 1275 896 1275 896 1258 821 c 1,18,-1
 1045 765 l 1,19,20
 1062 841 1062 841 1062 889 c 0,21,22
 1062 970 1062 970 1012 970 c 0,23,24
 902 970 902 970 719 620 c 1,25,26
 1066 620 1066 620 1066 390 c 0,27,28
 1066 350 1066 350 1055 300 c 0,29,30
 1037 219 1037 219 1037 147 c 0,31,32
 1037 70 1037 70 1056 0 c 9,33,-1
 836 0 l 17,34,35
 828 46 828 46 828 92 c 0,36,37
 828 186 828 186 855 300 c 0,38,39
 863 335 863 335 863 363 c 0,40,41
 863 506 863 506 664 513 c 1,42,-1
 400 0 l 1,43,-1
 200 0 l 1,0,-1
EndSplineSet
Validated: 1
EndChar

StartChar: l
Encoding: 108 108 75
Width: 600
GlyphClass: 2
Flags: W
HStem: 0 21G<246 470> 1490 20G<479 703>
VStem: 242 209<1.79797 371.094> 498 209<1138.91 1508.25>
DStem2: 199.74 0 399.74 0 0.224951 0.97437<202.009 1394.82>
LayerCount: 2
Fore
SplineSet
250 0 m 17,0,1
 242 42 242 42 242 92 c 0,2,3
 242 183 242 183 269 300 c 2,4,-1
 479 1210 l 2,5,6
 498 1290 498 1290 498 1365 c 128,-1,7
 498 1440 498 1440 479 1510 c 9,8,-1
 699 1510 l 17,9,10
 707 1468 707 1468 707 1420 c 0,11,12
 707 1331 707 1331 679 1210 c 2,13,-1
 469 300 l 2,14,15
 451 221 451 221 451 147 c 128,-1,16
 451 73 451 73 470 0 c 9,17,-1
 250 0 l 17,0,1
EndSplineSet
Validated: 1
EndChar

StartChar: m
Encoding: 109 109 76
Width: 1936
GlyphClass: 2
Flags: W
HStem: 0 21G<200 404.615 868 1072.62 1582 1806> 970 150<830.424 1034.27 1498.42 1702.27> 1080 20G<384 608>
VStem: 403 209<745.529 1098.22> 1056 215<804.275 950.879> 1578 209<1.79797 372.961> 1724 215<765.261 950.879>
DStem2: 200 0 400 0 0.224951 0.97437<44.9902 654.575 866.102 973.843> 868 0 1068 0 0.224951 0.97437<44.9902 654.575> 1535.74 0 1735.74 0 0.224951 0.97437<202.039 868.46>
LayerCount: 2
Fore
SplineSet
200 0 m 1,0,-1
 385 800 l 2,1,2
 403 878 403 878 403 955 c 0,3,4
 403 1028 403 1028 384 1100 c 9,5,-1
 604 1100 l 17,6,7
 612 1058 612 1058 612 1008 c 0,8,9
 612 914 612 914 585 800 c 1,10,11
 739 1120 739 1120 1023 1120 c 0,12,13
 1271 1120 1271 1120 1271 921 c 0,14,15
 1271 876 1271 876 1258 821 c 2,16,-1
 1253 800 l 1,17,18
 1407 1120 1407 1120 1691 1120 c 0,19,20
 1939 1120 1939 1120 1939 921 c 0,21,22
 1939 877 1939 877 1926 821 c 2,23,-1
 1805 300 l 2,24,25
 1787 222 1787 222 1787 147 c 0,26,27
 1787 73 1787 73 1806 0 c 9,28,-1
 1586 0 l 17,29,30
 1578 42 1578 42 1578 92 c 0,31,32
 1578 184 1578 184 1605 300 c 2,33,-1
 1713 765 l 2,34,35
 1724 812 1724 812 1724 849 c 0,36,37
 1724 970 1724 970 1605 970 c 0,38,39
 1292 970 1292 970 1086 78 c 2,40,-1
 1068 0 l 1,41,-1
 868 0 l 1,42,-1
 1045 765 l 2,43,44
 1056 813 1056 813 1056 849 c 0,45,46
 1056 970 1056 970 937 970 c 0,47,48
 624 970 624 970 418 78 c 2,49,-1
 400 0 l 1,50,-1
 200 0 l 1,0,-1
EndSplineSet
Validated: 1
EndChar

StartChar: n
Encoding: 110 110 77
Width: 1268
GlyphClass: 2
Flags: W
HStem: 0 21G<200 404.615 914 1138> 970 150<830.424 1034.27> 1080 20G<384 608>
VStem: 403 209<745.529 1098.23> 910 209<1.79797 372.961> 1056 215<765.261 950.879>
DStem2: 200 0 400 0 0.224951 0.97437<44.9902 654.575 866.102 971.984> 867.74 0 1067.74 0 0.224951 0.97437<202.009 868.49>
LayerCount: 2
Fore
SplineSet
200 0 m 1,0,-1
 385 800 l 2,1,2
 403 879 403 879 403 953 c 0,3,4
 403 1029 403 1029 384 1100 c 9,5,-1
 604 1100 l 17,6,7
 612 1058 612 1058 612 1008 c 0,8,9
 612 914 612 914 585 800 c 1,10,11
 739 1120 739 1120 1023 1120 c 0,12,13
 1271 1120 1271 1120 1271 921 c 0,14,15
 1271 876 1271 876 1258 821 c 2,16,-1
 1137 300 l 2,17,18
 1119 221 1119 221 1119 147 c 128,-1,19
 1119 73 1119 73 1138 0 c 9,20,-1
 918 0 l 17,21,22
 910 42 910 42 910 92 c 0,23,24
 910 184 910 184 937 300 c 2,25,-1
 1045 765 l 2,26,27
 1056 813 1056 813 1056 849 c 0,28,29
 1056 970 1056 970 937 970 c 0,30,31
 624 970 624 970 418 78 c 2,32,-1
 400 0 l 1,33,-1
 200 0 l 1,0,-1
EndSplineSet
Validated: 1
EndChar

StartChar: o
Encoding: 111 111 78
Width: 1188
GlyphClass: 2
Flags: W
HStem: -20 124<454.376 757.686> 996 124<684.314 986.83>
VStem: 208 205<146.68 444.5> 1027 207<655.5 953.32>
DStem2: 145.659 -20 345.659 -20 0.224951 0.97437<322.92 909.937> 833.488 -20 1033.49 -20 0.224951 0.97437<304.964 891.262>
LayerCount: 2
Fore
SplineSet
491 611 m 2,0,-1
 423 315 l 2,1,2
 413 271 413 271 413 249 c 0,3,4
 413 104 413 104 611 104 c 0,5,6
 863 104 863 104 951 489 c 2,7,-1
 1019 785 l 2,8,9
 1027 820 1027 820 1027 851 c 0,10,11
 1027 996 1027 996 831 996 c 0,12,13
 579 996 579 996 491 611 c 2,0,-1
291 611 m 18,14,15
 409 1120 409 1120 962 1120 c 0,16,17
 1234 1120 1234 1120 1234 900 c 0,18,19
 1234 848 1234 848 1219 785 c 10,20,-1
 1151 489 l 2,21,22
 1033 -20 1033 -20 480 -20 c 0,23,24
 208 -20 208 -20 208 200 c 0,25,26
 208 252 208 252 223 315 c 2,27,-1
 291 611 l 18,14,15
EndSplineSet
Validated: 1
EndChar

StartChar: p
Encoding: 112 112 79
Width: 1228
GlyphClass: 2
Flags: W
HStem: -410 21G<105 309.65> -20 107<511.16 792.328> 971 149<828.555 1038.13> 1080 20G<384 608>
VStem: 105 200<-410 -210> 404 208<754.529 1098.19> 1056 215<768.116 950.879>
DStem2: 105 -410 305 -410 0.224951 0.97437<44.9902 499.806 722.589 1142.42 1286.96 1395.05> 773.219 -410 973.449 -410 0.224951 0.97437<682.619 1291.16>
LayerCount: 2
Fore
SplineSet
384 1100 m 9,0,-1
 604 1100 l 17,1,2
 612 1058 612 1058 612 1008 c 0,3,4
 612 915 612 915 585 800 c 1,5,6
 739 1120 739 1120 1023 1120 c 0,7,8
 1271 1120 1271 1120 1271 921 c 0,9,10
 1271 877 1271 877 1258 821 c 2,11,-1
 1181 489 l 2,12,13
 1063 -20 1063 -20 629 -20 c 0,14,15
 490 -20 490 -20 408 33 c 1,16,-1
 305 -410 l 1,17,-1
 105 -410 l 1,18,-1
 385 800 l 2,19,20
 404 882 404 882 404 955 c 0,21,22
 404 1026 404 1026 384 1100 c 9,0,-1
478 336 m 16,23,24
 466 287 466 287 466 247 c 0,25,26
 468 87 468 87 654 87 c 8,27,28
 888 87 888 87 981 490 c 2,29,-1
 1045 766 l 2,30,31
 1056 814 1056 814 1056 851 c 0,32,33
 1056 971 1056 971 938 971 c 0,34,35
 790 971 790 971 655 755 c 0,36,37
 533 560 533 560 478 336 c 16,23,24
EndSplineSet
Validated: 1
EndChar

StartChar: q
Encoding: 113 113 80
Width: 1228
GlyphClass: 2
Flags: W
HStem: -410 21G<779 1003> -20 150<443.95 653.406> 984 136<687.373 1107>
VStem: 211 215<149.121 331.884> 775 209<-408.249 -38.3984> 1014 217<686.858 940.443>
DStem2: 64.9318 -410 265.003 -410 0.224951 0.97437<721.69 1308.49> 733.74 -410 933.74 -410 0.224951 0.97437<199.866 728.528 875.346 1274.12>
LayerCount: 2
Fore
SplineSet
1003 -410 m 9,0,-1
 783 -410 l 17,1,2
 775 -368 775 -368 775 -320 c 0,3,4
 775 -232 775 -232 803 -110 c 2,5,-1
 897 300 l 1,6,7
 743 -20 743 -20 459 -20 c 0,8,9
 211 -20 211 -20 211 179 c 0,10,11
 211 224 211 224 224 279 c 2,12,-1
 301 611 l 2,13,14
 419 1120 419 1120 983 1120 c 0,15,16
 1231 1120 1231 1120 1231 921 c 0,17,18
 1231 876 1231 876 1218 821 c 2,19,-1
 1003 -110 l 2,20,21
 984 -190 984 -190 984 -265 c 128,-1,22
 984 -340 984 -340 1003 -410 c 9,0,-1
1004 762 m 0,23,24
 1014 800 1014 800 1014 834 c 0,25,26
 1014 984 1014 984 817 984 c 0,27,28
 587 984 587 984 501 611 c 2,29,-1
 437 335 l 2,30,31
 426 288 426 288 426 246 c 0,32,33
 426 130 426 130 545 130 c 0,34,35
 691 130 691 130 827 345 c 0,36,37
 943 530 943 530 1004 762 c 0,23,24
EndSplineSet
Validated: 1
EndChar

StartChar: r
Encoding: 114 114 81
Width: 1078
GlyphClass: 2
Flags: W
HStem: 0 21G<200 404.615> 970 150<830.424 1034.27> 1080 20G<384 608>
VStem: 403 209<745.529 1098.22> 1056 215<821 951.208>
DStem2: 200 0 400 0 0.224951 0.97437<44.9902 654.575 866.102 971.984>
LayerCount: 2
Fore
SplineSet
200 0 m 1,0,-1
 385 800 l 2,1,2
 403 879 403 879 403 953 c 0,3,4
 403 1028 403 1028 384 1100 c 9,5,-1
 604 1100 l 17,6,7
 612 1058 612 1058 612 1008 c 0,8,9
 612 914 612 914 585 800 c 1,10,11
 739 1120 739 1120 1023 1120 c 0,12,13
 1271 1120 1271 1120 1271 921 c 0,14,15
 1271 876 1271 876 1258 821 c 9,16,-1
 1045 765 l 17,17,18
 1056 813 1056 813 1056 849 c 0,19,20
 1056 970 1056 970 937 970 c 0,21,22
 624 970 624 970 418 78 c 2,23,-1
 400 0 l 1,24,-1
 200 0 l 1,0,-1
EndSplineSet
Validated: 1
EndChar

StartChar: t
Encoding: 116 116 82
Width: 820
GlyphClass: 2
Flags: W
HStem: 0 21G<356 580> 973 127<281.905 535 764 1035> 1490 20G<589 813>
VStem: 352 209<1.78253 373.609> 608 209<1136.09 1508.25>
DStem2: 309.74 0 509.74 0 0.224951 0.97437<201.537 998.735 1173.99 1394.82>
LayerCount: 2
Fore
SplineSet
360 0 m 17,0,1
 352 42 352 42 352 92 c 0,2,3
 352 184 352 184 379 300 c 2,4,-1
 535 973 l 1,5,6
 375 973 375 973 218 903 c 9,7,-1
 252 1050 l 17,8,9
 385 1100 385 1100 564 1100 c 1,10,-1
 589 1210 l 2,11,12
 608 1290 608 1290 608 1365 c 128,-1,13
 608 1440 608 1440 589 1510 c 9,14,-1
 809 1510 l 17,15,16
 817 1468 817 1468 817 1420 c 0,17,18
 817 1333 817 1333 789 1210 c 2,19,-1
 764 1100 l 1,20,21
 914 1100 914 1100 1064 1100 c 25,22,-1
 1035 973 l 25,23,-1
 735 973 l 17,24,-1
 579 300 l 2,25,26
 561 221 561 221 561 146.5 c 128,-1,27
 561 72 561 72 580 0 c 9,28,-1
 360 0 l 17,0,1
EndSplineSet
Validated: 1
EndChar

StartChar: u
Encoding: 117 117 83
Width: 1268
GlyphClass: 2
Flags: W
HStem: -20 150<487.734 691.576> 0 21G<914 1138> 1080 20G<384 608 1117.38 1322>
VStem: 251 215<149.121 334.739> 403 209<727.039 1098.2> 910 209<1.76721 354.471>
DStem2: 194.97 -20 395.042 -20 0.224951 0.97437<326.122 992.603> 863.122 -20 1063.12 -20 0.224951 0.97437<222.535 328.417 539.945 1149.53>
LayerCount: 2
Fore
SplineSet
1138 0 m 9,0,-1
 918 0 l 17,1,2
 910 42 910 42 910 92 c 0,3,4
 910 186 910 186 937 300 c 1,5,6
 783 -20 783 -20 499 -20 c 0,7,8
 251 -20 251 -20 251 179 c 0,9,10
 251 224 251 224 264 279 c 2,11,-1
 385 800 l 2,12,13
 403 879 403 879 403 953 c 128,-1,14
 403 1027 403 1027 384 1100 c 9,15,-1
 604 1100 l 17,16,17
 612 1058 612 1058 612 1008 c 0,18,19
 612 916 612 916 585 800 c 2,20,-1
 477 335 l 2,21,22
 466 287 466 287 466 251 c 0,23,24
 466 130 466 130 585 130 c 0,25,26
 898 130 898 130 1104 1022 c 2,27,-1
 1122 1100 l 1,28,-1
 1322 1100 l 1,29,-1
 1137 300 l 2,30,31
 1119 221 1119 221 1119 147 c 0,32,33
 1119 71 1119 71 1138 0 c 9,0,-1
EndSplineSet
Validated: 1
EndChar

StartChar: v
Encoding: 118 118 84
Width: 1083
GlyphClass: 2
Flags: W
HStem: 0 21G<350.5 851> 1080 20G<284 509 990.5 1257>
VStem: 262 192<305.568 865.914> 306 208<718.852 1098.48> 1057 200<941.667 1100>
LayerCount: 2
Fore
SplineSet
439 0 m 1,0,1
 262 311 262 311 262 596 c 0,2,3
 262 700 262 700 285 799 c 0,4,5
 306 886 306 886 306 963 c 128,-1,6
 306 1040 306 1040 284 1100 c 1,7,-1
 504 1100 l 1,8,9
 514 1063 514 1063 514 1012 c 0,10,11
 514 924 514 924 485 799 c 0,12,13
 454 665 454 665 454 537 c 0,14,15
 454 317 454 317 545 109 c 1,16,17
 924 526 924 526 1057 1100 c 1,18,-1
 1257 1100 l 1,19,20
 1101 424 1101 424 601 0 c 1,21,-1
 439 0 l 1,0,1
EndSplineSet
Validated: 1
EndChar

StartChar: w
Encoding: 119 119 85
Width: 1896
GlyphClass: 2
Flags: W
HStem: -20 150<487.734 691.576> -20 107<1150.93 1382.08> 1080 20G<384 608 1117.38 1322 1720 1944>
VStem: 251 215<148.792 412.086> 403 209<727.039 1098.22> 919 211<106.035 299.648> 1739 209<742.137 1098.22>
DStem2: 194.97 -20 395.042 -20 0.224951 0.97437<326.152 994.461> 862.97 -20 1063.04 -20 0.224951 0.97437<539.979 1149.56>
LayerCount: 2
Fore
SplineSet
384 1100 m 9,0,-1
 604 1100 l 17,1,2
 612 1058 612 1058 612 1008 c 0,3,4
 611 912 611 912 585 800 c 2,5,-1
 477 335 l 2,6,7
 466 288 466 288 466 251 c 0,8,9
 466 130 466 130 585 130 c 0,10,11
 898 130 898 130 1104 1022 c 2,12,-1
 1122 1100 l 1,13,-1
 1322 1100 l 1,14,-1
 1145 335 l 2,15,16
 1130 270 1130 270 1130 220 c 0,17,18
 1130 87 1130 87 1243 87 c 0,19,20
 1550 87 1550 87 1721 800 c 0,21,22
 1739 875 1739 875 1739 953 c 0,23,24
 1739 1028 1739 1028 1720 1100 c 9,25,-1
 1940 1100 l 17,26,27
 1948 1058 1948 1058 1948 1008 c 0,28,29
 1948 912 1948 912 1921 800 c 0,30,31
 1717 -20 1717 -20 1167 -20 c 0,32,33
 919 -20 919 -20 919 179 c 0,34,35
 919 224 919 224 932 279 c 2,36,-1
 937 300 l 1,37,38
 783 -20 783 -20 499 -20 c 0,39,40
 251 -20 251 -20 251 179 c 0,41,42
 251 223 251 223 264 279 c 2,43,-1
 385 800 l 2,44,45
 403 878 403 878 403 955 c 0,46,47
 403 1028 403 1028 384 1100 c 9,0,-1
EndSplineSet
Validated: 1
EndChar

StartChar: x
Encoding: 120 120 86
Width: 1078
GlyphClass: 2
Flags: W
HStem: 0 21G<100 332 763 988> 1080 20G<344 569 999 1232>
VStem: 100 200<0 126.108> 342 199<678.281 963.775> 366 208<765.531 1098.54> 758 208<1.50378 351.234> 793 201<138.347 444.676> 1032 200<971.68 1100>
LayerCount: 2
Fore
SplineSet
100 0 m 1,0,1
 182 354 182 354 558 546 c 1,2,3
 342 633 342 633 342 762 c 0,4,5
 342 781 342 781 346 800 c 0,6,7
 366 895 366 895 366 966 c 0,8,9
 366 1043 366 1043 344 1100 c 1,10,-1
 564 1100 l 1,11,12
 574 1064 574 1064 574 1010 c 0,13,14
 574 927 574 927 545 800 c 0,15,16
 541 783 541 783 541 768 c 0,17,18
 541 677 541 677 676 626 c 1,19,20
 966 815 966 815 1032 1100 c 1,21,-1
 1232 1100 l 1,22,23
 1155 765 1155 765 786 566 c 1,24,25
 994 505 994 505 994 357 c 0,26,27
 994 330 994 330 987 300 c 0,28,29
 966 211 966 211 966 136 c 0,30,31
 966 59 966 59 988 0 c 1,32,-1
 768 0 l 1,33,34
 758 37 758 37 758 87 c 0,35,36
 758 179 758 179 787 300 c 0,37,38
 793 325 793 325 793 347 c 0,39,40
 793 452 793 452 662 486 c 1,41,42
 364 277 364 277 300 0 c 1,43,-1
 100 0 l 1,0,1
EndSplineSet
Validated: 1
EndChar

StartChar: y
Encoding: 121 121 87
Width: 1268
GlyphClass: 2
Flags: W
HStem: -430 107<389.291 634.153> -20 150<487.734 691.576> 1080 20G<384 608 1117.38 1322>
VStem: 251 215<148.792 412.086> 403 209<727.039 1098.2>
DStem2: 100.314 -430 300.386 -430 0.224951 0.97437<746.937 1415.25> 768.466 -430 968.687 -430 0.224951 0.97437<480.728 749.202 960.73 1570.31>
LayerCount: 2
Fore
SplineSet
384 1100 m 9,0,-1
 604 1100 l 17,1,2
 612 1058 612 1058 612 1008 c 0,3,4
 611 912 611 912 585 800 c 2,5,-1
 477 335 l 2,6,7
 466 288 466 288 466 251 c 0,8,9
 466 130 466 130 585 130 c 0,10,11
 898 130 898 130 1104 1022 c 2,12,-1
 1122 1100 l 1,13,-1
 1322 1100 l 1,14,-1
 1161 403 l 2,15,16
 969 -430 969 -430 405 -430 c 0,17,18
 186 -430 186 -430 161 -277 c 1,19,-1
 369 -221 l 1,20,21
 380 -323 380 -323 480 -323 c 0,22,23
 793 -323 793 -323 937 300 c 1,24,25
 783 -20 783 -20 499 -20 c 0,26,27
 251 -20 251 -20 251 179 c 0,28,29
 251 223 251 223 264 279 c 2,30,-1
 385 800 l 2,31,32
 403 878 403 878 403 955 c 0,33,34
 403 1027 403 1027 384 1100 c 9,0,-1
EndSplineSet
Validated: 1
EndChar

StartChar: z
Encoding: 122 122 88
Width: 993
GlyphClass: 2
Flags: W
HStem: 0 127<333 894.46> 973 127<391.905 885>
DStem2: 109 127 333 127 0.675961 0.736937<151.415 1147.99>
LayerCount: 2
Fore
SplineSet
80 0 m 1,0,-1
 109 127 l 1,1,-1
 885 973 l 1,2,-1
 645 973 l 2,3,4
 485 973 485 973 328 903 c 9,5,-1
 362 1050 l 17,6,7
 495 1100 495 1100 674 1100 c 2,8,-1
 1138 1100 l 1,9,-1
 1109 973 l 1,10,-1
 333 127 l 1,11,-1
 642 127 l 2,12,13
 802 127 802 127 958 197 c 9,14,-1
 925 50 l 17,15,16
 792 0 792 0 613 0 c 2,17,-1
 80 0 l 1,0,-1
EndSplineSet
Validated: 1
EndChar

StartChar: braceleft
Encoding: 123 123 89
Width: 879
GlyphClass: 2
Flags: W
HStem: -288 107<623.324 763> 1711 107<1039.91 1224>
VStem: 352 197<-112.733 259.953> 453 197<322.016 656.437>
DStem2: 269.958 -288 464.958 -288 0.224951 0.97437<369.306 835.618 1249.92 1953.51>
LayerCount: 2
Fore
SplineSet
1249 1818 m 9,0,1
 1224 1711 l 17,2,3
 927 1711 927 1711 852 1389 c 2,4,-1
 775 1058 l 2,5,6
 723 834 723 834 470 765 c 1,7,8
 650 717 650 717 650 556 c 0,9,10
 650 516 650 516 640 472 c 2,11,-1
 564 141 l 2,12,13
 549 76 549 76 549 25 c 0,14,15
 549 -181 549 -181 787 -181 c 9,16,-1
 763 -288 l 17,17,18
 352 -288 352 -288 352 10 c 0,19,20
 352 67 352 67 369 141 c 2,21,-1
 445 472 l 2,22,23
 453 507 453 507 453 528 c 0,24,25
 453 665 453 665 277 765 c 1,26,27
 540 885 540 885 580 1058 c 2,28,-1
 657 1389 l 2,29,30
 757 1818 757 1818 1249 1818 c 9,0,1
EndSplineSet
Validated: 1
EndChar

StartChar: bar
Encoding: 124 124 90
Width: 661
GlyphClass: 2
Flags: W
VStem: 207 160<-186 -26> 641 161<1534 1695>
DStem2: 207 -186 367 -186 0.224951 0.97437<35.9922 1930.42>
LayerCount: 2
Fore
SplineSet
641 1695 m 1,0,-1
 802 1695 l 1,1,-1
 367 -186 l 1,2,-1
 207 -186 l 1,3,-1
 641 1695 l 1,0,-1
EndSplineSet
Validated: 1
EndChar

StartChar: braceright
Encoding: 125 125 91
Width: 879
GlyphClass: 2
Flags: W
HStem: -288 107<8 193.451> 1711 107<470 609.676>
VStem: 582 198<874.367 1207.98> 684 197<1270.05 1642.57>
DStem2: 281.958 -288 476.958 -288 0.224951 0.97437<251.794 965.326 1368.82 1834.95>
LayerCount: 2
Fore
SplineSet
470 1818 m 17,0,1
 881 1818 881 1818 881 1520 c 0,2,3
 881 1462 881 1462 864 1389 c 2,4,-1
 787 1058 l 2,5,6
 780 1028 780 1028 780 1001 c 0,7,8
 780 864 780 864 956 765 c 1,9,10
 692 645 692 645 652 472 c 2,11,-1
 576 141 l 2,12,13
 477 -288 477 -288 -16 -288 c 9,14,-1
 8 -181 l 17,15,16
 307 -181 307 -181 381 141 c 2,17,-1
 457 472 l 2,18,19
 510 705 510 705 763 765 c 1,20,21
 582 821 582 821 582 980 c 0,22,23
 582 1015 582 1015 592 1058 c 2,24,-1
 669 1389 l 2,25,26
 684 1453 684 1453 684 1504 c 0,27,28
 684 1711 684 1711 445 1711 c 9,29,-1
 470 1818 l 17,0,1
EndSplineSet
Validated: 1
EndChar

StartChar: asciitilde
Encoding: 126 126 92
Width: 1228
GlyphClass: 2
Flags: W
HStem: 578 148<836.551 1019.77> 787 146<559.803 727.063>
VStem: 306 187<629.707 704.078> 1083 187<798.976 881.293>
LayerCount: 2
Fore
SplineSet
306 634 m 1,0,1
 375 933 375 933 573 933 c 0,2,3
 748 933 748 933 821 793 c 0,4,5
 856 726 856 726 948 726 c 0,6,7
 1036 726 1036 726 1083 933 c 1,8,-1
 1270 877 l 1,9,10
 1201 578 1201 578 995 578 c 0,11,12
 797 578 797 578 743 714 c 0,13,14
 714 787 714 787 632 787 c 0,15,16
 542 787 542 787 493 578 c 1,17,-1
 306 634 l 1,0,1
EndSplineSet
Validated: 1
EndChar

StartChar: exclamdown
Encoding: 161 161 94
Width: 742
GlyphClass: 2
Flags: W
HStem: -20 21G<265 468.938> 1256 255<604.911 774.407>
VStem: 558 257<1296.18 1465.7>
LayerCount: 2
Fore
SplineSet
719 1511 m 16,0,1
 820 1511 820 1511 820 1427 c 0,2,3
 821 1408 821 1408 815 1383 c 0,4,5
 785 1256 785 1256 660 1256 c 0,6,7
 558 1256 558 1256 558 1340 c 0,8,9
 558 1359 558 1359 563 1383 c 0,10,11
 592 1511 592 1511 719 1511 c 16,0,1
265 -20 m 1,12,-1
 573 1138 l 1,13,-1
 693 1138 l 1,14,-1
 465 -20 l 1,15,-1
 265 -20 l 1,12,-1
EndSplineSet
Validated: 1
EndChar

StartChar: cent
Encoding: 162 162 95
Width: 1188
GlyphClass: 2
Flags: W
HStem: -20 21G<335 471.5> 1100 20G<970.5 1106.5>
VStem: 211 218<160.781 331.884> 471 160<-188 -28> 810 160<1122 1282> 1014 216<817.809 941.297>
DStem2: 116.185 -188 316.487 -188 0.224951 0.97437<511.85 1082.27> 471 -188 631 -188 0.224951 0.97437<35.9922 173.442 360.315 1189.36 1377.2 1508.58>
LayerCount: 2
Fore
SplineSet
1106 373 m 1,0,1
 991 73 991 73 674 2 c 1,2,-1
 631 -188 l 1,3,-1
 471 -188 l 1,4,-1
 510 -19 l 1,5,6
 484 -20 484 -20 459 -20 c 0,7,8
 211 -20 211 -20 211 179 c 0,9,10
 211 224 211 224 224 279 c 2,11,-1
 301 611 l 2,12,13
 394 1014 394 1014 767 1098 c 1,14,-1
 810 1282 l 1,15,-1
 970 1282 l 1,16,-1
 932 1119 l 1,17,18
 958 1120 958 1120 983 1120 c 0,19,20
 1230 1120 1230 1120 1230 921 c 0,21,22
 1230 876 1230 876 1218 821 c 1,23,-1
 1005 765 l 1,24,25
 1014 803 1014 803 1014 834 c 0,26,27
 1014 949 1014 949 899 976 c 1,28,-1
 704 128 l 1,29,30
 826 170 826 170 899 349 c 1,31,-1
 1106 373 l 1,0,1
543 124 m 1,32,-1
 738 971 l 1,33,34
 571 915 571 915 501 611 c 2,35,-1
 437 334 l 2,36,37
 429 299 429 299 429 264 c 0,38,39
 429 151 429 151 543 124 c 1,32,-1
EndSplineSet
Validated: 1
EndChar

StartChar: sterling
Encoding: 163 163 96
Width: 1280
GlyphClass: 2
Flags: W
HStem: 0 127<437 1105.62> 1406 124<851.153 1261.16>
VStem: 1171 214<1231 1372.07>
DStem2: 219.74 0 419.74 0 0.224951 0.97437<175.081 710.315 885.574 1300.48>
LayerCount: 2
Fore
SplineSet
150 0 m 1,0,1
 247 118 247 118 289 300 c 2,2,-1
 380 692 l 1,3,4
 327 692 327 692 260 637 c 1,5,-1
 294 784 l 1,6,7
 356 819 356 819 409 819 c 1,8,-1
 453 1009 l 2,9,10
 573 1530 573 1530 1137 1530 c 0,11,12
 1385 1530 1385 1530 1385 1331 c 0,13,14
 1385 1286 1385 1286 1372 1231 c 1,15,-1
 1160 1176 l 1,16,17
 1171 1223 1171 1223 1171 1261 c 0,18,19
 1171 1406 1171 1406 1007 1406 c 0,20,21
 745 1406 745 1406 657 1026 c 2,22,-1
 609 819 l 1,23,24
 769 819 769 819 925 889 c 9,25,-1
 891 742 l 17,26,27
 759 692 759 692 580 692 c 1,28,-1
 489 300 l 2,29,30
 466 201 466 201 437 127 c 1,31,-1
 859 127 l 2,32,33
 1007 127 1007 127 1175 197 c 1,34,-1
 1142 50 l 1,35,36
 1017 0 1017 0 830 0 c 2,37,-1
 150 0 l 1,0,1
EndSplineSet
Validated: 1
EndChar

StartChar: currency
Encoding: 164 164 97
Width: 1465
GlyphClass: 2
Flags: W
HStem: 354 136<643.956 987.284> 986 136<818.35 1160>
VStem: 437 204<534.573 758.048> 1163 207<722.01 940.84>
DStem2: 214 278 291 171 0.784327 0.620348<0 323.064 1330.74 1652.76> 561 1308 427 1200 0.625527 -0.780203<0.441278 309.651 1005.89 1315.29>
LayerCount: 2
Fore
SplineSet
648 708 m 0,0,1
 641 672 641 672 641 638 c 0,2,3
 641 491 641 491 850 490 c 0,4,5
 1087 490 1087 490 1154 763 c 0,6,7
 1163 800 1163 800 1163 835 c 0,8,9
 1163 986 1163 986 957 986 c 0,10,11
 702 986 702 986 648 708 c 0,0,1
214 278 m 1,12,-1
 452 467 l 1,13,14
 437 504 437 504 437 552 c 0,15,16
 437 602 437 602 449 654 c 0,17,18
 495 852 495 852 618 962 c 1,19,-1
 427 1200 l 1,20,-1
 561 1308 l 1,21,-1
 762 1056 l 1,22,23
 909 1122 909 1122 1122 1122 c 0,24,25
 1198 1122 1198 1122 1251 1103 c 1,26,-1
 1508 1308 l 1,27,-1
 1592 1200 l 1,28,-1
 1354 1012 l 1,29,30
 1370 974 1370 974 1370 924 c 0,31,32
 1370 875 1370 875 1357 820 c 0,33,34
 1312 629 1312 629 1190 516 c 1,35,-1
 1379 278 l 1,36,-1
 1252 171 l 1,37,-1
 1051 423 l 1,38,39
 901 354 901 354 685 354 c 0,40,41
 604 354 604 354 550 375 c 1,42,-1
 291 171 l 1,43,-1
 214 278 l 1,12,-1
EndSplineSet
Validated: 1
EndChar

StartChar: yen
Encoding: 165 165 98
Width: 1475
GlyphClass: 2
Flags: W
HStem: 0 21G<638 842.615> 507 150<376 711 1069 1383> 795 150<442 626 869 1012 1286 1450> 1490 20G<460 685.274 1523.27 1713>
VStem: 460 220<1290 1510> 638 200<0 200> 1538 175<1335 1510>
DStem2: 638 0 838 0 0.224951 0.97437<44.9902 520.325> 1012 795 1069 657 0.602542 0.798087<-75.7912 0 284.81 887.569>
LayerCount: 2
Fore
SplineSet
638 0 m 1,0,-1
 755 507 l 1,1,-1
 341 507 l 1,2,-1
 376 657 l 1,3,-1
 711 657 l 1,4,-1
 671 795 l 1,5,-1
 408 795 l 1,6,-1
 442 945 l 1,7,-1
 626 945 l 1,8,-1
 460 1510 l 1,9,-1
 680 1510 l 1,10,-1
 829 945 l 1,11,-1
 1122 945 l 1,12,-1
 1538 1510 l 1,13,-1
 1713 1510 l 1,14,-1
 1286 945 l 1,15,-1
 1484 945 l 1,16,-1
 1450 795 l 1,17,-1
 1173 795 l 1,18,-1
 1069 657 l 1,19,-1
 1418 657 l 1,20,-1
 1383 507 l 1,21,-1
 955 507 l 1,22,-1
 838 0 l 1,23,-1
 638 0 l 1,0,-1
1012 795 m 1,24,-1
 869 795 l 1,25,-1
 906 657 l 1,26,-1
 911 657 l 1,27,-1
 1012 795 l 1,24,-1
EndSplineSet
Validated: 1
EndChar

StartChar: brokenbar
Encoding: 166 166 99
Width: 661
GlyphClass: 2
Flags: W
VStem: 207 161<-186 -25> 405 161<511 672> 443 161<837 998> 641 161<1534 1695>
DStem2: 207 -186 368 -186 0.224951 0.97437<36.2171 880.55 1086.09 1930.42>
LayerCount: 2
Fore
SplineSet
405 672 m 1,0,-1
 566 672 l 1,1,-1
 368 -186 l 1,2,-1
 207 -186 l 1,3,-1
 405 672 l 1,0,-1
641 1695 m 1,4,-1
 802 1695 l 1,5,-1
 604 837 l 1,6,-1
 443 837 l 1,7,-1
 641 1695 l 1,4,-1
EndSplineSet
Validated: 1
EndChar

StartChar: section
Encoding: 167 167 100
Width: 1206
GlyphClass: 2
Flags: W
HStem: -20 136<368.5 786.927> 425 139<534.404 856.645> 946 139<699.355 1021.6> 1394 136<769.073 1187.5>
VStem: 259 216<53.5 217> 297 209<597.74 756.707> 465 211<1108.18 1278.36> 880 211<231.636 401.819> 1050 209<753.293 912.26> 1081 216<1293 1456.5>
LayerCount: 2
Fore
SplineSet
266 184 m 9,0,-1
 479 240 l 17,1,2
 475 224 475 224 475 210 c 0,3,4
 475 116 475 116 643 116 c 0,5,6
 836 116 836 116 877 306 c 0,7,8
 880 320 880 320 880 334 c 0,9,10
 880 425 880 425 702 425 c 0,11,12
 297 426 297 426 297 609 c 0,13,14
 297 631 297 631 302 655 c 8,15,16
 333 805 333 805 502 943 c 9,17,-1
 707 917 l 17,18,19
 549 843 549 843 509 683 c 0,20,21
 506 671 506 671 506 661 c 0,22,23
 506 564 506 564 736 564 c 0,24,25
 1091 564 1091 564 1091 385 c 0,26,27
 1091 361 1091 361 1084 333 c 0,28,29
 996 -20 996 -20 478 -20 c 0,30,31
 259 -20 259 -20 259 127 c 0,32,33
 259 154 259 154 266 184 c 9,0,-1
1290 1326 m 9,34,-1
 1077 1270 l 17,35,36
 1081 1286 1081 1286 1081 1300 c 0,37,38
 1081 1394 1081 1394 913 1394 c 0,39,40
 720 1394 720 1394 679 1204 c 0,41,42
 676 1190 676 1190 676 1176 c 0,43,44
 676 1085 676 1085 854 1085 c 0,45,46
 1259 1084 1259 1084 1259 901 c 0,47,48
 1259 879 1259 879 1254 855 c 8,49,50
 1223 705 1223 705 1054 567 c 9,51,-1
 849 593 l 17,52,53
 1007 667 1007 667 1047 827 c 0,54,55
 1050 839 1050 839 1050 849 c 0,56,57
 1050 946 1050 946 820 946 c 0,58,59
 465 946 465 946 465 1125 c 0,60,61
 465 1149 465 1149 472 1177 c 0,62,63
 560 1530 560 1530 1078 1530 c 0,64,65
 1297 1530 1297 1530 1297 1383 c 0,66,67
 1297 1356 1297 1356 1290 1326 c 9,34,-1
EndSplineSet
Validated: 1
EndChar

StartChar: dieresis
Encoding: 168 168 101
Width: 943
GlyphClass: 2
Flags: W
HStem: 1275 255<517.196 684.956 908.196 1075.96>
VStem: 469 262<1320.3 1482.47> 860 262<1322.16 1482.47>
LayerCount: 2
Fore
SplineSet
961 1275 m 16,0,1
 860 1275 860 1275 860 1359 c 0,2,3
 859 1378 859 1378 865 1402 c 0,4,5
 897 1530 897 1530 1020 1530 c 0,6,7
 1122 1530 1122 1530 1122 1446 c 0,8,9
 1122 1427 1122 1427 1116 1402 c 0,10,11
 1088 1275 1088 1275 961 1275 c 16,0,1
570 1275 m 16,12,13
 469 1275 469 1275 469 1359 c 0,14,15
 468 1378 468 1378 474 1402 c 0,16,17
 506 1530 506 1530 629 1530 c 0,18,19
 731 1530 731 1530 731 1446 c 0,20,21
 731 1427 731 1427 726 1402 c 0,22,23
 697 1275 697 1275 570 1275 c 16,12,13
EndSplineSet
Validated: 1
EndChar

StartChar: copyright
Encoding: 169 169 102
Width: 1451
GlyphClass: 2
Flags: W
HStem: 152 115<607.227 1004.71> 339 113<712.984 935.836> 1052 112<859.879 1063.55> 1241 115<799.541 1203.14>
VStem: 308 127<444.121 848.128> 550 155<463.928 611.595> 1008 159<537.758 633> 1077 163<929 1037.42> 1366 126<664.332 1066.95>
DStem2: 465.498 152 615.498 152 0.224951 0.97437<418.718 909.893>
LayerCount: 2
Fore
SplineSet
1352 764 m 0,0,1
 1366 824 1366 824 1366 880 c 0,2,3
 1366 996 1366 996 1306 1096 c 8,4,5
 1219 1241 1219 1241 1009 1241 c 256,6,7
 814 1241 814 1241 656 1106 c 0,8,9
 497 969 497 969 449 759 c 0,10,11
 435 697 435 697 435 640 c 0,12,13
 435 504 435 504 497 414 c 0,14,15
 598 267 598 267 786 267 c 256,16,17
 1016 267 1016 267 1181 432 c 24,18,19
 1303 554 1303 554 1352 764 c 0,0,1
1475 754 m 0,20,21
 1407 482 1407 482 1236 334 c 0,22,23
 1025 152 1025 152 758 152 c 0,24,25
 521 152 521 152 394 330 c 0,26,27
 308 451 308 451 308 598 c 0,28,29
 308 686 308 686 324 754 c 0,30,31
 389 1016 389 1016 583 1182 c 0,32,33
 786 1356 786 1356 1036 1356 c 0,34,35
 1283 1356 1283 1356 1410 1174 c 0,36,37
 1492 1054 1492 1054 1492 898 c 0,38,39
 1492 823 1492 823 1475 754 c 0,20,21
1167 652 m 1,40,41
 1094 339 1094 339 744 339 c 0,42,43
 550 339 550 339 550 486 c 0,44,45
 550 518 550 518 559 557 c 2,46,-1
 623 835 l 2,47,48
 699 1164 699 1164 1045 1164 c 0,49,50
 1240 1164 1240 1164 1240 1008 c 0,51,52
 1240 973 1240 973 1230 929 c 1,53,-1
 1069 887 l 1,54,55
 1077 923 1077 923 1077 951 c 0,56,57
 1077 1052 1077 1052 969 1052 c 0,58,59
 823 1052 823 1052 773 835 c 2,60,-1
 709 557 l 2,61,62
 705 540 705 540 705 526 c 0,63,64
 705 452 705 452 816 452 c 0,65,66
 966 452 966 452 1008 633 c 1,67,-1
 1167 652 l 1,40,41
EndSplineSet
Validated: 1
EndChar

StartChar: ordfeminine
Encoding: 170 170 103
Width: 1183
GlyphClass: 2
Flags: W
HStem: 693 150<345 1193> 918 115<638.367 854.742> 1426 104<849.547 1056>
VStem: 896 157<919.327 1110.34> 973 157<1303.65 1425.76>
LayerCount: 2
Fore
SplineSet
1071 918 m 1,0,1
 904 918 l 1,2,3
 896 951 896 951 896 978 c 0,4,5
 896 987 896 987 897 993 c 1,6,7
 821 908 821 908 712 908 c 16,8,9
 559 908 559 908 559 1007 c 0,10,11
 559 1025 559 1025 564 1046 c 0,12,13
 613 1253 613 1253 961 1305 c 1,14,15
 973 1349 973 1349 973 1377 c 0,16,17
 973 1426 973 1426 937 1426 c 0,18,19
 868 1426 868 1426 802 1323 c 1,20,-1
 692 1373 l 1,21,22
 820 1530 820 1530 982 1530 c 16,23,24
 1130 1530 1130 1530 1130 1415 c 0,25,26
 1130 1390 1130 1390 1123 1360 c 2,27,-1
 1061 1090 l 2,28,29
 1053 1056 1053 1056 1053 1021 c 0,30,31
 1053 970 1053 970 1071 918 c 1,0,1
718 1068 m 0,32,33
 709 1033 709 1033 765 1033 c 24,34,35
 833 1033 833 1033 890 1122 c 0,36,37
 908 1150 908 1150 921 1200 c 1,38,39
 750 1193 750 1193 718 1068 c 0,32,33
1193 693 m 1,40,-1
 310 693 l 1,41,-1
 345 843 l 1,42,-1
 1228 843 l 1,43,-1
 1193 693 l 1,40,-1
EndSplineSet
Validated: 1
EndChar

StartChar: guillemotleft
Encoding: 171 171 104
Width: 1409
GlyphClass: 2
Flags: W
DStem2: 482 799 307 678 0.586409 -0.810015<0 482.809> 348 859 482 799 0.764545 0.64457<63.7748 682.108> 1017 793 843 678 0.580543 -0.81423<0 482.19> 883 853 1017 793 0.764056 0.64515<63.6745 681.248>
LayerCount: 2
Fore
SplineSet
1532 1401 m 1,0,-1
 1485 1196 l 1,1,-1
 1017 793 l 1,2,-1
 1302 404 l 1,3,-1
 1238 124 l 1,4,-1
 843 678 l 1,5,-1
 883 853 l 1,6,-1
 1532 1401 l 1,0,-1
998 1407 m 1,7,-1
 951 1202 l 1,8,-1
 482 799 l 1,9,-1
 768 410 l 1,10,-1
 703 131 l 1,11,-1
 307 678 l 1,12,-1
 348 859 l 1,13,-1
 998 1407 l 1,7,-1
EndSplineSet
Validated: 1
EndChar

StartChar: logicalnot
Encoding: 172 172 105
Width: 1183
GlyphClass: 2
Flags: W
HStem: 693 150<345 1043>
VStem: 984 150<436 586>
DStem2: 984 436 1134 436 0.224951 0.97437<33.7427 263.685>
LayerCount: 2
Fore
SplineSet
345 843 m 1,0,-1
 1228 843 l 1,1,-1
 1134 436 l 1,2,-1
 984 436 l 1,3,-1
 1043 693 l 1,4,-1
 310 693 l 1,5,-1
 345 843 l 1,0,-1
EndSplineSet
Validated: 1
EndChar

StartChar: uni00AD
Encoding: 173 173 106
Width: 1183
GlyphClass: 2
Flags: W
HStem: 693 150<345 1193>
LayerCount: 2
Fore
SplineSet
345 843 m 1,0,-1
 1228 843 l 1,1,-1
 1193 693 l 1,2,-1
 310 693 l 1,3,-1
 345 843 l 1,0,-1
EndSplineSet
Validated: 1
EndChar

StartChar: registered
Encoding: 174 174 107
Width: 1451
GlyphClass: 2
Flags: W
HStem: 152 115<607.227 1004.82> 599 113<806 967.629> 1036 114<870.475 1077.92> 1241 115<797.055 1200.66>
VStem: 308 127<444.121 847.274> 572 150<345 495> 955 156<379.902 557.906> 970 154<435.921 594.635> 1087 154<823.586 1023.52> 1366 126<654.671 1066.95>
DStem2: 527.442 152 677.442 152 0.224951 0.97437<231.819 492.357 608.309 925.507>
LayerCount: 2
Fore
SplineSet
1118 520 m 0,0,1
 1111 488 1111 488 1111 455 c 0,2,3
 1111 418 1111 418 1120 379 c 1,4,5
 1152 403 1152 403 1181 432 c 0,6,7
 1310 561 1310 561 1353 759 c 0,8,9
 1366 819 1366 819 1366 880 c 0,10,11
 1366 996 1366 996 1306 1096 c 0,12,13
 1219 1241 1219 1241 1009 1241 c 0,14,15
 849 1241 849 1241 714 1150 c 1,16,-1
 1028 1150 l 2,17,18
 1241 1150 1241 1150 1241 996 c 0,19,20
 1241 965 1241 965 1233 928 c 0,21,22
 1190 751 1190 751 1073 671 c 1,23,24
 1124 640 1124 640 1124 574 c 0,25,26
 1124 546 1124 546 1118 520 c 0,0,1
806 712 m 1,27,-1
 888 712 l 2,28,29
 1029 712 1029 712 1083 928 c 0,30,31
 1087 944 1087 944 1087 958 c 0,32,33
 1087 1036 1087 1036 969 1036 c 2,34,-1
 878 1036 l 1,35,36
 875 1011 875 1011 867 976 c 2,37,-1
 806 712 l 1,27,-1
1470 730 m 0,38,39
 1413 487 1413 487 1236 334 c 0,40,41
 1025 152 1025 152 758 152 c 0,42,43
 521 152 521 152 394 330 c 0,44,45
 308 451 308 451 308 598 c 0,46,47
 308 686 308 686 324 754 c 0,48,49
 389 1016 389 1016 583 1182 c 0,50,51
 786 1356 786 1356 1036 1356 c 128,-1,52
 1286 1356 1286 1356 1410 1174 c 0,53,54
 1492 1054 1492 1054 1492 898 c 0,55,56
 1492 819 1492 819 1470 730 c 0,38,39
572 345 m 1,57,-1
 717 975 l 2,58,59
 727 1018 727 1018 727 1057 c 0,60,61
 727 1105 727 1105 710 1147 c 1,62,63
 682 1129 682 1129 656 1106 c 0,64,65
 496 964 496 964 449 759 c 0,66,67
 435 697 435 697 435 640 c 0,68,69
 435 504 435 504 497 414 c 0,70,71
 598 267 598 267 786 267 c 0,72,73
 944 267 944 267 1072 345 c 1,74,-1
 960 345 l 1,75,76
 955 384 955 384 955 414 c 0,77,78
 955 472 955 472 967 520 c 0,79,80
 970 533 970 533 970 543 c 0,81,82
 970 599 970 599 890 599 c 2,83,-1
 780 599 l 1,84,-1
 722 345 l 1,85,-1
 572 345 l 1,57,-1
EndSplineSet
Validated: 1
EndChar

StartChar: macron
Encoding: 175 175 108
Width: 1183
GlyphClass: 2
Flags: W
HStem: 1361 150<499 1347>
LayerCount: 2
Fore
SplineSet
499 1511 m 1,0,-1
 1382 1511 l 1,1,-1
 1347 1361 l 1,2,-1
 464 1361 l 1,3,-1
 499 1511 l 1,0,-1
EndSplineSet
Validated: 1
EndChar

StartChar: degree
Encoding: 176 176 109
Width: 956
GlyphClass: 2
Flags: W
HStem: 906 151<607.007 853.337> 1384 146<664.312 910.864>
VStem: 418 169<1078.47 1307.88> 931 169<1136.65 1363.66>
LayerCount: 2
Fore
SplineSet
924 1226 m 0,0,1
 931 1255 931 1255 931 1279 c 0,2,3
 930 1384 930 1384 797 1384 c 0,4,5
 634 1384 634 1384 595 1223 c 0,6,7
 587 1190 587 1190 587 1164 c 0,8,9
 588 1057 588 1057 719 1057 c 0,10,11
 883 1057 883 1057 924 1226 c 0,0,1
831 1530 m 0,12,13
 1100 1530 1100 1530 1100 1320 c 0,14,15
 1100 1274 1100 1274 1087 1218 c 0,16,17
 1015 906 1015 906 687 906 c 0,18,19
 418 906 418 906 418 1116 c 0,20,21
 418 1162 418 1162 431 1218 c 0,22,23
 503 1530 503 1530 831 1530 c 0,12,13
EndSplineSet
Validated: 1
EndChar

StartChar: plusminus
Encoding: 177 177 110
Width: 1183
GlyphClass: 2
Flags: W
HStem: 215 150<234 1083> 782 150<365 697 881 1214>
VStem: 612 150<415 565> 816 150<1148 1298>
DStem2: 565.826 215 715.826 215 0.224951 0.97437<239.003 581.975 769.522 1111.52>
LayerCount: 2
Fore
SplineSet
234 365 m 1,0,-1
 1117 365 l 1,1,-1
 1083 215 l 1,2,-1
 200 215 l 1,3,-1
 234 365 l 1,0,-1
365 932 m 1,4,-1
 731 932 l 1,5,-1
 816 1298 l 1,6,-1
 966 1298 l 1,7,-1
 881 932 l 1,8,-1
 1248 932 l 1,9,-1
 1214 782 l 1,10,-1
 847 782 l 1,11,-1
 762 415 l 1,12,-1
 612 415 l 1,13,-1
 697 782 l 1,14,-1
 331 782 l 1,15,-1
 365 932 l 1,4,-1
EndSplineSet
Validated: 1
EndChar

StartChar: uni00B2
Encoding: 178 178 111
Width: 844
GlyphClass: 2
Flags: W
HStem: 716 113<495 856.248> 1041 114<569.717 781.75> 1417 113<563.616 844.159>
VStem: 851 155<1224.73 1404.46>
LayerCount: 2
Fore
SplineSet
315 716 m 1,0,1
 416 1155 416 1155 654 1155 c 0,2,3
 808 1155 808 1155 847 1312 c 0,4,5
 851 1328 851 1328 851 1342 c 0,6,7
 850 1417 850 1417 733 1417 c 2,8,-1
 716 1417 l 2,9,10
 645 1417 645 1417 530 1368 c 1,11,-1
 560 1499 l 1,12,13
 676 1530 676 1530 757 1530 c 2,14,-1
 809 1530 l 2,15,16
 1006 1530 1006 1530 1006 1381 c 0,17,18
 1006 1350 1006 1350 997 1312 c 8,19,20
 933 1041 933 1041 657 1041 c 0,21,22
 548 1041 548 1041 495 829 c 1,23,-1
 701 829 l 2,24,25
 827 829 827 829 889 879 c 1,26,-1
 859 749 l 1,27,28
 771 716 771 716 675 716 c 2,29,-1
 315 716 l 1,0,1
EndSplineSet
Validated: 1
EndChar

StartChar: uni00B3
Encoding: 179 179 112
Width: 884
GlyphClass: 2
Flags: W
HStem: 716 112<535.691 749.16> 1108 114<568 785.979> 1417 113<603.616 851.117>
VStem: 360 161<842.411 952> 819 159<916.967 1096.41> 856 149<1286.53 1412.68>
LayerCount: 2
Fore
SplineSet
370 952 m 1,0,-1
 529 993 l 1,1,2
 521 958 521 958 521 930 c 0,3,4
 521 828 521 828 633 828 c 0,5,6
 778 828 778 828 816 1006 c 16,7,8
 819 1020 819 1020 819 1032 c 0,9,10
 819 1108 819 1108 702 1108 c 2,11,-1
 542 1108 l 1,12,-1
 568 1222 l 1,13,14
 821 1223 821 1223 854 1354 c 0,15,16
 856 1362 856 1362 856 1368 c 0,17,18
 852 1417 852 1417 771 1417 c 2,19,-1
 756 1417 l 2,20,21
 686 1417 686 1417 570 1368 c 1,22,-1
 600 1499 l 1,23,24
 716 1530 716 1530 797 1530 c 2,25,-1
 811 1530 l 2,26,27
 1005 1530 1005 1530 1005 1411 c 0,28,29
 1005 1392 1005 1392 1000 1370 c 0,30,31
 978 1272 978 1272 883 1200 c 1,32,33
 978 1165 978 1165 978 1078 c 0,34,35
 978 1058 978 1058 973 1034 c 0,36,37
 907 716 907 716 555 716 c 0,38,39
 360 716 360 716 360 870 c 0,40,41
 360 907 360 907 370 952 c 1,0,-1
EndSplineSet
Validated: 1
EndChar

StartChar: acute
Encoding: 180 180 113
Width: 792
GlyphClass: 2
Flags: W
HStem: 1037 493
VStem: 414 547
LayerCount: 2
Fore
SplineSet
847 1530 m 1,0,-1
 961 1382 l 1,1,-1
 495 1037 l 1,2,-1
 414 1143 l 1,3,-1
 847 1530 l 1,0,-1
EndSplineSet
Validated: 1
EndChar

StartChar: uni00B5
Encoding: 181 181 114
Width: 1268
GlyphClass: 2
Flags: W
HStem: -410 21G<105 309.638> -20 150<484.556 691.576> 0 21G<914 1138> 1080 20G<384 608 1117.38 1322>
VStem: 105 200<-410 -210> 399 213<725.859 1097.94> 910 209<1.81299 354.456>
DStem2: 105 -410 305 -410 0.224951 0.97437<44.9902 458.691 726.396 1374.38> 773.084 -410 973.084 -410 0.224951 0.97437<619.991 728.676 940.203 1549.79>
LayerCount: 2
Fore
SplineSet
1138 0 m 1,0,-1
 918 0 l 1,1,2
 910 42 910 42 910 92 c 0,3,4
 910 185 910 185 937 300 c 1,5,6
 783 -20 783 -20 499 -20 c 0,7,8
 442 -20 442 -20 398 -9 c 1,9,-1
 305 -410 l 1,10,-1
 105 -410 l 1,11,-1
 385 800 l 2,12,13
 399 860 399 860 399 935 c 128,-1,14
 399 1010 399 1010 384 1100 c 1,15,-1
 604 1100 l 1,16,17
 612 1058 612 1058 612 1008 c 0,18,19
 612 916 612 916 585 800 c 2,20,-1
 477 335 l 2,21,22
 466 288 466 288 466 251 c 0,23,24
 466 130 466 130 585 130 c 0,25,26
 898 130 898 130 1104 1022 c 2,27,-1
 1122 1100 l 1,28,-1
 1322 1100 l 1,29,-1
 1137 300 l 2,30,31
 1119 222 1119 222 1119 144 c 0,32,33
 1119 74 1119 74 1138 0 c 1,0,-1
EndSplineSet
Validated: 1
EndChar

StartChar: paragraph
Encoding: 182 182 115
Width: 1183
GlyphClass: 2
Flags: W
HStem: 0 21G<726 814.624 897 987.612> 1490 20G<691 1402>
VStem: 726 84<0 84> 897 86<0 86>
DStem2: 726 0 810 0 0.224951 0.97437<18.8959 521.299> 897 0 983 0 0.224951 0.97437<19.3458 1308.78>
LayerCount: 2
Fore
SplineSet
726 0 m 1,0,-1
 843 508 l 1,1,-1
 832 508 l 2,2,3
 361 508 361 508 361 903 c 0,4,5
 361 999 361 999 388 1117 c 0,6,7
 478 1510 478 1510 904 1510 c 2,8,-1
 1402 1510 l 1,9,10
 1296 1357 1296 1357 1262 1210 c 2,11,-1
 983 0 l 1,12,-1
 897 0 l 1,13,-1
 1192 1276 l 1,14,-1
 1105 1276 l 1,15,-1
 810 0 l 1,16,-1
 726 0 l 1,0,-1
EndSplineSet
Validated: 1
EndChar

StartChar: periodcentered
Encoding: 183 183 116
Width: 552
GlyphClass: 2
Flags: W
HStem: 638 255<367.593 536.755>
VStem: 322 262<685.531 847.698>
LayerCount: 2
Fore
SplineSet
423 638 m 16,0,1
 322 638 322 638 322 722 c 0,2,3
 321 741 321 741 327 766 c 0,4,5
 357 893 357 893 482 893 c 0,6,7
 584 893 584 893 584 809 c 0,8,9
 584 790 584 790 578 766 c 0,10,11
 550 638 550 638 423 638 c 16,0,1
EndSplineSet
Validated: 1
EndChar

StartChar: cedilla
Encoding: 184 184 117
Width: 610
GlyphClass: 2
Flags: W
HStem: -430 520
VStem: 259 170<-215.684 -58.7168>
LayerCount: 2
Fore
SplineSet
266 90 m 17,0,1
 429 19 429 19 429 -108 c 0,2,3
 429 -133 429 -133 423 -159 c 0,4,5
 384 -330 384 -330 207 -430 c 9,6,-1
 82 -296 l 1,7,8
 239 -226 239 -226 257 -154 c 0,9,10
 259 -146 259 -146 259 -137 c 0,11,12
 258 -72 258 -72 149 -11 c 9,13,-1
 266 90 l 17,0,1
EndSplineSet
Validated: 1
EndChar

StartChar: uni00B9
Encoding: 185 185 118
Width: 668
GlyphClass: 2
Flags: W
HStem: 1396 114<499 583>
VStem: 431 150<705 855> 583 159<1216.88 1396>
DStem2: 431 705 581 705 0.224951 0.97437<33.7427 706.541>
LayerCount: 2
Fore
SplineSet
499 1510 m 1,0,-1
 732 1510 l 1,1,2
 742 1485 742 1485 742 1449 c 0,3,4
 741 1400 741 1400 726 1335 c 2,5,-1
 581 705 l 1,6,-1
 431 705 l 1,7,-1
 576 1335 l 2,8,9
 582 1366 582 1366 583 1396 c 1,10,-1
 472 1396 l 1,11,-1
 499 1510 l 1,0,-1
EndSplineSet
Validated: 1
EndChar

StartChar: ordmasculine
Encoding: 186 186 119
Width: 1183
GlyphClass: 2
Flags: W
HStem: 693 150<345 1193> 911 112<677.461 917.045> 1418 112<844.576 1088.5>
VStem: 599 156<1026.41 1254.57> 1009 155<1180.54 1413.34>
DStem2: 513.113 693 663.113 693 0.224951 0.97437<429.971 757.215> 857.258 693 1007.26 693 0.224951 0.97437<359.726 685.652>
LayerCount: 2
Fore
SplineSet
832 1023 m 0,0,1
 934 1023 934 1023 972 1190 c 2,2,-1
 1006 1338 l 2,3,4
 1009 1351 1009 1351 1009 1362 c 0,5,6
 1009 1418 1009 1418 934 1418 c 8,7,8
 830 1418 830 1418 792 1252 c 2,9,-1
 758 1104 l 2,10,11
 755 1092 755 1092 755 1078 c 0,12,13
 755 1023 755 1023 832 1023 c 0,0,1
756 911 m 0,14,15
 599 911 599 911 599 1038 c 0,16,17
 600 1068 600 1068 608 1104 c 2,18,-1
 642 1252 l 2,19,20
 706 1530 706 1530 1013 1530 c 0,21,22
 1164 1530 1164 1530 1164 1404 c 0,23,24
 1164 1375 1164 1375 1156 1338 c 2,25,-1
 1122 1190 l 2,26,27
 1057 911 1057 911 756 911 c 0,14,15
1193 693 m 1,28,-1
 310 693 l 1,29,-1
 345 843 l 1,30,-1
 1228 843 l 1,31,-1
 1193 693 l 1,28,-1
EndSplineSet
Validated: 1
EndChar

StartChar: guillemotright
Encoding: 187 187 120
Width: 1409
GlyphClass: 2
Flags: W
DStem2: 276 329 229 124 0.764636 0.644462<0 617.568> 523 1401 459 1121 0.579849 -0.814724<191.012 673.197> 812 329 765 124 0.764636 0.644462<0 617.568> 1059 1401 995 1121 0.585975 -0.810329<189.39 671.611>
LayerCount: 2
Fore
SplineSet
523 1401 m 1,0,-1
 918 846 l 1,1,-1
 878 671 l 1,2,-1
 229 124 l 1,3,-1
 276 329 l 1,4,-1
 744 732 l 1,5,-1
 459 1121 l 1,6,-1
 523 1401 l 1,0,-1
1059 1401 m 1,7,-1
 1456 852 l 1,8,-1
 1414 671 l 1,9,-1
 765 124 l 1,10,-1
 812 329 l 1,11,-1
 1280 732 l 1,12,-1
 995 1121 l 1,13,-1
 1059 1401 l 1,7,-1
EndSplineSet
Validated: 1
EndChar

StartChar: questiondown
Encoding: 191 191 121
Width: 1388
GlyphClass: 2
Flags: W
HStem: -20 124<509.236 889.666> 808 128<659.501 838.037> 1275 255<983.044 1153.95>
VStem: 231 206<174.232 483.049> 937 263<1321.42 1483.58> 1152 212<446.266 534>
LayerCount: 2
Fore
SplineSet
1098 1530 m 0,0,1
 1200 1530 1200 1530 1200 1446 c 0,2,3
 1200 1425 1200 1425 1194 1400 c 0,4,5
 1164 1275 1164 1275 1039 1275 c 0,6,7
 937 1275 937 1275 937 1359 c 0,8,9
 937 1379 937 1379 943 1405 c 0,10,11
 971 1530 971 1530 1098 1530 c 0,0,1
1364 589 m 17,12,13
 1224 -20 1224 -20 581 -20 c 0,14,15
 231 -20 231 -20 231 243 c 0,16,17
 231 299 231 299 245 368 c 0,18,19
 368 936 368 936 766 936 c 0,20,21
 860 936 860 936 913 1165 c 9,22,-1
 1129 1234 l 17,23,24
 1031 808 1031 808 795 808 c 0,25,26
 547 808 547 808 445 368 c 0,27,28
 437 329 437 329 437 289 c 0,29,30
 437 104 437 104 711 104 c 0,31,32
 1052 104 1052 104 1152 534 c 9,33,-1
 1364 589 l 17,12,13
EndSplineSet
Validated: 1
EndChar

StartChar: Oacute
Encoding: 211 211 122
Width: 1388
GlyphClass: 2
Flags: W
HStem: -20 124<507.899 885.436> 1406 124<847.014 1228.6>
VStem: 229 206<173.094 486.625> 1302 205<1014.69 1336.54>
DStem2: 155.116 -20 355.116 -20 0.224951 0.97437<363.28 1257.66> 1023.4 -20 1223.4 -20 0.224951 0.97437<378.333 1270.86>
LayerCount: 2
Fore
SplineSet
444 365 m 2,0,1
 435 326 435 326 435 287 c 0,2,3
 435 104 435 104 711 104 c 0,4,5
 1052 104 1052 104 1164 589 c 2,6,-1
 1292 1145 l 2,7,8
 1302 1188 1302 1188 1302 1221 c 0,9,10
 1302 1406 1302 1406 1026 1406 c 0,11,12
 686 1406 686 1406 573 921 c 2,13,-1
 444 365 l 2,0,1
244 365 m 2,14,-1
 373 921 l 18,15,16
 513 1530 513 1530 1156 1530 c 0,17,18
 1507 1530 1507 1530 1507 1267 c 0,19,20
 1507 1212 1507 1212 1492 1145 c 10,21,-1
 1364 589 l 2,22,23
 1223 -20 1223 -20 580 -20 c 0,24,25
 229 -20 229 -20 229 243 c 0,26,27
 229 298 229 298 244 365 c 2,14,-1
1090 1587 m 1,28,-1
 1027 1667 l 1,29,-1
 1336 1947 l 1,30,-1
 1431 1825 l 1,31,-1
 1090 1587 l 1,28,-1
EndSplineSet
Validated: 1
EndChar

StartChar: multiply
Encoding: 215 215 123
Width: 1031
GlyphClass: 2
Flags: W
DStem2: 268 509 349 403 0.776515 0.630098<0 407.011 579.271 986.429> 518 1134 387 1027 0.609895 -0.792483<4.89944 326.622 465.536 788.661>
LayerCount: 2
Fore
SplineSet
518 1134 m 1,0,-1
 717 875 l 1,1,-1
 1036 1134 l 1,2,-1
 1118 1027 l 1,3,-1
 799 768 l 1,4,-1
 999 509 l 1,5,-1
 867 403 l 1,6,-1
 668 662 l 1,7,-1
 349 403 l 1,8,-1
 268 509 l 1,9,-1
 586 768 l 1,10,-1
 387 1027 l 1,11,-1
 518 1134 l 1,0,-1
EndSplineSet
Validated: 1
EndChar

StartChar: oacute
Encoding: 243 243 124
Width: 1188
GlyphClass: 2
Flags: W
HStem: -20 124<454.376 757.686> 996 124<684.314 986.83> 1510 20G<1053 1090.74>
VStem: 208 205<146.68 444.5> 1027 207<655.5 953.32>
DStem2: 145.659 -20 345.659 -20 0.224951 0.97437<322.92 909.937> 833.488 -20 1033.49 -20 0.224951 0.97437<304.964 891.262>
LayerCount: 2
Fore
SplineSet
491 611 m 2,0,-1
 423 315 l 2,1,2
 413 271 413 271 413 249 c 0,3,4
 413 104 413 104 611 104 c 0,5,6
 863 104 863 104 951 489 c 2,7,-1
 1019 785 l 2,8,9
 1027 820 1027 820 1027 851 c 0,10,11
 1027 996 1027 996 831 996 c 0,12,13
 579 996 579 996 491 611 c 2,0,-1
291 611 m 18,14,15
 409 1120 409 1120 962 1120 c 0,16,17
 1234 1120 1234 1120 1234 900 c 0,18,19
 1234 848 1234 848 1219 785 c 10,20,-1
 1151 489 l 2,21,22
 1033 -20 1033 -20 480 -20 c 0,23,24
 208 -20 208 -20 208 200 c 0,25,26
 208 252 208 252 223 315 c 2,27,-1
 291 611 l 18,14,15
830 1170 m 1,28,-1
 767 1250 l 1,29,-1
 1075 1530 l 1,30,-1
 1171 1408 l 1,31,-1
 830 1170 l 1,28,-1
EndSplineSet
Validated: 1
EndChar

StartChar: divide
Encoding: 247 247 125
Width: 1183
GlyphClass: 2
Flags: W
HStem: 292 255<604.593 774.089> 693 150<345 1193> 948 255<755.684 924.089>
VStem: 559 262<337.302 501.698> 707 264<993.302 1155.75>
LayerCount: 2
Fore
SplineSet
810 948 m 16,0,1
 707 948 707 948 707 1032 c 0,2,3
 707 1052 707 1052 713 1076 c 0,4,5
 745 1203 745 1203 869 1203 c 0,6,7
 971 1203 971 1203 971 1119 c 0,8,9
 971 1100 971 1100 966 1076 c 0,10,11
 937 948 937 948 810 948 c 16,0,1
660 292 m 16,12,13
 559 292 559 292 559 376 c 0,14,15
 558 395 558 395 564 420 c 0,16,17
 594 547 594 547 719 547 c 0,18,19
 821 547 821 547 821 463 c 0,20,21
 821 444 821 444 816 420 c 0,22,23
 787 292 787 292 660 292 c 16,12,13
345 843 m 1,24,-1
 1228 843 l 1,25,-1
 1193 693 l 1,26,-1
 310 693 l 1,27,-1
 345 843 l 1,24,-1
EndSplineSet
Validated: 1
EndChar

StartChar: Aogonek
Encoding: 260 260 126
Width: 1386
GlyphClass: 2
Flags: W
HStem: -430 21G<931.5 1025.92> 0 21G<180 384.618> 719 127<575 1152> 1407 123<849.226 1194.63>
VStem: 180 200<0 200> 862 170<-249.415 -51.1812> 1026 208<43.125 365.469> 1260 205<1022.52 1344.47>
DStem2: 80.7267 -430 280.727 -430 0.224951 0.97437<486.301 1224.21 1354.48 1683.81> 886.466 -430 1086.47 -430 0.224951 0.97437<631.9 1179.28 1309.55 1695.51>
LayerCount: 2
Fore
SplineSet
180 0 m 1,0,-1
 393 921 l 2,1,2
 534 1530 534 1530 1114 1530 c 0,3,4
 1465 1530 1465 1530 1465 1267 c 0,5,6
 1465 1210 1465 1210 1450 1145 c 2,7,-1
 1255 300 l 2,8,9
 1234 209 1234 209 1234 136 c 0,10,11
 1235 59 1235 59 1256 0 c 1,12,-1
 1136 0 l 1,13,14
 1049 -59 1049 -59 1035 -130 c 0,15,16
 1032 -145 1032 -145 1032 -159 c 0,17,18
 1032 -243 1032 -243 1158 -304 c 1,19,-1
 1001 -430 l 1,20,21
 862 -350 862 -350 862 -210 c 0,22,23
 862 -174 862 -174 871 -134 c 0,24,25
 898 -12 898 -12 1026 78 c 1,26,27
 1026 175 1026 175 1055 300 c 2,28,-1
 1152 719 l 1,29,-1
 546 719 l 1,30,-1
 380 0 l 1,31,-1
 180 0 l 1,0,-1
1181 846 m 1,32,-1
 1250 1145 l 2,33,34
 1260 1189 1260 1189 1260 1225 c 0,35,36
 1260 1407 1260 1407 1008 1407 c 0,37,38
 710 1407 710 1407 593 921 c 2,39,-1
 575 846 l 1,40,-1
 1181 846 l 1,32,-1
EndSplineSet
Validated: 1
EndChar

StartChar: aogonek
Encoding: 261 261 127
Width: 1168
GlyphClass: 2
Flags: W
HStem: -430 21G<725.5 819.921> -20 150<366.479 590.359> 566 106<606.533 882> 1013 107<695.854 939.073>
VStem: 141 212<62.5 318.711> 656 170<-249.656 -52.4895> 811 208<36.1875 296.561> 960 211<687.281 993.895>
LayerCount: 2
Fore
SplineSet
882 566 m 1,0,1
 431 561 431 561 357 248 c 0,2,3
 353 231 353 231 353 215 c 0,4,5
 353 130 353 130 485 130 c 0,6,7
 632 130 632 130 767 345 c 0,8,9
 836 455 836 455 882 566 c 1,0,1
1038 0 m 1,10,-1
 930 0 l 1,11,12
 843 -59 843 -59 829 -130 c 0,13,14
 826 -145 826 -145 826 -159 c 0,15,16
 826 -244 826 -244 952 -304 c 1,17,-1
 795 -430 l 1,18,19
 656 -350 656 -350 656 -210 c 0,20,21
 656 -174 656 -174 665 -134 c 0,22,23
 691 -16 691 -16 811 72 c 1,24,25
 811 190 811 190 837 300 c 1,26,27
 683 -19 683 -19 401 -20 c 0,28,29
 141 -20 141 -20 141 145 c 0,30,31
 141 176 141 176 149 211 c 0,32,33
 251 658 251 658 920 672 c 1,34,35
 933 714 933 714 943 756 c 0,36,37
 960 827 960 827 960 879 c 0,38,39
 960 1013 960 1013 847 1013 c 0,40,41
 680 1013 680 1013 558 825 c 1,42,-1
 427 884 l 1,43,44
 622 1120 622 1120 923 1120 c 0,45,46
 1171 1120 1171 1120 1171 921 c 0,47,48
 1171 877 1171 877 1158 821 c 2,49,-1
 1037 300 l 2,50,51
 1019 222 1019 222 1019 147 c 128,-1,52
 1019 72 1019 72 1038 0 c 1,10,-1
EndSplineSet
Validated: 1
EndChar

StartChar: Cacute
Encoding: 262 262 128
Width: 1388
GlyphClass: 2
Flags: W
HStem: -20 124<507.899 883.277> 1406 124<846.805 1210.92>
VStem: 229 206<173.651 486.625> 1131 208<390.091 472> 1293 214<1142.85 1330.13>
DStem2: 155.116 -20 355.116 -20 0.224951 0.97437<366.082 1257.57>
LayerCount: 2
Fore
SplineSet
1339 497 m 17,0,1
 1172 -20 1172 -20 580 -20 c 0,2,3
 229 -20 229 -20 229 243 c 0,4,5
 229 298 229 298 244 365 c 2,6,-1
 373 921 l 18,7,8
 513 1530 513 1530 1156 1530 c 0,9,10
 1507 1530 1507 1530 1507 1267 c 0,11,12
 1507 1211 1507 1211 1492 1145 c 9,13,-1
 1280 1090 l 17,14,15
 1293 1148 1293 1148 1293 1195 c 0,16,17
 1293 1406 1293 1406 1026 1406 c 0,18,19
 685 1406 685 1406 573 921 c 2,20,-1
 444 365 l 2,21,22
 435 325 435 325 435 290 c 0,23,24
 435 104 435 104 711 104 c 0,25,26
 1008 104 1008 104 1131 472 c 9,27,-1
 1339 497 l 17,0,1
1090 1587 m 1,28,-1
 1027 1667 l 1,29,-1
 1336 1947 l 1,30,-1
 1431 1825 l 1,31,-1
 1090 1587 l 1,28,-1
EndSplineSet
Validated: 1
EndChar

StartChar: cacute
Encoding: 263 263 129
Width: 1168
GlyphClass: 2
Flags: W
HStem: -20 136<325 739.929> 984 136<677.588 1096.5> 1510 20G<1053 1090.74>
VStem: 201 217<160.781 331.884> 1004 216<817.809 940.443>
DStem2: 144.97 -20 345.273 -20 0.224951 0.97437<340.06 908.327>
LayerCount: 2
Fore
SplineSet
1096 373 m 17,0,1
 945 -20 945 -20 449 -20 c 0,2,3
 201 -20 201 -20 201 179 c 0,4,5
 201 224 201 224 214 279 c 2,6,-1
 291 611 l 2,7,8
 409 1120 409 1120 973 1120 c 0,9,10
 1220 1120 1220 1120 1220 921 c 0,11,12
 1220 876 1220 876 1208 821 c 9,13,-1
 995 765 l 17,14,15
 1004 803 1004 803 1004 834 c 0,16,17
 1004 984 1004 984 807 984 c 0,18,19
 578 984 578 984 491 611 c 2,20,-1
 427 334 l 2,21,22
 418 296 418 296 418 265 c 0,23,24
 418 116 418 116 615 116 c 0,25,26
 795 116 795 116 889 349 c 9,27,-1
 1096 373 l 17,0,1
830 1170 m 1,28,-1
 767 1250 l 1,29,-1
 1075 1530 l 1,30,-1
 1171 1408 l 1,31,-1
 830 1170 l 1,28,-1
EndSplineSet
Validated: 1
EndChar

StartChar: Eogonek
Encoding: 280 280 130
Width: 1196
GlyphClass: 2
Flags: W
HStem: -430 21G<833.5 927.921> 0 127<429 841> 698 127<590 1128> 1383 127<701.605 1286>
VStem: 498 207<1134.38 1381.35> 764 170<-248.188 -52.0254>
DStem2: 100.727 -430 300.406 -430 0.224951 0.97437<616.57 1202.63 1332.9 1836.14>
LayerCount: 2
Fore
SplineSet
200 0 m 1,0,-1
 479 1210 l 2,1,2
 498 1292 498 1292 498 1365 c 0,3,4
 498 1440 498 1440 479 1510 c 1,5,-1
 1316 1510 l 1,6,-1
 1286 1383 l 1,7,-1
 705 1383 l 1,8,9
 701 1305 701 1305 679 1210 c 2,10,-1
 590 825 l 1,11,-1
 1157 825 l 1,12,-1
 1128 698 l 1,13,-1
 561 698 l 1,14,-1
 429 127 l 1,15,-1
 845 127 l 2,16,17
 1027 127 1027 127 1161 197 c 1,18,-1
 1128 50 l 1,19,20
 957 -28 957 -28 937 -130 c 0,21,22
 934 -145 934 -145 934 -159 c 0,23,24
 934 -244 934 -244 1060 -304 c 1,25,-1
 903 -430 l 1,26,27
 764 -350 764 -350 764 -210 c 0,28,29
 764 -174 764 -174 773 -134 c 0,30,31
 789 -62 789 -62 841 0 c 1,32,33
 829 0 829 0 816 0 c 2,34,-1
 200 0 l 1,0,-1
EndSplineSet
Validated: 1
EndChar

StartChar: eogonek
Encoding: 281 281 131
Width: 1168
GlyphClass: 2
Flags: W
HStem: -430 21G<512 606.921> -20 136<459.44 508> 984 136<677.802 1087>
VStem: 201 217<159.416 377.57> 442 171<-248.685 -52.7109> 984 217<789.962 932.422>
DStem2: 50.3144 -430 250.617 -430 0.224951 0.97437<760.815 869.18 1039.47 1329.21> 474 539 436 373 0.921448 0.388502<0 566.092>
LayerCount: 2
Fore
SplineSet
474 539 m 1,0,-1
 983 753 l 1,1,2
 984 771 984 771 984 787 c 0,3,4
 984 984 984 984 807 984 c 0,5,6
 579 984 579 984 491 611 c 2,7,-1
 474 539 l 1,0,-1
1096 373 m 1,8,9
 1007 141 1007 141 798 46 c 1,10,11
 636 -30 636 -30 616 -130 c 0,12,13
 613 -145 613 -145 613 -159 c 0,14,15
 613 -244 613 -244 739 -304 c 1,16,-1
 582 -430 l 1,17,18
 442 -349 442 -349 442 -211 c 0,19,20
 442 -175 442 -175 452 -134 c 0,21,22
 467 -72 467 -72 508 -19 c 1,23,24
 479 -20 479 -20 449 -20 c 0,25,26
 201 -20 201 -20 201 179 c 0,27,28
 201 223 201 223 214 279 c 2,29,-1
 291 611 l 2,30,31
 409 1120 409 1120 973 1120 c 0,32,33
 1201 1120 1201 1120 1201 875 c 0,34,35
 1201 794 1201 794 1176 685 c 1,36,-1
 436 373 l 1,37,-1
 427 334 l 2,38,39
 418 295 418 295 418 265 c 0,40,41
 420 116 420 116 615 116 c 0,42,43
 797 116 797 116 889 349 c 1,44,-1
 1096 373 l 1,8,9
EndSplineSet
Validated: 1
EndChar

StartChar: Lslash
Encoding: 321 321 132
Width: 1041
GlyphClass: 2
Flags: W
HStem: 0 127<429 1017.66> 1100 20G<988.605 1027.33> 1490 20G<479 704>
VStem: 500 209<1152.45 1508.51>
DStem2: 200 0 399.68 0 0.224951 0.97437<175.259 616.508 807.414 1405.93> 571 743 528 557 0.759935 0.649999<0 574.117>
LayerCount: 2
Fore
SplineSet
200 0 m 1,0,-1
 479 1210 l 2,1,2
 500 1301 500 1301 500 1376 c 128,-1,3
 500 1451 500 1451 479 1510 c 1,4,-1
 699 1510 l 1,5,6
 709 1474 709 1474 709 1424 c 0,7,8
 709 1340 709 1340 679 1210 c 2,9,-1
 571 743 l 1,10,-1
 1012 1120 l 1,11,-1
 1081 1030 l 1,12,-1
 528 557 l 1,13,-1
 429 127 l 1,14,-1
 760 127 l 2,15,16
 942 127 942 127 1076 197 c 1,17,-1
 1043 50 l 1,18,19
 910 0 910 0 731 0 c 2,20,-1
 200 0 l 1,0,-1
EndSplineSet
Validated: 1
EndChar

StartChar: lslash
Encoding: 322 322 133
Width: 751
GlyphClass: 2
Flags: W
HStem: 0 21G<322 546> 1100 20G<886.702 925.333> 1490 20G<555 779>
VStem: 318 209<1.79797 376.391> 574 209<1138.48 1508.25>
DStem2: 110 434 179 344 0.759123 0.650948<0 283.179 765.222 1047.64> 275.74 0 475.74 0 0.224951 0.97437<202.009 546.092 736.998 810.62 1001.53 1394.88>
LayerCount: 2
Fore
SplineSet
326 0 m 1,0,1
 318 42 318 42 318 92 c 0,2,3
 318 183 318 183 345 300 c 2,4,-1
 399 532 l 1,5,-1
 179 344 l 1,6,-1
 110 434 l 1,7,-1
 442 718 l 1,8,-1
 555 1210 l 2,9,10
 574 1292 574 1292 574 1365 c 0,11,12
 574 1440 574 1440 555 1510 c 1,13,-1
 775 1510 l 1,14,15
 783 1468 783 1468 783 1420 c 0,16,17
 783 1331 783 1331 755 1210 c 2,18,-1
 691 932 l 1,19,-1
 910 1120 l 1,20,-1
 979 1030 l 1,21,-1
 648 746 l 1,22,-1
 545 300 l 2,23,24
 527 221 527 221 527 147 c 128,-1,25
 527 73 527 73 546 0 c 1,26,-1
 326 0 l 1,0,1
EndSplineSet
Validated: 1
EndChar

StartChar: Sacute
Encoding: 346 346 134
Width: 1388
GlyphClass: 2
Flags: W
HStem: -20 124<525.5 895.819> 745 151<724.148 1078.49> 1406 124<841.09 1186.47>
VStem: 228 216<179.49 367.594> 435 218<962.119 1168.19> 1153 212<438.272 680.644> 1255 214<1142.87 1342.41>
LayerCount: 2
Fore
SplineSet
244 365 m 9,0,-1
 457 420 l 17,1,2
 444 364 444 364 444 315 c 0,3,4
 444 104 444 104 711 104 c 0,5,6
 1056 104 1056 104 1145 505 c 0,7,8
 1153 541 1153 541 1153 569 c 0,9,10
 1153 745 1153 745 873 745 c 0,11,12
 435 745 435 745 435 984 c 0,13,14
 435 1019 435 1019 444 1058 c 0,15,16
 552 1528 552 1528 1156 1530 c 0,17,-1
 1158 1530 l 0,18,19
 1469 1530 1469 1530 1469 1276 c 0,20,21
 1469 1217 1469 1217 1452 1145 c 9,22,-1
 1240 1090 l 17,23,24
 1255 1155 1255 1155 1255 1205 c 0,25,26
 1255 1406 1255 1406 1026 1406 c 0,27,28
 719 1406 719 1406 660 1128 c 0,29,30
 653 1095 653 1095 653 1067 c 0,31,32
 653 896 653 896 931 896 c 0,33,34
 1365 896 1365 896 1365 635 c 0,35,36
 1365 589 1365 589 1354 544 c 0,37,38
 1216 -20 1216 -20 580 -20 c 0,39,40
 228 -20 228 -20 228 242 c 0,41,42
 228 296 228 296 244 365 c 9,0,-1
1090 1587 m 1,43,-1
 1027 1667 l 1,44,-1
 1336 1947 l 1,45,-1
 1431 1825 l 1,46,-1
 1090 1587 l 1,43,-1
EndSplineSet
Validated: 1
EndChar

StartChar: sacute
Encoding: 347 347 135
Width: 1168
GlyphClass: 2
Flags: W
HStem: -20 136<325 770.196> 536 139<594.695 872.828> 984 136<662.22 1077.5> 1510 20G<1053 1090.74>
VStem: 201 217<157.795 279> 361 209<698.612 867.271> 907 207<272.999 500.041> 964 218<817.479 951.789>
LayerCount: 2
Fore
SplineSet
214 279 m 9,0,-1
 427 334 l 17,1,2
 418 296 418 296 418 265 c 0,3,4
 418 116 418 116 615 116 c 0,5,6
 843 116 843 116 901 358 c 0,7,8
 907 383 907 383 907 408 c 0,9,10
 907 536 907 536 715 536 c 0,11,12
 361 536 361 536 361 715 c 0,13,14
 361 739 361 739 367 765 c 0,15,16
 449 1120 449 1120 973 1120 c 0,17,18
 1182 1120 1182 1120 1182 933 c 0,19,20
 1182 882 1182 882 1167 820 c 9,21,-1
 954 764 l 17,22,23
 964 809 964 809 964 845 c 0,24,25
 964 984 964 984 807 984 c 8,26,27
 614 984 614 984 573 794 c 0,28,29
 570 780 570 780 570 768 c 0,30,31
 570 675 570 675 749 675 c 0,32,33
 1114 675 1114 675 1114 452 c 0,34,35
 1114 416 1114 416 1104 373 c 8,36,37
 1013 -20 1013 -20 449 -20 c 0,38,39
 201 -20 201 -20 201 182 c 0,40,41
 201 227 201 227 214 279 c 9,0,-1
830 1170 m 1,42,-1
 767 1250 l 1,43,-1
 1075 1530 l 1,44,-1
 1171 1408 l 1,45,-1
 830 1170 l 1,42,-1
EndSplineSet
Validated: 1
EndChar

StartChar: Zacute
Encoding: 377 377 136
Width: 1273
GlyphClass: 2
Flags: W
HStem: 0 127<346 1174.46> 1383 127<541.23 1247>
DStem2: 109 127 346 127 0.671438 0.74106<159.131 1694.87>
LayerCount: 2
Fore
SplineSet
80 0 m 1,0,-1
 109 127 l 1,1,-1
 1247 1383 l 1,2,-1
 795 1383 l 2,3,4
 627 1383 627 1383 479 1313 c 9,5,-1
 513 1460 l 17,6,7
 663 1510 663 1510 825 1510 c 2,8,-1
 1514 1510 l 1,9,-1
 1484 1383 l 1,10,-1
 346 127 l 1,11,-1
 922 127 l 2,12,13
 1082 127 1082 127 1238 197 c 9,14,-1
 1205 50 l 17,15,16
 1072 0 1072 0 893 0 c 2,17,-1
 80 0 l 1,0,-1
1050 1587 m 1,18,-1
 987 1667 l 1,19,-1
 1296 1947 l 1,20,-1
 1391 1825 l 1,21,-1
 1050 1587 l 1,18,-1
EndSplineSet
Validated: 1
EndChar

StartChar: zacute
Encoding: 378 378 137
Width: 993
GlyphClass: 2
Flags: W
HStem: 0 127<333 894.46> 973 127<391.905 885> 1510 20G<1023 1060.74>
DStem2: 109 127 333 127 0.675961 0.736937<151.415 1147.99>
LayerCount: 2
Fore
SplineSet
80 0 m 1,0,-1
 109 127 l 1,1,-1
 885 973 l 1,2,-1
 645 973 l 2,3,4
 485 973 485 973 328 903 c 9,5,-1
 362 1050 l 17,6,7
 495 1100 495 1100 674 1100 c 2,8,-1
 1138 1100 l 1,9,-1
 1109 973 l 1,10,-1
 333 127 l 1,11,-1
 642 127 l 2,12,13
 802 127 802 127 958 197 c 9,14,-1
 925 50 l 17,15,16
 792 0 792 0 613 0 c 2,17,-1
 80 0 l 1,0,-1
800 1170 m 1,18,-1
 737 1250 l 1,19,-1
 1045 1530 l 1,20,-1
 1141 1408 l 1,21,-1
 800 1170 l 1,18,-1
EndSplineSet
Validated: 1
EndChar

StartChar: Zdotaccent
Encoding: 379 379 138
Width: 1273
GlyphClass: 2
Flags: W
HStem: 0 127<346 1174.46> 1383 127<541.23 1247> 1692 255<1052.68 1220.76>
VStem: 1004 264<1739.53 1899.75>
DStem2: 109 127 346 127 0.671438 0.74106<159.131 1694.87>
LayerCount: 2
Fore
SplineSet
1107 1692 m 16,0,1
 1004 1692 1004 1692 1004 1776 c 0,2,3
 1004 1796 1004 1796 1010 1820 c 0,4,5
 1042 1947 1042 1947 1166 1947 c 0,6,7
 1268 1947 1268 1947 1268 1863 c 0,8,9
 1268 1844 1268 1844 1262 1820 c 0,10,11
 1234 1692 1234 1692 1107 1692 c 16,0,1
80 0 m 1,12,-1
 109 127 l 1,13,-1
 1247 1383 l 1,14,-1
 795 1383 l 2,15,16
 627 1383 627 1383 479 1313 c 9,17,-1
 513 1460 l 17,18,19
 663 1510 663 1510 825 1510 c 2,20,-1
 1514 1510 l 1,21,-1
 1484 1383 l 1,22,-1
 346 127 l 1,23,-1
 922 127 l 2,24,25
 1082 127 1082 127 1238 197 c 9,26,-1
 1205 50 l 17,27,28
 1072 0 1072 0 893 0 c 2,29,-1
 80 0 l 1,12,-1
EndSplineSet
Validated: 1
EndChar

StartChar: zdotaccent
Encoding: 380 380 139
Width: 993
GlyphClass: 2
Flags: W
HStem: 0 127<333 894.46> 973 127<391.905 885> 1275 255<770.196 937.956>
VStem: 722 262<1322.16 1482.47>
DStem2: 109 127 333 127 0.675961 0.736937<151.415 1147.99>
LayerCount: 2
Fore
SplineSet
823 1275 m 16,0,1
 722 1275 722 1275 722 1359 c 0,2,3
 721 1378 721 1378 727 1402 c 0,4,5
 759 1530 759 1530 882 1530 c 0,6,7
 984 1530 984 1530 984 1446 c 0,8,9
 984 1427 984 1427 978 1402 c 0,10,11
 950 1275 950 1275 823 1275 c 16,0,1
80 0 m 1,12,-1
 109 127 l 1,13,-1
 885 973 l 1,14,-1
 645 973 l 2,15,16
 485 973 485 973 328 903 c 9,17,-1
 362 1050 l 17,18,19
 495 1100 495 1100 674 1100 c 2,20,-1
 1138 1100 l 1,21,-1
 1109 973 l 1,22,-1
 333 127 l 1,23,-1
 642 127 l 2,24,25
 802 127 802 127 958 197 c 9,26,-1
 925 50 l 17,27,28
 792 0 792 0 613 0 c 2,29,-1
 80 0 l 1,12,-1
EndSplineSet
Validated: 1
EndChar

StartChar: florin
Encoding: 402 402 140
Width: 851
GlyphClass: 2
Flags: W
HStem: -430 128<-50 10.2654> 705 127<612 883> 1394 136<841.917 1145.77>
DStem2: 121.08 -430 321.08 -430 0.224951 0.97437<427.11 1135 1340.09 1749.7>
LayerCount: 2
Fore
SplineSet
-50 -302 m 1,0,1
 178 -181 178 -181 294 319 c 2,2,-1
 376 676 l 1,3,4
 321 671 321 671 260 635 c 1,5,-1
 294 782 l 1,6,7
 358 811 358 811 409 817 c 1,8,-1
 456 1021 l 2,9,10
 573 1530 573 1530 1137 1530 c 0,11,12
 1167 1530 1167 1530 1194 1527 c 1,13,-1
 1119 1358 l 1,14,15
 1070 1394 1070 1394 972 1394 c 0,16,17
 742 1394 742 1394 656 1021 c 2,18,-1
 612 832 l 1,19,-1
 912 832 l 1,20,-1
 883 705 l 1,21,-1
 583 705 l 1,22,-1
 494 319 l 2,23,24
 344 -331 344 -331 -79 -430 c 1,25,-1
 -50 -302 l 1,0,1
EndSplineSet
Validated: 1
EndChar

StartChar: uni01E4
Encoding: 484 484 141
Width: 1388
GlyphClass: 2
Flags: W
HStem: -20 124<507.899 886.979> 307 127<792 1055 1316 1369> 635 127<875.342 1175> 1406 124<847.209 1210.92>
VStem: 229 206<173.651 486.625> 1293 214<1142.87 1330.13>
DStem2: 155.116 -20 355.116 -20 0.224951 0.97437<366.082 1257.66>
LayerCount: 2
Fore
SplineSet
1404 762 m 1,0,-1
 1364 589 l 2,1,2
 1345 506 1345 506 1316 434 c 1,3,-1
 1398 434 l 1,4,-1
 1369 307 l 1,5,-1
 1253 307 l 1,6,7
 1051 -20 1051 -20 580 -20 c 0,8,9
 229 -20 229 -20 229 243 c 0,10,11
 229 298 229 298 244 365 c 2,12,-1
 373 921 l 2,13,14
 514 1530 514 1530 1156 1530 c 0,15,16
 1507 1530 1507 1530 1507 1267 c 0,17,18
 1507 1212 1507 1212 1492 1145 c 1,19,-1
 1280 1090 l 1,20,21
 1293 1148 1293 1148 1293 1195 c 0,22,23
 1293 1406 1293 1406 1026 1406 c 0,24,25
 686 1406 686 1406 573 921 c 2,26,-1
 444 365 l 2,27,28
 435 325 435 325 435 290 c 0,29,30
 435 104 435 104 711 104 c 0,31,32
 930 104 930 104 1055 307 c 1,33,-1
 763 307 l 1,34,-1
 792 434 l 1,35,-1
 1117 434 l 1,36,37
 1144 504 1144 504 1164 589 c 2,38,-1
 1175 635 l 1,39,-1
 1133 635 l 2,40,41
 951 635 951 635 816 565 c 1,42,-1
 850 712 l 1,43,44
 983 762 983 762 1162 762 c 2,45,-1
 1404 762 l 1,0,-1
EndSplineSet
Validated: 1
EndChar

StartChar: uni01E5
Encoding: 485 485 142
Width: 1188
GlyphClass: 2
Flags: W
HStem: -430 107<339.291 583.982> -20 150<437.734 642.56> 491 127<675 897 1161 1251> 984 136<677.373 1097>
VStem: 201 215<149.121 331.884> 1002 219<684.146 939.878>
DStem2: 50.3144 -430 250.386 -430 0.224951 0.97437<746.907 1329.01> 718.466 -430 918.687 -430 0.224951 0.97437<480.728 749.202 1120.69 1290.45>
LayerCount: 2
Fore
SplineSet
111 -277 m 1,0,-1
 319 -221 l 1,1,2
 330 -323 330 -323 430 -323 c 0,3,4
 743 -323 743 -323 887 300 c 1,5,6
 732 -20 732 -20 449 -20 c 0,7,8
 201 -20 201 -20 201 179 c 0,9,10
 201 223 201 223 214 279 c 2,11,-1
 291 611 l 2,12,13
 409 1120 409 1120 973 1120 c 0,14,15
 1221 1120 1221 1120 1221 921 c 0,16,17
 1221 877 1221 877 1208 821 c 2,18,-1
 1161 618 l 1,19,-1
 1281 618 l 1,20,-1
 1251 491 l 1,21,-1
 1131 491 l 1,22,-1
 1111 403 l 2,23,24
 918 -430 918 -430 355 -430 c 0,25,26
 136 -430 136 -430 111 -277 c 1,0,-1
427 335 m 2,27,28
 416 287 416 287 416 251 c 0,29,30
 416 130 416 130 535 130 c 0,31,32
 688 130 688 130 817 345 c 0,33,34
 862 420 862 420 897 491 c 1,35,-1
 645 491 l 1,36,-1
 675 618 l 1,37,-1
 952 618 l 1,38,39
 978 689 978 689 993 756 c 0,40,41
 1002 796 1002 796 1002 830 c 0,42,43
 1002 984 1002 984 807 984 c 0,44,45
 577 984 577 984 491 611 c 2,46,-1
 427 335 l 2,27,28
EndSplineSet
Validated: 1
EndChar

StartChar: Scommaaccent
Encoding: 536 536 143
Width: 1388
GlyphClass: 2
Flags: W
HStem: -430 21G<487.262 525> -20 124<525.5 895.819> 745 151<724.148 1078.49> 1406 124<841.09 1186.47>
VStem: 228 216<179.49 367.594> 435 218<962.119 1168.19> 1153 212<438.272 680.644> 1255 214<1142.87 1342.41>
LayerCount: 2
Fore
SplineSet
244 365 m 9,0,-1
 457 420 l 17,1,2
 444 364 444 364 444 315 c 0,3,4
 444 104 444 104 711 104 c 0,5,6
 1056 104 1056 104 1145 505 c 0,7,8
 1153 541 1153 541 1153 569 c 0,9,10
 1153 745 1153 745 873 745 c 0,11,12
 435 745 435 745 435 984 c 0,13,14
 435 1019 435 1019 444 1058 c 0,15,16
 552 1528 552 1528 1156 1530 c 0,17,-1
 1158 1530 l 0,18,19
 1469 1530 1469 1530 1469 1276 c 0,20,21
 1469 1217 1469 1217 1452 1145 c 9,22,-1
 1240 1090 l 17,23,24
 1255 1155 1255 1155 1255 1205 c 0,25,26
 1255 1406 1255 1406 1026 1406 c 0,27,28
 719 1406 719 1406 660 1128 c 0,29,30
 653 1095 653 1095 653 1067 c 0,31,32
 653 896 653 896 931 896 c 0,33,34
 1365 896 1365 896 1365 635 c 0,35,36
 1365 589 1365 589 1354 544 c 0,37,38
 1216 -20 1216 -20 580 -20 c 0,39,40
 228 -20 228 -20 228 242 c 0,41,42
 228 296 228 296 244 365 c 9,0,-1
748 -70 m 1,43,-1
 811 -150 l 1,44,-1
 503 -430 l 1,45,-1
 407 -308 l 1,46,-1
 748 -70 l 1,43,-1
EndSplineSet
Validated: 1
EndChar

StartChar: scommaaccent
Encoding: 537 537 144
Width: 1168
GlyphClass: 2
Flags: W
HStem: -430 21G<477.262 515> -20 136<325 770.196> 536 139<594.695 872.828> 984 136<662.22 1077.5>
VStem: 201 217<157.795 279> 361 209<698.612 867.271> 907 207<272.999 500.041> 964 218<817.479 951.789>
LayerCount: 2
Fore
SplineSet
214 279 m 9,0,-1
 427 334 l 17,1,2
 418 296 418 296 418 265 c 0,3,4
 418 116 418 116 615 116 c 0,5,6
 843 116 843 116 901 358 c 0,7,8
 907 383 907 383 907 408 c 0,9,10
 907 536 907 536 715 536 c 0,11,12
 361 536 361 536 361 715 c 0,13,14
 361 739 361 739 367 765 c 0,15,16
 449 1120 449 1120 973 1120 c 0,17,18
 1182 1120 1182 1120 1182 933 c 0,19,20
 1182 882 1182 882 1167 820 c 9,21,-1
 954 764 l 17,22,23
 964 809 964 809 964 845 c 0,24,25
 964 984 964 984 807 984 c 8,26,27
 614 984 614 984 573 794 c 0,28,29
 570 780 570 780 570 768 c 0,30,31
 570 675 570 675 749 675 c 0,32,33
 1114 675 1114 675 1114 452 c 0,34,35
 1114 416 1114 416 1104 373 c 8,36,37
 1013 -20 1013 -20 449 -20 c 0,38,39
 201 -20 201 -20 201 182 c 0,40,41
 201 227 201 227 214 279 c 9,0,-1
738 -70 m 1,42,-1
 801 -150 l 1,43,-1
 493 -430 l 1,44,-1
 397 -308 l 1,45,-1
 738 -70 l 1,42,-1
EndSplineSet
Validated: 1
EndChar

StartChar: uni021A
Encoding: 538 538 145
Width: 1040
GlyphClass: 2
Flags: W
HStem: -430 21G<234.262 272> 0 21G<420 624.613> 1383 127<371.037 739 939 1349>
VStem: 420 200<0 200>
DStem2: 320.727 -430 520.727 -430 0.224951 0.97437<486.301 1860.62>
LayerCount: 2
Fore
SplineSet
347 1460 m 1,0,1
 428 1510 428 1510 659 1510 c 2,2,-1
 1379 1510 l 25,3,-1
 1349 1383 l 25,4,-1
 939 1383 l 1,5,-1
 620 0 l 1,6,-1
 420 0 l 1,7,-1
 739 1383 l 1,8,-1
 629 1383 l 2,9,10
 452 1383 452 1383 313 1313 c 1,11,-1
 347 1460 l 1,0,1
495 -70 m 1,12,-1
 558 -150 l 1,13,-1
 250 -430 l 1,14,-1
 154 -308 l 1,15,-1
 495 -70 l 1,12,-1
EndSplineSet
Validated: 1
EndChar

StartChar: uni021B
Encoding: 539 539 146
Width: 820
GlyphClass: 2
Flags: W
HStem: -430 21G<161.262 199> 0 21G<356 580> 973 127<281.905 535 764 1035> 1490 20G<589 813>
VStem: 352 209<1.78253 373.609> 608 209<1136.09 1508.25>
DStem2: 210.466 -430 410.466 -430 0.224951 0.97437<642.848 1440.05 1615.3 1836.13>
LayerCount: 2
Fore
SplineSet
360 0 m 17,0,1
 352 42 352 42 352 92 c 0,2,3
 352 184 352 184 379 300 c 2,4,-1
 535 973 l 1,5,6
 375 973 375 973 218 903 c 9,7,-1
 252 1050 l 17,8,9
 385 1100 385 1100 564 1100 c 1,10,-1
 589 1210 l 2,11,12
 608 1290 608 1290 608 1365 c 128,-1,13
 608 1440 608 1440 589 1510 c 9,14,-1
 809 1510 l 17,15,16
 817 1468 817 1468 817 1420 c 0,17,18
 817 1333 817 1333 789 1210 c 2,19,-1
 764 1100 l 1,20,21
 914 1100 914 1100 1064 1100 c 25,22,-1
 1035 973 l 25,23,-1
 735 973 l 17,24,-1
 579 300 l 2,25,26
 561 221 561 221 561 146.5 c 128,-1,27
 561 72 561 72 580 0 c 9,28,-1
 360 0 l 17,0,1
422 -70 m 1,29,-1
 485 -150 l 1,30,-1
 177 -430 l 1,31,-1
 81 -308 l 1,32,-1
 422 -70 l 1,29,-1
EndSplineSet
Validated: 1
EndChar

StartChar: Delta
Encoding: 916 916 147
Width: 1237
GlyphClass: 2
Flags: W
HStem: 0 117<213 1005> 1490 20G<858.609 1067.15>
DStem2: 10 0 213 117 0.494899 0.868951<202.132 1586.63> 1065 1510 886 1327 0.106673 -0.994294<162.861 1378.65>
LayerCount: 2
Fore
SplineSet
10 0 m 1,0,-1
 870 1510 l 1,1,-1
 1065 1510 l 1,2,-1
 1227 0 l 1,3,-1
 10 0 l 1,0,-1
213 117 m 1,4,-1
 1005 117 l 1,5,-1
 886 1327 l 1,6,-1
 213 117 l 1,4,-1
EndSplineSet
Validated: 1
EndChar

StartChar: Pi
Encoding: 928 928 148
Width: 1406
GlyphClass: 2
Flags: W
HStem: 0 21G<200 404.612 1051.5 1276> 1383 127<702.764 1325>
VStem: 200 200<0 200> 500 207<1153.28 1383> 1047 207<1.55029 362.203>
DStem2: 200 0 400 0 0.224951 0.97437<44.9902 1405.93> 1005.74 0 1205.74 0 0.224951 0.97437<190.619 1419.37>
LayerCount: 2
Fore
SplineSet
200 0 m 1,0,-1
 479 1210 l 2,1,2
 500 1301 500 1301 500 1376 c 128,-1,3
 500 1451 500 1451 479 1510 c 1,4,-1
 1555 1510 l 1,5,-1
 1275 300 l 2,6,7
 1254 210 1254 210 1254 136 c 0,8,9
 1255 59 1255 59 1276 0 c 1,10,-1
 1056 0 l 1,11,12
 1047 40 1047 40 1047 90 c 0,13,14
 1048 182 1048 182 1075 300 c 2,15,-1
 1325 1383 l 1,16,-1
 707 1383 l 1,17,18
 702 1309 702 1309 679 1210 c 2,19,-1
 400 0 l 1,20,-1
 200 0 l 1,0,-1
EndSplineSet
Validated: 1
EndChar

StartChar: Sigma
Encoding: 931 931 149
Width: 1408
GlyphClass: 2
Flags: W
HStem: 0 127<512 1244.66> 1383 127<800 1488>
DStem2: 151 0 512 127 0.703845 0.710354<344.303 1075.52> 800 1383 499 1510 0.480745 -0.87686<0 594.697>
LayerCount: 2
Fore
SplineSet
151 0 m 1,0,-1
 908 764 l 1,1,-1
 499 1510 l 1,2,-1
 1518 1510 l 17,3,-1
 1488 1383 l 9,4,-1
 800 1383 l 1,5,-1
 1148 760 l 1,6,-1
 512 127 l 1,7,-1
 987 127 l 2,8,9
 1169 127 1169 127 1303 197 c 1,10,-1
 1270 50 l 1,11,12
 1137 0 1137 0 958 0 c 2,13,-1
 151 0 l 1,0,-1
EndSplineSet
Validated: 1
EndChar

StartChar: Omega
Encoding: 937 937 150
Width: 1448
GlyphClass: 2
Flags: W
HStem: 0 127<257.705 476 1030 1269.67> 50 147<201.782 303.899 1212.02 1300> 1406 124<881.691 1258.6>
VStem: 316 204<416.481 737.531> 1332 205<1018.25 1336.54>
DStem2: 189.709 0 389.709 0 0.224951 0.97437<595.561 1227.97> 874 0 1000.68 0 0.224951 0.97437<158.837 353.55> 1057.69 0 1257.69 0 0.224951 0.97437<575.108 1250.4>
LayerCount: 2
Fore
SplineSet
205 197 m 1,0,1
 327 127 327 127 476 127 c 1,2,-1
 504 245 l 1,3,4
 316 296 316 296 316 490 c 0,5,6
 316 548 316 548 331 612 c 2,7,-1
 403 921 l 2,8,9
 545 1530 545 1530 1186 1530 c 0,10,11
 1537 1530 1537 1530 1537 1267 c 0,12,13
 1537 1210 1537 1210 1522 1145 c 2,14,-1
 1444 807 l 2,15,16
 1355 419 1355 419 1065 278 c 1,17,-1
 1030 127 l 1,18,19
 1176 127 1176 127 1333 197 c 1,20,-1
 1300 50 l 1,21,22
 1167 0 1167 0 1001 0 c 2,23,-1
 874 0 l 1,24,-1
 956 354 l 1,25,26
 1161 447 1161 447 1244 807 c 2,27,-1
 1322 1145 l 2,28,29
 1332 1188 1332 1188 1332 1221 c 0,30,31
 1332 1406 1332 1406 1056 1406 c 0,32,33
 716 1406 716 1406 603 921 c 2,34,-1
 531 612 l 2,35,36
 520 565 520 565 520 534 c 0,37,38
 520 402 520 402 658 366 c 1,39,-1
 574 0 l 1,40,-1
 447 0 l 2,41,42
 281 0 281 0 172 50 c 1,43,-1
 205 197 l 1,0,1
EndSplineSet
Validated: 1
EndChar

StartChar: mu
Encoding: 956 956 151
Width: 1268
GlyphClass: 2
Flags: W
HStem: -410 21G<105 309.638> -20 150<484.556 691.576> 0 21G<914 1138> 1080 20G<384 608 1117.38 1322>
VStem: 105 200<-410 -210> 399 213<725.859 1097.94> 910 209<1.81299 354.456>
DStem2: 105 -410 305 -410 0.224951 0.97437<44.9902 458.691 726.396 1374.38> 773.084 -410 973.084 -410 0.224951 0.97437<619.991 728.676 940.203 1549.79>
LayerCount: 2
Fore
SplineSet
1138 0 m 1,0,-1
 918 0 l 1,1,2
 910 42 910 42 910 92 c 0,3,4
 910 185 910 185 937 300 c 1,5,6
 783 -20 783 -20 499 -20 c 0,7,8
 442 -20 442 -20 398 -9 c 1,9,-1
 305 -410 l 1,10,-1
 105 -410 l 1,11,-1
 385 800 l 2,12,13
 399 860 399 860 399 935 c 128,-1,14
 399 1010 399 1010 384 1100 c 1,15,-1
 604 1100 l 1,16,17
 612 1058 612 1058 612 1008 c 0,18,19
 612 916 612 916 585 800 c 2,20,-1
 477 335 l 2,21,22
 466 288 466 288 466 251 c 0,23,24
 466 130 466 130 585 130 c 0,25,26
 898 130 898 130 1104 1022 c 2,27,-1
 1122 1100 l 1,28,-1
 1322 1100 l 1,29,-1
 1137 300 l 2,30,31
 1119 222 1119 222 1119 144 c 0,32,33
 1119 74 1119 74 1138 0 c 1,0,-1
EndSplineSet
Validated: 1
EndChar

StartChar: pi
Encoding: 960 960 152
Width: 1268
GlyphClass: 2
Flags: W
HStem: 0 21G<200 404.625 913 1138> 973 127<608.764 1093>
VStem: 200 200<0 200> 408 205<737.5 973> 908 206<1.34888 362.797>
DStem2: 200 0 400 0 0.224951 0.97437<44.9902 992.561> 867.74 0 1067.74 0 0.224951 0.97437<181.432 998.735>
LayerCount: 2
Fore
SplineSet
200 0 m 1,0,-1
 385 800 l 2,1,2
 408 898 408 898 408 973 c 0,3,4
 407 1050 407 1050 384 1100 c 1,5,-1
 1322 1100 l 1,6,-1
 1137 300 l 2,7,8
 1114 202 1114 202 1114 127 c 0,9,10
 1115 50 1115 50 1138 0 c 1,11,-1
 918 0 l 1,12,13
 908 36 908 36 908 87 c 0,14,15
 908 173 908 173 937 300 c 2,16,-1
 1093 973 l 1,17,-1
 613 973 l 1,18,19
 608 899 608 899 585 800 c 2,20,-1
 400 0 l 1,21,-1
 200 0 l 1,0,-1
EndSplineSet
Validated: 1
EndChar

StartChar: uni2010
Encoding: 8208 8208 153
Width: 1133
GlyphClass: 2
Flags: W
HStem: 692 150<379 1108>
LayerCount: 2
Fore
SplineSet
379 842 m 1,0,-1
 1142 842 l 1,1,-1
 1108 692 l 1,2,-1
 345 692 l 1,3,-1
 379 842 l 1,0,-1
EndSplineSet
Validated: 1
EndChar

StartChar: uni2011
Encoding: 8209 8209 154
Width: 1133
GlyphClass: 2
Flags: W
HStem: 692 150<379 1108>
LayerCount: 2
Fore
SplineSet
379 842 m 1,0,-1
 1142 842 l 1,1,-1
 1108 692 l 1,2,-1
 345 692 l 1,3,-1
 379 842 l 1,0,-1
EndSplineSet
Validated: 1
EndChar

StartChar: figuredash
Encoding: 8210 8210 155
Width: 1183
GlyphClass: 2
Flags: W
HStem: 693 150<345 1193>
LayerCount: 2
Fore
SplineSet
345 843 m 1,0,-1
 1228 843 l 1,1,-1
 1193 693 l 1,2,-1
 310 693 l 1,3,-1
 345 843 l 1,0,-1
EndSplineSet
Validated: 1
EndChar

StartChar: endash
Encoding: 8211 8211 156
Width: 1183
GlyphClass: 2
Flags: W
HStem: 693 150<345 1193>
LayerCount: 2
Fore
SplineSet
345 843 m 1,0,-1
 1228 843 l 1,1,-1
 1193 693 l 1,2,-1
 310 693 l 1,3,-1
 345 843 l 1,0,-1
EndSplineSet
Validated: 1
EndChar

StartChar: emdash
Encoding: 8212 8212 157
Width: 1133
GlyphClass: 2
Flags: W
HStem: 696 150<220 1269>
LayerCount: 2
Fore
SplineSet
220 846 m 1,0,-1
 1303 846 l 1,1,-1
 1269 696 l 1,2,-1
 186 696 l 1,3,-1
 220 846 l 1,0,-1
EndSplineSet
Validated: 1
EndChar

StartChar: afii00208
Encoding: 8213 8213 158
Width: 1133
GlyphClass: 2
Flags: W
HStem: 696 150<220 1269>
LayerCount: 2
Fore
SplineSet
220 846 m 1,0,-1
 1303 846 l 1,1,-1
 1269 696 l 1,2,-1
 186 696 l 1,3,-1
 220 846 l 1,0,-1
EndSplineSet
Validated: 1
EndChar

StartChar: underscoredbl
Encoding: 8215 8215 159
Width: 1183
GlyphClass: 2
Flags: W
HStem: -410 150<90 938> -170 150<145 994>
LayerCount: 2
Fore
SplineSet
145 -20 m 1,0,-1
 1028 -20 l 1,1,-1
 994 -170 l 1,2,-1
 111 -170 l 1,3,-1
 145 -20 l 1,0,-1
55 -410 m 1,4,-1
 90 -260 l 1,5,-1
 973 -260 l 1,6,-1
 938 -410 l 1,7,-1
 55 -410 l 1,4,-1
EndSplineSet
Validated: 1
EndChar

StartChar: quoteleft
Encoding: 8216 8216 160
Width: 610
GlyphClass: 2
Flags: W
HStem: 874 656
VStem: 411 197<979.236 1277.51>
LayerCount: 2
Fore
SplineSet
720 1530 m 9,0,-1
 790 1429 l 17,1,2
 649 1354 649 1354 616 1215 c 0,3,4
 608 1181 608 1181 608 1151 c 0,5,6
 608 1058 608 1058 685 1008 c 1,7,-1
 498 874 l 17,8,9
 411 948 411 948 411 1077 c 0,10,11
 411 1129 411 1129 425 1190 c 0,12,13
 473 1401 473 1401 720 1530 c 9,0,-1
EndSplineSet
Validated: 1
EndChar

StartChar: quoteright
Encoding: 8217 8217 161
Width: 610
GlyphClass: 2
Flags: W
HStem: 874 656
VStem: 557 197<1127.36 1368.31>
LayerCount: 2
Fore
SplineSet
667 1530 m 17,0,1
 754 1456 754 1456 754 1327 c 0,2,3
 754 1275 754 1275 740 1214 c 0,4,5
 692 1003 692 1003 445 874 c 9,6,-1
 375 975 l 17,7,8
 516 1050 516 1050 549 1189 c 0,9,10
 557 1223 557 1223 557 1253 c 0,11,12
 557 1346 557 1346 480 1396 c 1,13,-1
 667 1530 l 17,0,1
EndSplineSet
Validated: 1
EndChar

StartChar: quotesinglbase
Encoding: 8218 8218 162
Width: 610
GlyphClass: 2
Flags: W
HStem: -366 656
VStem: 271 197<-112.641 128.312>
LayerCount: 2
Fore
SplineSet
381 290 m 17,0,1
 468 216 468 216 468 87 c 0,2,3
 468 35 468 35 454 -26 c 0,4,5
 406 -237 406 -237 159 -366 c 9,6,-1
 89 -265 l 17,7,8
 230 -190 230 -190 263 -51 c 0,9,10
 271 -17 271 -17 271 13 c 0,11,12
 271 106 271 106 194 156 c 1,13,-1
 381 290 l 17,0,1
EndSplineSet
Validated: 1
EndChar

StartChar: quotereversed
Encoding: 8219 8219 163
Width: 610
GlyphClass: 2
Flags: W
HStem: 874 656
VStem: 422 180<1008.95 1280.7>
LayerCount: 2
Fore
SplineSet
649 1530 m 9,0,1
 774 1396 l 1,2,3
 644 1331 644 1331 610 1189 c 0,4,5
 602 1156 602 1156 602 1127 c 0,6,7
 602 1032 602 1032 685 975 c 9,8,-1
 569 874 l 0,9,10
 422 976 422 976 422 1120 c 0,11,12
 422 1173 422 1173 432 1217 c 0,13,14
 480 1428 480 1428 649 1530 c 9,0,1
EndSplineSet
Validated: 1
EndChar

StartChar: quotedblleft
Encoding: 8220 8220 164
Width: 940
GlyphClass: 2
Flags: W
HStem: 874 656
VStem: 411 197<979.236 1277.51> 741 197<979.236 1277.51>
LayerCount: 2
Fore
SplineSet
720 1530 m 9,0,-1
 790 1429 l 17,1,2
 649 1354 649 1354 616 1215 c 0,3,4
 608 1181 608 1181 608 1151 c 0,5,6
 608 1058 608 1058 685 1008 c 1,7,-1
 498 874 l 17,8,9
 411 948 411 948 411 1077 c 0,10,11
 411 1129 411 1129 425 1190 c 0,12,13
 473 1401 473 1401 720 1530 c 9,0,-1
1050 1530 m 9,14,-1
 1120 1429 l 17,15,16
 979 1354 979 1354 946 1215 c 0,17,18
 938 1181 938 1181 938 1151 c 0,19,20
 938 1058 938 1058 1015 1008 c 1,21,-1
 828 874 l 17,22,23
 741 948 741 948 741 1077 c 0,24,25
 741 1129 741 1129 755 1190 c 0,26,27
 803 1401 803 1401 1050 1530 c 9,14,-1
EndSplineSet
Validated: 1
EndChar

StartChar: quotedblright
Encoding: 8221 8221 165
Width: 967
GlyphClass: 2
Flags: W
HStem: 874 656
VStem: 557 197<1127.36 1368.31> 887 197<1127.36 1368.31>
LayerCount: 2
Fore
SplineSet
997 1530 m 17,0,1
 1084 1456 1084 1456 1084 1327 c 0,2,3
 1084 1275 1084 1275 1070 1214 c 0,4,5
 1022 1003 1022 1003 775 874 c 9,6,-1
 705 975 l 17,7,8
 846 1050 846 1050 879 1189 c 0,9,10
 887 1223 887 1223 887 1253 c 0,11,12
 887 1346 887 1346 810 1396 c 1,13,-1
 997 1530 l 17,0,1
667 1530 m 17,14,15
 754 1456 754 1456 754 1327 c 0,16,17
 754 1275 754 1275 740 1214 c 0,18,19
 692 1003 692 1003 445 874 c 9,20,-1
 375 975 l 17,21,22
 516 1050 516 1050 549 1189 c 0,23,24
 557 1223 557 1223 557 1253 c 0,25,26
 557 1346 557 1346 480 1396 c 1,27,-1
 667 1530 l 17,14,15
EndSplineSet
Validated: 1
EndChar

StartChar: quotedblbase
Encoding: 8222 8222 166
Width: 940
GlyphClass: 2
Flags: W
HStem: -366 656
VStem: 271 197<-112.641 128.312> 601 197<-112.641 128.312>
LayerCount: 2
Fore
SplineSet
711 290 m 17,0,1
 798 216 798 216 798 87 c 0,2,3
 798 35 798 35 784 -26 c 0,4,5
 736 -237 736 -237 489 -366 c 9,6,-1
 419 -265 l 17,7,8
 560 -190 560 -190 593 -51 c 0,9,10
 601 -17 601 -17 601 13 c 0,11,12
 601 106 601 106 524 156 c 1,13,-1
 711 290 l 17,0,1
381 290 m 17,14,15
 468 216 468 216 468 87 c 0,16,17
 468 35 468 35 454 -26 c 0,18,19
 406 -237 406 -237 159 -366 c 9,20,-1
 89 -265 l 17,21,22
 230 -190 230 -190 263 -51 c 0,23,24
 271 -17 271 -17 271 13 c 0,25,26
 271 106 271 106 194 156 c 1,27,-1
 381 290 l 17,14,15
EndSplineSet
Validated: 1
EndChar

StartChar: uni201F
Encoding: 8223 8223 167
Width: 958
GlyphClass: 2
Flags: W
HStem: 874 656
VStem: 421 180<1008.95 1280.7> 770 180<1008.95 1280.7>
LayerCount: 2
Fore
SplineSet
997 1530 m 9,0,1
 1122 1396 l 1,2,3
 992 1331 992 1331 958 1189 c 0,4,5
 950 1156 950 1156 950 1127 c 0,6,7
 950 1032 950 1032 1033 975 c 9,8,-1
 917 874 l 0,9,10
 770 976 770 976 770 1120 c 0,11,12
 770 1173 770 1173 780 1217 c 0,13,14
 828 1428 828 1428 997 1530 c 9,0,1
648 1530 m 9,15,-1
 773 1396 l 1,16,17
 643 1331 643 1331 609 1189 c 0,18,19
 601 1156 601 1156 601 1127 c 0,20,21
 601 1032 601 1032 684 975 c 9,22,-1
 568 874 l 0,23,24
 421 976 421 976 421 1120 c 0,25,26
 421 1173 421 1173 431 1217 c 0,27,28
 479 1428 479 1428 648 1530 c 9,15,-1
EndSplineSet
Validated: 1
EndChar

StartChar: dagger
Encoding: 8224 8224 168
Width: 1183
GlyphClass: 2
Flags: W
HStem: 0 21G<492 696.612> 1019 150<420 727 962 1268> 1490 20G<836.367 1041>
VStem: 492 200<0 200> 841 200<1310 1510>
DStem2: 492 0 692 0 0.224951 0.97437<44.9902 1045.75 1244.77 1549.81>
LayerCount: 2
Fore
SplineSet
492 0 m 1,0,-1
 727 1019 l 1,1,-1
 385 1019 l 1,2,-1
 420 1169 l 1,3,-1
 762 1169 l 1,4,-1
 841 1510 l 1,5,-1
 1041 1510 l 1,6,-1
 962 1169 l 1,7,-1
 1303 1169 l 1,8,-1
 1268 1019 l 1,9,-1
 927 1019 l 1,10,-1
 692 0 l 1,11,-1
 492 0 l 1,0,-1
EndSplineSet
Validated: 1
EndChar

StartChar: daggerdbl
Encoding: 8225 8225 169
Width: 1183
GlyphClass: 2
Flags: W
HStem: 0 21G<492 696.62> 342 150<264 571 806 1112> 1019 150<420 727 962 1268> 1490 20G<836.367 1041>
VStem: 492 200<0 200> 841 200<1310 1510>
DStem2: 492 0 692 0 0.224951 0.97437<44.9902 351.006 550.025 1045.75 1244.77 1549.81>
LayerCount: 2
Fore
SplineSet
492 0 m 1,0,-1
 571 342 l 1,1,-1
 229 342 l 1,2,-1
 264 492 l 1,3,-1
 606 492 l 1,4,-1
 727 1019 l 1,5,-1
 385 1019 l 1,6,-1
 420 1169 l 1,7,-1
 762 1169 l 1,8,-1
 841 1510 l 1,9,-1
 1041 1510 l 1,10,-1
 962 1169 l 1,11,-1
 1303 1169 l 1,12,-1
 1268 1019 l 1,13,-1
 927 1019 l 1,14,-1
 806 492 l 1,15,-1
 1147 492 l 1,16,-1
 1112 342 l 1,17,-1
 771 342 l 1,18,-1
 692 0 l 1,19,-1
 492 0 l 1,0,-1
EndSplineSet
Validated: 1
EndChar

StartChar: bullet
Encoding: 8226 8226 170
Width: 1056
GlyphClass: 2
Flags: W
HStem: 443 624<566.953 837.047>
LayerCount: 2
Fore
SplineSet
774 1067 m 0,0,1
 1043 1067 1043 1067 1043 857 c 0,2,3
 1043 811 1043 811 1030 755 c 0,4,5
 958 443 958 443 630 443 c 0,6,7
 361 443 361 443 361 653 c 0,8,9
 361 699 361 699 374 755 c 0,10,11
 446 1067 446 1067 774 1067 c 0,0,1
EndSplineSet
Validated: 1
EndChar

StartChar: uni2023
Encoding: 8227 8227 171
Width: 950
GlyphClass: 2
Flags: W
LayerCount: 2
Fore
SplineSet
417 1158 m 1,0,-1
 1026 761 l 1,1,-1
 222 310 l 1,2,-1
 417 1158 l 1,0,-1
EndSplineSet
Validated: 1
EndChar

StartChar: onedotenleader
Encoding: 8228 8228 172
Width: 552
GlyphClass: 2
Flags: W
HStem: -20 255<215.054 387.746>
VStem: 169 263<25.3018 188.583>
LayerCount: 2
Fore
SplineSet
271 -20 m 0,0,1
 169 -20 169 -20 169 64 c 0,2,3
 169 86 169 86 175 110 c 0,4,5
 205 235 205 235 330 235 c 0,6,7
 432 235 432 235 432 151 c 0,8,9
 432 130 432 130 427 106 c 0,10,11
 399 -20 399 -20 271 -20 c 0,0,1
EndSplineSet
Validated: 1
EndChar

StartChar: twodotenleader
Encoding: 8229 8229 173
Width: 1017
GlyphClass: 2
Flags: W
HStem: -20 255<215.054 387.746 679.054 851.746>
VStem: 169 263<25.3018 188.583> 633 263<25.3018 188.583>
LayerCount: 2
Fore
SplineSet
735 -20 m 0,0,1
 633 -20 633 -20 633 64 c 0,2,3
 633 86 633 86 639 110 c 0,4,5
 669 235 669 235 794 235 c 0,6,7
 896 235 896 235 896 151 c 0,8,9
 896 130 896 130 891 106 c 0,10,11
 863 -20 863 -20 735 -20 c 0,0,1
271 -20 m 0,12,13
 169 -20 169 -20 169 64 c 0,14,15
 169 86 169 86 175 110 c 0,16,17
 205 235 205 235 330 235 c 0,18,19
 432 235 432 235 432 151 c 0,20,21
 432 130 432 130 427 106 c 0,22,23
 399 -20 399 -20 271 -20 c 0,12,13
EndSplineSet
Validated: 1
EndChar

StartChar: ellipsis
Encoding: 8230 8230 174
Width: 1481
GlyphClass: 2
Flags: W
HStem: -20 255<215.054 387.746 679.054 851.746 1143.05 1315.75>
VStem: 169 263<25.3018 188.583> 633 263<25.3018 188.583> 1097 263<25.3018 188.583>
CounterMasks: 1 70
LayerCount: 2
Fore
SplineSet
1199 -20 m 0,0,1
 1097 -20 1097 -20 1097 64 c 0,2,3
 1097 86 1097 86 1103 110 c 0,4,5
 1133 235 1133 235 1258 235 c 0,6,7
 1360 235 1360 235 1360 151 c 0,8,9
 1360 130 1360 130 1355 106 c 0,10,11
 1327 -20 1327 -20 1199 -20 c 0,0,1
735 -20 m 0,12,13
 633 -20 633 -20 633 64 c 0,14,15
 633 86 633 86 639 110 c 0,16,17
 669 235 669 235 794 235 c 0,18,19
 896 235 896 235 896 151 c 0,20,21
 896 130 896 130 891 106 c 0,22,23
 863 -20 863 -20 735 -20 c 0,12,13
271 -20 m 0,24,25
 169 -20 169 -20 169 64 c 0,26,27
 169 86 169 86 175 110 c 0,28,29
 205 235 205 235 330 235 c 0,30,31
 432 235 432 235 432 151 c 0,32,33
 432 130 432 130 427 106 c 0,34,35
 399 -20 399 -20 271 -20 c 0,24,25
EndSplineSet
Validated: 1
EndChar

StartChar: uni2027
Encoding: 8231 8231 175
Width: 552
GlyphClass: 2
Flags: W
HStem: 638 255<367.593 536.755>
VStem: 322 262<685.531 847.698>
LayerCount: 2
Fore
SplineSet
423 638 m 16,0,1
 322 638 322 638 322 722 c 0,2,3
 321 741 321 741 327 766 c 0,4,5
 357 893 357 893 482 893 c 0,6,7
 584 893 584 893 584 809 c 0,8,9
 584 790 584 790 578 766 c 0,10,11
 550 638 550 638 423 638 c 16,0,1
EndSplineSet
Validated: 1
EndChar

StartChar: perthousand
Encoding: 8240 8240 176
Width: 2375
GlyphClass: 2
Flags: W
HStem: -20 151<1077.01 1323.34 1812.01 2058.34> 0 21G<378 567.894> 458 146<1134.31 1380.86 1869.31 2115.86> 906 151<607.007 853.337> 1384 146<664.312 910.864> 1490 20G<1411.13 1603>
VStem: 378 176<0 176> 418 169<1078.47 1307.88> 888 169<152.471 381.883> 931 169<1136.65 1363.66> 1401 169<210.649 437.664> 1425 178<1332 1510> 1623 169<152.471 381.883> 2136 169<210.649 437.664>
DStem2: 378 0 554 0 0.570539 0.821271<100.415 1837.47>
LayerCount: 2
Fore
SplineSet
2129 300 m 0,0,1
 2136 329 2136 329 2136 353 c 0,2,3
 2135 458 2135 458 2002 458 c 0,4,5
 1839 458 1839 458 1800 297 c 0,6,7
 1792 264 1792 264 1792 238 c 0,8,9
 1793 131 1793 131 1924 131 c 0,10,11
 2088 131 2088 131 2129 300 c 0,0,1
2036 604 m 0,12,13
 2305 604 2305 604 2305 394 c 0,14,15
 2305 348 2305 348 2292 292 c 0,16,17
 2220 -20 2220 -20 1892 -20 c 0,18,19
 1623 -20 1623 -20 1623 190 c 0,20,21
 1623 236 1623 236 1636 292 c 0,22,23
 1708 604 1708 604 2036 604 c 0,12,13
924 1226 m 0,24,25
 931 1255 931 1255 931 1279 c 0,26,27
 930 1384 930 1384 797 1384 c 0,28,29
 634 1384 634 1384 595 1223 c 0,30,31
 587 1190 587 1190 587 1164 c 0,32,33
 588 1057 588 1057 719 1057 c 0,34,35
 883 1057 883 1057 924 1226 c 0,24,25
831 1530 m 0,36,37
 1100 1530 1100 1530 1100 1320 c 0,38,39
 1100 1274 1100 1274 1087 1218 c 0,40,41
 1015 906 1015 906 687 906 c 0,42,43
 418 906 418 906 418 1116 c 0,44,45
 418 1162 418 1162 431 1218 c 0,46,47
 503 1530 503 1530 831 1530 c 0,36,37
1394 300 m 0,48,49
 1401 329 1401 329 1401 353 c 0,50,51
 1400 458 1400 458 1267 458 c 0,52,53
 1104 458 1104 458 1065 297 c 0,54,55
 1057 264 1057 264 1057 238 c 0,56,57
 1058 131 1058 131 1189 131 c 0,58,59
 1353 131 1353 131 1394 300 c 0,48,49
1301 604 m 0,60,61
 1570 604 1570 604 1570 394 c 0,62,63
 1570 348 1570 348 1557 292 c 0,64,65
 1485 -20 1485 -20 1157 -20 c 0,66,67
 888 -20 888 -20 888 190 c 0,68,69
 888 236 888 236 901 292 c 0,70,71
 973 604 973 604 1301 604 c 0,60,61
378 0 m 17,72,-1
 1425 1510 l 1,73,-1
 1603 1510 l 1,74,-1
 554 0 l 9,75,-1
 378 0 l 17,72,-1
EndSplineSet
Validated: 1
EndChar

StartChar: minute
Encoding: 8242 8242 177
Width: 727
GlyphClass: 2
Flags: W
HStem: 1049 461
VStem: 392 534
LayerCount: 2
Fore
SplineSet
720 1510 m 1,0,-1
 926 1510 l 1,1,-1
 549 1049 l 1,2,-1
 392 1049 l 1,3,-1
 720 1510 l 1,0,-1
EndSplineSet
Validated: 1
EndChar

StartChar: second
Encoding: 8243 8243 178
Width: 1089
GlyphClass: 2
Flags: W
HStem: 1049 461
LayerCount: 2
Fore
SplineSet
1082 1510 m 1,0,-1
 1288 1510 l 1,1,-1
 911 1049 l 1,2,-1
 754 1049 l 1,3,-1
 1082 1510 l 1,0,-1
720 1510 m 1,4,-1
 926 1510 l 1,5,-1
 549 1049 l 1,6,-1
 392 1049 l 1,7,-1
 720 1510 l 1,4,-1
EndSplineSet
Validated: 1
EndChar

StartChar: uni2034
Encoding: 8244 8244 179
Width: 1451
GlyphClass: 2
Flags: W
HStem: 1049 461
LayerCount: 2
Fore
SplineSet
1444 1510 m 1,0,-1
 1650 1510 l 1,1,-1
 1273 1049 l 1,2,-1
 1116 1049 l 1,3,-1
 1444 1510 l 1,0,-1
1082 1510 m 1,4,-1
 1288 1510 l 1,5,-1
 911 1049 l 1,6,-1
 754 1049 l 1,7,-1
 1082 1510 l 1,4,-1
720 1510 m 1,8,-1
 926 1510 l 1,9,-1
 549 1049 l 1,10,-1
 392 1049 l 1,11,-1
 720 1510 l 1,8,-1
EndSplineSet
Validated: 1
EndChar

StartChar: uni2035
Encoding: 8245 8245 180
Width: 727
GlyphClass: 2
Flags: W
HStem: 1049 461<662 705>
VStem: 499 320
LayerCount: 2
Fore
SplineSet
499 1510 m 1,0,-1
 705 1510 l 1,1,-1
 819 1049 l 1,2,-1
 662 1049 l 1,3,-1
 499 1510 l 1,0,-1
EndSplineSet
Validated: 1
EndChar

StartChar: uni2036
Encoding: 8246 8246 181
Width: 1089
GlyphClass: 2
Flags: W
HStem: 1049 461<818 861 1180 1223>
LayerCount: 2
Fore
SplineSet
499 1510 m 1,0,-1
 705 1510 l 1,1,-1
 819 1049 l 1,2,-1
 662 1049 l 1,3,-1
 499 1510 l 1,0,-1
861 1510 m 1,4,-1
 1067 1510 l 1,5,-1
 1181 1049 l 1,6,-1
 1024 1049 l 1,7,-1
 861 1510 l 1,4,-1
EndSplineSet
Validated: 1
EndChar

StartChar: uni2037
Encoding: 8247 8247 182
Width: 1451
GlyphClass: 2
Flags: W
HStem: 1049 461<818 861 1180 1223 1542 1585>
LayerCount: 2
Fore
SplineSet
499 1510 m 1,0,-1
 705 1510 l 1,1,-1
 819 1049 l 1,2,-1
 662 1049 l 1,3,-1
 499 1510 l 1,0,-1
861 1510 m 1,4,-1
 1067 1510 l 1,5,-1
 1181 1049 l 1,6,-1
 1024 1049 l 1,7,-1
 861 1510 l 1,4,-1
1223 1510 m 1,8,-1
 1429 1510 l 1,9,-1
 1543 1049 l 1,10,-1
 1386 1049 l 1,11,-1
 1223 1510 l 1,8,-1
EndSplineSet
Validated: 1
EndChar

StartChar: guilsinglleft
Encoding: 8249 8249 183
Width: 873
GlyphClass: 2
Flags: W
DStem2: 482 799 307 678 0.586409 -0.810015<0 482.809> 348 859 482 799 0.764545 0.64457<63.7748 682.108>
LayerCount: 2
Fore
SplineSet
998 1407 m 1,0,-1
 951 1202 l 1,1,-1
 482 799 l 1,2,-1
 768 410 l 1,3,-1
 703 131 l 1,4,-1
 307 678 l 1,5,-1
 348 859 l 1,6,-1
 998 1407 l 1,0,-1
EndSplineSet
Validated: 1
EndChar

StartChar: guilsinglright
Encoding: 8250 8250 184
Width: 873
GlyphClass: 2
Flags: W
DStem2: 276 329 229 124 0.764636 0.644462<0 617.568> 523 1401 459 1121 0.579849 -0.814724<191.012 673.197>
LayerCount: 2
Fore
SplineSet
523 1401 m 1,0,-1
 918 846 l 1,1,-1
 878 671 l 1,2,-1
 229 124 l 1,3,-1
 276 329 l 1,4,-1
 744 732 l 1,5,-1
 459 1121 l 1,6,-1
 523 1401 l 1,0,-1
EndSplineSet
Validated: 1
EndChar

StartChar: uni2043
Encoding: 8259 8259 185
Width: 1139
GlyphClass: 2
Flags: W
VStem: 567 150<314 464> 760 150<997 1147>
DStem2: 289 600 334 470 0.902685 0.430301<0 328.03 619.407 943.911> 458 1009 356 893 0.853534 -0.521038<0 260.418 494.286 494.286> 567 314 717 314 0.224951 0.97437<33.7427 320.425 605.485 855.066>
LayerCount: 2
Fore
SplineSet
760 1147 m 1,0,-1
 910 1147 l 1,1,-1
 846 871 l 1,2,-1
 1147 1009 l 1,3,-1
 1195 893 l 1,4,-1
 879 750 l 1,5,-1
 1128 600 l 1,6,-1
 1023 470 l 1,7,-1
 790 626 l 1,8,-1
 717 314 l 1,9,-1
 567 314 l 1,10,-1
 640 626 l 1,11,-1
 334 470 l 1,12,-1
 289 600 l 1,13,-1
 605 750 l 1,14,-1
 356 893 l 1,15,-1
 458 1009 l 1,16,-1
 696 871 l 1,17,-1
 760 1147 l 1,0,-1
EndSplineSet
Validated: 1
EndChar

StartChar: fraction
Encoding: 8260 8260 186
Width: 1096
GlyphClass: 2
Flags: W
DStem2: 20 -132 149 -200 0.570186 0.821515<17.691 2235.54>
LayerCount: 2
Fore
SplineSet
1424 1637 m 1,0,-1
 149 -200 l 1,1,-1
 20 -132 l 1,2,-1
 1294 1705 l 1,3,-1
 1424 1637 l 1,0,-1
EndSplineSet
Validated: 1
EndChar

StartChar: Euro
Encoding: 8364 8364 187
Width: 1528
GlyphClass: 2
Flags: W
HStem: -20 124<607.899 983.277> 530 150<257 382 617 1083> 818 150<323 449 684 1150> 1406 124<944.348 1310.92>
VStem: 329 206<173.651 493.906> 1231 208<390.091 472> 1393 214<1142.87 1330.13>
DStem2: 255.116 -20 455.116 -20 0.224951 0.97437<366.082 564.446 763.465 860.137 1059.16 1262.04>
LayerCount: 2
Fore
SplineSet
1439 497 m 1,0,1
 1272 -20 1272 -20 680 -20 c 0,2,3
 329 -20 329 -20 329 243 c 0,4,5
 329 298 329 298 344 365 c 2,6,-1
 382 530 l 1,7,-1
 222 530 l 1,8,-1
 257 680 l 1,9,-1
 417 680 l 1,10,-1
 449 818 l 1,11,-1
 289 818 l 1,12,-1
 323 968 l 1,13,-1
 484 968 l 1,14,15
 638 1530 638 1530 1256 1530 c 0,16,17
 1607 1530 1607 1530 1607 1267 c 0,18,19
 1607 1212 1607 1212 1592 1145 c 1,20,-1
 1380 1090 l 1,21,22
 1393 1148 1393 1148 1393 1195 c 0,23,24
 1393 1406 1393 1406 1126 1406 c 0,25,26
 802 1406 802 1406 684 968 c 1,27,-1
 1184 968 l 1,28,-1
 1150 818 l 1,29,-1
 649 818 l 1,30,-1
 617 680 l 1,31,-1
 1118 680 l 1,32,-1
 1083 530 l 1,33,-1
 582 530 l 1,34,-1
 544 365 l 2,35,36
 535 325 535 325 535 290 c 0,37,38
 535 104 535 104 811 104 c 0,39,40
 1108 104 1108 104 1231 472 c 1,41,-1
 1439 497 l 1,0,1
EndSplineSet
Validated: 1
EndChar

StartChar: afii61248
Encoding: 8453 8453 188
Width: 1723
GlyphClass: 2
Flags: W
HStem: -20 112<1191.27 1406.87> 0 21G<431 620.894> 705 113<517.164 739.836 1355.4 1547.11> 1418 112<663.879 867.546> 1490 20G<1464.13 1656>
VStem: 354 155<829.928 977.595> 431 176<0 176> 812 159<903.758 999> 881 163<1295 1403.42> 1028 155<104.263 354.375> 1478 178<1332 1510> 1563 155<533.143 679.222>
DStem2: 145.291 -20 295.291 -20 0.224951 0.97437<970.869 1462.04> 431 0 607 0 0.570539 0.821271<100.415 1837.47> 986.671 -20 1136.67 -20 0.224951 0.97437<227.743 718.145> 1418.04 -20 1568.04 -20 0.224951 0.97437<162.316 652.915>
LayerCount: 2
Fore
SplineSet
971 1018 m 1,0,1
 898 705 898 705 548 705 c 0,2,3
 354 705 354 705 354 852 c 0,4,5
 354 884 354 884 363 923 c 2,6,-1
 427 1201 l 2,7,8
 503 1530 503 1530 849 1530 c 0,9,10
 1044 1530 1044 1530 1044 1374 c 0,11,12
 1044 1339 1044 1339 1034 1295 c 1,13,-1
 873 1253 l 1,14,15
 881 1288 881 1288 881 1317 c 0,16,17
 881 1418 881 1418 773 1418 c 0,18,19
 627 1418 627 1418 577 1201 c 2,20,-1
 513 923 l 2,21,22
 509 906 509 906 509 892 c 0,23,24
 510 818 510 818 620 818 c 0,25,26
 770 818 770 818 812 999 c 1,27,-1
 971 1018 l 1,0,1
1037 198 m 2,28,-1
 1101 476 l 2,29,30
 1177 805 1177 805 1523 805 c 0,31,32
 1718 805 1718 805 1718 657 c 0,33,34
 1718 625 1718 625 1709 587 c 2,35,-1
 1644 309 l 2,36,37
 1568 -20 1568 -20 1222 -20 c 0,38,39
 1028 -20 1028 -20 1028 127 c 0,40,41
 1028 159 1028 159 1037 198 c 2,28,-1
1187 198 m 2,42,43
 1183 181 1183 181 1183 168 c 0,44,45
 1184 92 1184 92 1298 92 c 24,46,47
 1443 92 1443 92 1494 309 c 2,48,-1
 1559 587 l 2,49,50
 1563 605 1563 605 1563 617 c 0,51,52
 1561 692 1561 692 1451 692 c 0,53,54
 1301 692 1301 692 1251 476 c 2,55,-1
 1187 198 l 2,42,43
431 0 m 17,56,-1
 1478 1510 l 1,57,-1
 1656 1510 l 1,58,-1
 607 0 l 9,59,-1
 431 0 l 17,56,-1
EndSplineSet
Validated: 1
EndChar

StartChar: afii61289
Encoding: 8467 8467 189
Width: 1158
GlyphClass: 2
Flags: W
HStem: -20 136<532.072 706.441> 0 21G<150 368.531> 1510 20G<1051 1175.5>
LayerCount: 2
Fore
SplineSet
695 672 m 1,0,1
 818 842 818 842 902 1014 c 0,2,3
 990 1197 990 1197 1050 1389 c 1,4,5
 944 1227 944 1227 852 1042 c 0,6,7
 752 839 752 839 695 672 c 1,0,1
150 0 m 1,8,9
 297 144 297 144 408 296 c 1,10,11
 417 368 417 368 435 448 c 0,12,13
 466 584 466 584 638 954 c 0,14,15
 812 1328 812 1328 909 1443 c 0,16,17
 982 1530 982 1530 1120 1530 c 2,18,-1
 1123 1530 l 2,19,20
 1228 1530 1228 1530 1228 1422 c 0,21,22
 1228 1388 1228 1388 1218 1344 c 8,23,24
 1198 1256 1198 1256 1130 1090 c 0,25,26
 992 753 992 753 585 272 c 1,27,28
 585 264 585 264 585 257 c 0,29,30
 585 116 585 116 638 116 c 0,31,32
 664 116 664 116 701 154 c 0,33,34
 707 160 707 160 769 228 c 1,35,-1
 945 228 l 1,36,37
 841 90 841 90 757 33 c 0,38,39
 679 -20 679 -20 597 -20 c 0,40,41
 469 -20 469 -20 422 81 c 1,42,-1
 351 0 l 1,43,-1
 150 0 l 1,8,9
EndSplineSet
Validated: 1
EndChar

StartChar: trademark
Encoding: 8482 8482 190
Width: 1756
GlyphClass: 2
Flags: W
HStem: 1396 114<491.891 677 827 1032>
VStem: 529 150<755 905> 979 150<755 905> 1329 150<1086 1236.79> 1551 156<756.158 1050.14>
DStem2: 529 755 679 755 0.224951 0.97437<33.7427 657.864> 979 755 1129 755 0.224951 0.97437<33.7427 684.797> 1526.6 755 1676.14 755 0.224951 0.97437<143.774 680.29>
LayerCount: 2
Fore
SplineSet
529 755 m 1,0,-1
 677 1396 l 1,1,-1
 645 1396 l 2,2,3
 534 1396 534 1396 459 1337 c 1,4,-1
 490 1473 l 1,5,6
 550 1510 550 1510 674 1510 c 2,7,-1
 1059 1510 l 1,8,-1
 1032 1396 l 1,9,-1
 827 1396 l 1,10,-1
 679 755 l 1,11,-1
 529 755 l 1,0,-1
979 755 m 1,12,-1
 1116 1346 l 2,13,14
 1126 1389 1126 1389 1126 1425 c 0,15,16
 1126 1480 1126 1480 1100 1510 c 1,17,-1
 1254 1510 l 2,18,19
 1452 1510 1452 1510 1465 1355 c 1,20,21
 1547 1510 1547 1510 1726 1510 c 2,22,-1
 1851 1510 l 1,23,-1
 1714 919 l 2,24,25
 1707 889 1707 889 1707 860 c 0,26,27
 1708 805 1708 805 1730 755 c 1,28,-1
 1561 755 l 1,29,30
 1551 779 1551 779 1551 816 c 0,31,32
 1552 865 1552 865 1567 930 c 2,33,-1
 1679 1418 l 1,34,35
 1550 1394 1550 1394 1479 1086 c 1,36,-1
 1329 1086 l 1,37,38
 1352 1188 1352 1188 1352 1257 c 0,39,40
 1352 1384 1352 1384 1280 1417 c 1,41,42
 1277 1393 1277 1393 1275 1385 c 2,43,-1
 1129 755 l 1,44,-1
 979 755 l 1,12,-1
EndSplineSet
Validated: 1
EndChar

StartChar: uni2126
Encoding: 8486 8486 191
Width: 1448
GlyphClass: 2
Flags: W
HStem: 0 127<257.705 476 1030 1269.67> 50 147<201.782 303.899 1212.02 1300> 1406 124<881.691 1258.6>
VStem: 316 204<416.481 737.531> 1332 205<1018.25 1336.54>
DStem2: 189.709 0 389.709 0 0.224951 0.97437<595.561 1227.97> 874 0 1000.68 0 0.224951 0.97437<158.837 353.55> 1057.69 0 1257.69 0 0.224951 0.97437<575.108 1250.4>
LayerCount: 2
Fore
SplineSet
205 197 m 1,0,1
 327 127 327 127 476 127 c 1,2,-1
 504 245 l 1,3,4
 316 296 316 296 316 490 c 0,5,6
 316 548 316 548 331 612 c 2,7,-1
 403 921 l 2,8,9
 545 1530 545 1530 1186 1530 c 0,10,11
 1537 1530 1537 1530 1537 1267 c 0,12,13
 1537 1210 1537 1210 1522 1145 c 2,14,-1
 1444 807 l 2,15,16
 1355 419 1355 419 1065 278 c 1,17,-1
 1030 127 l 1,18,19
 1176 127 1176 127 1333 197 c 1,20,-1
 1300 50 l 1,21,22
 1167 0 1167 0 1001 0 c 2,23,-1
 874 0 l 1,24,-1
 956 354 l 1,25,26
 1161 447 1161 447 1244 807 c 2,27,-1
 1322 1145 l 2,28,29
 1332 1188 1332 1188 1332 1221 c 0,30,31
 1332 1406 1332 1406 1056 1406 c 0,32,33
 716 1406 716 1406 603 921 c 2,34,-1
 531 612 l 2,35,36
 520 565 520 565 520 534 c 0,37,38
 520 402 520 402 658 366 c 1,39,-1
 574 0 l 1,40,-1
 447 0 l 2,41,42
 281 0 281 0 172 50 c 1,43,-1
 205 197 l 1,0,1
EndSplineSet
Validated: 1
EndChar

StartChar: estimated
Encoding: 8494 8494 192
Width: 1430
GlyphClass: 2
Flags: W
HStem: -20 85<572.005 907.821> 529 80<539 1174> 1044 84<767.53 1127.15>
VStem: 1125 139<130 269>
LayerCount: 2
Fore
SplineSet
1264 269 m 1,0,1
 1125 117 1125 117 1012 61 c 0,2,3
 849 -20 849 -20 710 -20 c 0,4,5
 460 -20 460 -20 350 144 c 0,6,7
 263 274 263 274 263 424 c 0,8,9
 263 487 263 487 278 554 c 0,10,11
 331 776 331 776 526 954 c 24,12,13
 716 1128 716 1128 976 1128 c 0,14,15
 1217 1128 1217 1128 1331 970 c 272,16,17
 1421 845 1421 845 1421 684 c 0,18,19
 1421 610 1421 610 1402 529 c 1,20,-1
 520 529 l 1,21,-1
 449 220 l 1,22,23
 559 65 559 65 731 65 c 256,24,25
 840 65 840 65 960 132 c 0,26,27
 1057 186 1057 186 1125 269 c 1,28,-1
 1264 269 l 1,0,1
603 890 m 1,29,-1
 539 609 l 1,30,-1
 1174 609 l 1,31,-1
 1238 889 l 1,32,33
 1149 1044 1149 1044 957 1044 c 0,34,35
 763 1044 763 1044 603 890 c 1,29,-1
EndSplineSet
Validated: 1
EndChar

StartChar: partialdiff
Encoding: 8706 8706 193
Width: 1182
GlyphClass: 2
Flags: W
HStem: -20 178<435.818 618.476> 678 186<587.138 783.759> 1185 205<656.963 927.53>
VStem: 219 202<187.842 442.599> 980 221<763.007 1132.16>
LayerCount: 2
Fore
SplineSet
654 1353 m 1,0,1
 812 1390 812 1390 886 1390 c 0,2,3
 1144 1390 1144 1390 1193 1129 c 0,4,5
 1201 1086 1201 1086 1201 1037 c 0,6,7
 1200 943 1200 943 1174 831 c 0,8,9
 1149 721 1149 721 1095 589 c 0,10,11
 964 266 964 266 773 106 c 0,12,13
 622 -20 622 -20 477 -20 c 0,14,15
 340 -20 340 -20 271 70 c 0,16,17
 219 138 219 138 219 242 c 0,18,19
 220 298 220 298 234 363 c 0,20,21
 274 548 274 548 402 704 c 0,22,23
 534 864 534 864 709 864 c 0,24,25
 826 864 826 864 896 787 c 0,26,27
 917 764 917 764 933 734 c 1,28,29
 943 767 943 767 957 825 c 0,30,31
 980 923 980 923 980 988 c 0,32,33
 979 1011 979 1011 977 1028 c 0,34,35
 959 1185 959 1185 804 1185 c 0,36,37
 740 1185 740 1185 602 1128 c 1,38,-1
 654 1353 l 1,0,1
839 495 m 1,39,40
 808 678 808 678 689 678 c 0,41,42
 590 678 590 678 507 529 c 0,43,44
 452 429 452 429 430 335 c 0,45,46
 421 296 421 296 421 266 c 0,47,48
 421 228 421 228 435 203 c 256,49,50
 460 158 460 158 511 158 c 0,51,52
 557 158 557 158 607 194 c 0,53,54
 678 245 678 245 746 341 c 0,55,56
 803 417 803 417 839 495 c 1,39,40
EndSplineSet
Validated: 1
EndChar

StartChar: uni2206
Encoding: 8710 8710 194
Width: 1237
GlyphClass: 2
Flags: W
HStem: 0 117<213 1005> 1490 20G<858.609 1067.15>
DStem2: 10 0 213 117 0.494899 0.868951<202.132 1586.63> 1065 1510 886 1327 0.106673 -0.994294<162.861 1378.65>
LayerCount: 2
Fore
SplineSet
10 0 m 1,0,-1
 870 1510 l 1,1,-1
 1065 1510 l 1,2,-1
 1227 0 l 1,3,-1
 10 0 l 1,0,-1
213 117 m 1,4,-1
 1005 117 l 1,5,-1
 886 1327 l 1,6,-1
 213 117 l 1,4,-1
EndSplineSet
Validated: 1
EndChar

StartChar: product
Encoding: 8719 8719 195
Width: 1406
GlyphClass: 2
Flags: W
HStem: -410 20G<105 309.618 911 1115.62> 1383 127<719 1325>
VStem: 105 200<-410 -210> 549 1006<504 1510> 911 200<-411 -211>
DStem2: 104.769 -411 304.769 -411 0.224951 0.97437<46.0165 1886.19> 911 -411 1111 -411 0.224951 0.97437<44.9902 1841.15>
LayerCount: 2
Fore
SplineSet
549 1510 m 1,0,-1
 1555 1510 l 1,1,-1
 1111 -411 l 1,2,-1
 911 -411 l 1,3,-1
 1325 1383 l 1,4,-1
 719 1383 l 1,5,-1
 305 -410 l 1,6,-1
 105 -410 l 1,7,-1
 549 1510 l 1,0,-1
EndSplineSet
Validated: 1
EndChar

StartChar: summation
Encoding: 8721 8721 196
Width: 1407
GlyphClass: 2
Flags: W
HStem: -410 127<390 1151.58> 1383 127<786 1488>
DStem2: 55 -410 390 -283 0.633666 0.773607<310.526 1271.96> 786 1383 499 1510 0.360715 -0.932676<0 781.589>
LayerCount: 2
Fore
SplineSet
499 1510 m 1,0,-1
 1518 1510 l 17,1,-1
 1488 1383 l 9,2,-1
 786 1383 l 1,3,-1
 1101 570 l 1,4,-1
 390 -283 l 1,5,-1
 892 -283 l 2,6,7
 1074 -283 1074 -283 1208 -213 c 1,8,-1
 1174 -360 l 1,9,10
 1041 -410 1041 -410 862 -410 c 2,11,-1
 55 -410 l 1,12,-1
 861 574 l 1,13,-1
 499 1510 l 1,0,-1
EndSplineSet
Validated: 1
EndChar

StartChar: minus
Encoding: 8722 8722 197
Width: 1183
GlyphClass: 2
Flags: W
HStem: 693 150<345 1193>
LayerCount: 2
Fore
SplineSet
345 843 m 1,0,-1
 1228 843 l 1,1,-1
 1193 693 l 1,2,-1
 310 693 l 1,3,-1
 345 843 l 1,0,-1
EndSplineSet
Validated: 1
EndChar

StartChar: uni2215
Encoding: 8725 8725 198
Width: 1096
GlyphClass: 2
Flags: W
DStem2: 20 -132 149 -200 0.570186 0.821515<17.691 2235.54>
LayerCount: 2
Fore
SplineSet
1294 1705 m 1,0,-1
 1424 1637 l 1,1,-1
 149 -200 l 1,2,-1
 20 -132 l 1,3,-1
 1294 1705 l 1,0,-1
EndSplineSet
Validated: 1
EndChar

StartChar: asteriskmath
Encoding: 8727 8727 199
Width: 1139
GlyphClass: 2
Flags: W
VStem: 567 150<314 464> 760 150<997 1147>
DStem2: 289 600 334 470 0.902685 0.430301<0 328.03 619.407 943.911> 458 1009 356 893 0.853534 -0.521038<0 260.418 494.286 494.286> 567 314 717 314 0.224951 0.97437<33.7427 320.425 605.485 855.066>
LayerCount: 2
Fore
SplineSet
760 1147 m 1,0,-1
 910 1147 l 1,1,-1
 846 871 l 1,2,-1
 1147 1009 l 1,3,-1
 1195 893 l 1,4,-1
 879 750 l 1,5,-1
 1128 600 l 1,6,-1
 1023 470 l 1,7,-1
 790 626 l 1,8,-1
 717 314 l 1,9,-1
 567 314 l 1,10,-1
 640 626 l 1,11,-1
 334 470 l 1,12,-1
 289 600 l 1,13,-1
 605 750 l 1,14,-1
 356 893 l 1,15,-1
 458 1009 l 1,16,-1
 696 871 l 1,17,-1
 760 1147 l 1,0,-1
EndSplineSet
Validated: 1
EndChar

StartChar: uni2218
Encoding: 8728 8728 200
Width: 1056
GlyphClass: 2
Flags: W
HStem: 443 151<550.007 796.337> 921 146<607.312 853.864>
VStem: 361 169<615.471 844.883> 874 169<673.649 900.664>
LayerCount: 2
Fore
SplineSet
867 763 m 0,0,1
 874 792 874 792 874 816 c 0,2,3
 873 921 873 921 740 921 c 0,4,5
 577 921 577 921 538 760 c 0,6,7
 530 727 530 727 530 701 c 0,8,9
 531 594 531 594 662 594 c 0,10,11
 826 594 826 594 867 763 c 0,0,1
774 1067 m 0,12,13
 1043 1067 1043 1067 1043 857 c 0,14,15
 1043 811 1043 811 1030 755 c 0,16,17
 958 443 958 443 630 443 c 0,18,19
 361 443 361 443 361 653 c 0,20,21
 361 699 361 699 374 755 c 0,22,23
 446 1067 446 1067 774 1067 c 0,12,13
EndSplineSet
Validated: 1
EndChar

StartChar: uni2219
Encoding: 8729 8729 201
Width: 552
GlyphClass: 2
Flags: W
HStem: 638 255<367.593 536.755>
VStem: 322 262<685.531 847.698>
LayerCount: 2
Fore
SplineSet
423 638 m 16,0,1
 322 638 322 638 322 722 c 0,2,3
 321 741 321 741 327 766 c 0,4,5
 357 893 357 893 482 893 c 0,6,7
 584 893 584 893 584 809 c 0,8,9
 584 790 584 790 578 766 c 0,10,11
 550 638 550 638 423 638 c 16,0,1
EndSplineSet
Validated: 1
EndChar

StartChar: radical
Encoding: 8730 8730 202
Width: 1271
GlyphClass: 2
Flags: W
HStem: 0 21G<470.659 661.752> 675 105<280 394> 1413 97<1341 1497>
DStem2: 581 780 394 675 0.116244 -0.993221<82.5506 554.535> 635 228 652 0 0.438286 0.898836<0 1374.55>
LayerCount: 2
Fore
SplineSet
473 0 m 1,0,-1
 394 675 l 1,1,-1
 256 675 l 1,2,-1
 280 780 l 1,3,-1
 581 780 l 1,4,-1
 635 228 l 1,5,-1
 1265 1510 l 1,6,-1
 1520 1510 l 1,7,-1
 1497 1413 l 1,8,-1
 1341 1413 l 1,9,-1
 652 0 l 1,10,-1
 473 0 l 1,0,-1
EndSplineSet
Validated: 1
EndChar

StartChar: uni221B
Encoding: 8731 8731 203
Width: 1271
GlyphClass: 2
Flags: W
HStem: 0 21G<470.659 661.752> 675 105<280 394> 879 89<571.755 753.193> 1080 20G<491.625 567.5> 1192 92<601 792.136> 1413 97<627 828.259 1341 1497> 1440 90<629.899 828.259>
VStem: 437 127<975.074 1068> 804 125<1025.87 1185.65> 831 121<1324.8 1438.32>
DStem2: 581 780 394 675 0.116244 -0.993221<82.5506 554.535> 635 228 652 0 0.438286 0.898836<0 1374.55>
LayerCount: 2
Fore
SplineSet
444 1068 m 1,0,1
 571 1100 l 1,2,3
 564 1072 564 1072 564 1049 c 0,4,5
 564 968 564 968 653 968 c 0,6,7
 765 968 765 968 801 1109 c 16,8,9
 804 1121 804 1121 804 1133 c 0,10,11
 804 1192 804 1192 708 1192 c 2,12,-1
 580 1192 l 1,13,-1
 601 1284 l 1,14,15
 812 1284 812 1284 830 1392 c 0,16,17
 831 1398 831 1398 831 1403 c 0,18,19
 831 1440 831 1440 764 1440 c 2,20,-1
 752 1440 l 2,21,22
 696 1440 696 1440 603 1400 c 1,23,-1
 627 1505 l 1,24,25
 720 1530 720 1530 785 1530 c 2,26,-1
 796 1530 l 2,27,28
 952 1530 952 1530 952 1435 c 0,29,30
 952 1418 952 1418 947 1398 c 0,31,32
 927 1319 927 1319 853 1266 c 1,33,34
 929 1237 929 1237 929 1164 c 0,35,36
 929 1144 929 1144 925 1128 c 0,37,38
 863 879 863 879 592 879 c 0,39,40
 437 879 437 879 437 1009 c 0,41,42
 437 1038 437 1038 444 1068 c 1,0,1
473 0 m 1,43,-1
 394 675 l 1,44,-1
 256 675 l 1,45,-1
 280 780 l 1,46,-1
 581 780 l 1,47,-1
 635 228 l 1,48,-1
 1265 1510 l 1,49,-1
 1520 1510 l 1,50,-1
 1497 1413 l 1,51,-1
 1341 1413 l 1,52,-1
 652 0 l 1,53,-1
 473 0 l 1,43,-1
EndSplineSet
Validated: 1
EndChar

StartChar: infinity
Encoding: 8734 8734 204
Width: 1550
GlyphClass: 2
Flags: W
HStem: 443 151<549.776 796.741 1042.26 1290.34> 921 146<607.312 855.382 1098.91 1347.86>
VStem: 361 169<615.471 844.883> 874 150<675.922 843.455> 1368 169<673.879 900.425>
CounterMasks: 1 38
LayerCount: 2
Fore
SplineSet
867 763 m 0,0,1
 874 792 874 792 874 816 c 0,2,3
 873 921 873 921 740 921 c 0,4,5
 577 921 577 921 538 760 c 0,6,7
 530 727 530 727 530 701 c 0,8,9
 530 594 530 594 662 594 c 0,10,11
 826 594 826 594 867 763 c 0,0,1
1268 1067 m 0,12,13
 1537 1067 1537 1067 1537 857 c 0,14,15
 1537 811 1537 811 1524 755 c 0,16,17
 1452 443 1452 443 1124 443 c 0,18,19
 959 443 959 443 895 522 c 1,20,21
 795 443 795 443 630 443 c 0,22,23
 361 443 361 443 361 653 c 0,24,25
 361 699 361 699 374 755 c 0,26,27
 446 1067 446 1067 774 1067 c 0,28,29
 939 1067 939 1067 1003 988 c 1,30,31
 1103 1067 1103 1067 1268 1067 c 0,12,13
1361 763 m 0,32,33
 1368 792 1368 792 1368 816 c 0,34,35
 1367 921 1367 921 1234 921 c 0,36,37
 1071 921 1071 921 1032 760 c 0,38,39
 1024 727 1024 727 1024 701 c 0,40,41
 1024 594 1024 594 1156 594 c 0,42,43
 1320 594 1320 594 1361 763 c 0,32,33
EndSplineSet
Validated: 1
EndChar

StartChar: approxequal
Encoding: 8776 8776 205
Width: 1208
GlyphClass: 2
Flags: W
HStem: 410 148<787.531 971.376> 619 146<511.406 678.68> 831 148<884.684 1068.38> 1040 146<608.406 775.181>
LayerCount: 2
Fore
SplineSet
258 466 m 1,0,1
 327 765 327 765 525 765 c 0,2,3
 701 765 701 765 772 625 c 0,4,5
 806 558 806 558 899 558 c 0,6,7
 987 558 987 558 1035 765 c 1,8,-1
 1222 709 l 1,9,10
 1153 410 1153 410 947 410 c 0,11,12
 748 410 748 410 694 546 c 0,13,14
 665 619 665 619 583 619 c 0,15,16
 493 619 493 619 445 410 c 1,17,-1
 258 466 l 1,0,1
355 887 m 1,18,19
 424 1186 424 1186 622 1186 c 0,20,21
 796 1186 796 1186 869 1046 c 0,22,23
 904 979 904 979 996 979 c 0,24,25
 1084 979 1084 979 1132 1186 c 1,26,-1
 1319 1130 l 1,27,28
 1250 831 1250 831 1044 831 c 0,29,30
 845 831 845 831 791 967 c 0,31,32
 762 1040 762 1040 680 1040 c 0,33,34
 590 1040 590 1040 542 831 c 1,35,-1
 355 887 l 1,18,19
EndSplineSet
Validated: 1
EndChar

StartChar: notequal
Encoding: 8800 8800 206
Width: 1183
GlyphClass: 2
Flags: W
HStem: 0 21G<154 343.866> 551 150<312 536 817 1160> 839 150<378 736 1016 1227> 1490 20G<1187.1 1379>
VStem: 154 176<0 176> 1201 178<1332 1510>
DStem2: 154 0 330 0 0.570539 0.821271<100.415 670.466 953.978 1021.1 1304.04 1837.47>
LayerCount: 2
Fore
SplineSet
154 0 m 1,0,-1
 536 551 l 1,1,-1
 277 551 l 1,2,-1
 312 701 l 1,3,-1
 640 701 l 1,4,-1
 736 839 l 1,5,-1
 344 839 l 1,6,-1
 378 989 l 1,7,-1
 839 989 l 1,8,-1
 1201 1510 l 1,9,-1
 1379 1510 l 1,10,-1
 1016 989 l 1,11,-1
 1261 989 l 1,12,-1
 1227 839 l 1,13,-1
 913 839 l 1,14,-1
 817 701 l 1,15,-1
 1195 701 l 1,16,-1
 1160 551 l 1,17,-1
 712 551 l 1,18,-1
 330 0 l 1,19,-1
 154 0 l 1,0,-1
EndSplineSet
Validated: 1
EndChar

StartChar: equivalence
Encoding: 8801 8801 207
Width: 1183
GlyphClass: 2
Flags: W
HStem: 406 150<278 1127> 694 150<345 1193> 982 150<411 1260>
CounterMasks: 1 e0
LayerCount: 2
Fore
SplineSet
278 556 m 1,0,-1
 1161 556 l 1,1,-1
 1127 406 l 1,2,-1
 244 406 l 1,3,-1
 278 556 l 1,0,-1
411 1132 m 1,4,-1
 1294 1132 l 1,5,-1
 1260 982 l 1,6,-1
 377 982 l 1,7,-1
 411 1132 l 1,4,-1
345 844 m 1,8,-1
 1228 844 l 1,9,-1
 1193 694 l 1,10,-1
 310 694 l 1,11,-1
 345 844 l 1,8,-1
EndSplineSet
Validated: 1
EndChar

StartChar: lessequal
Encoding: 8804 8804 208
Width: 1256
GlyphClass: 2
Flags: W
HStem: 88 150<255 1076> 1491 20G<1367.81 1400.31>
DStem2: 586 918 384 796 0.812835 -0.582495<0 723.773> 427 985 586 918 0.880702 0.47367<108.296 991.476>
LayerCount: 2
Fore
SplineSet
255 238 m 1,0,-1
 1111 238 l 1,1,-1
 1076 88 l 1,2,-1
 220 88 l 1,3,-1
 255 238 l 1,0,-1
1405 1511 m 1,4,-1
 1364 1336 l 1,5,-1
 586 918 l 1,6,-1
 1169 489 l 1,7,-1
 1118 270 l 1,8,-1
 384 796 l 1,9,-1
 427 985 l 1,10,-1
 1405 1511 l 1,4,-1
EndSplineSet
Validated: 1
EndChar

StartChar: greaterequal
Encoding: 8805 8805 209
Width: 1256
GlyphClass: 2
Flags: W
HStem: 88 150<255 1076> 1491 20G<544.364 576.856>
DStem2: 303 444 262 270 0.881078 0.472971<0 883.654> 549 1511 498 1291 0.81231 -0.583225<86.8818 810.079>
LayerCount: 2
Fore
SplineSet
255 238 m 1,0,-1
 1111 238 l 1,1,-1
 1076 88 l 1,2,-1
 220 88 l 1,3,-1
 255 238 l 1,0,-1
549 1511 m 1,4,-1
 1283 984 l 1,5,-1
 1240 795 l 1,6,-1
 262 270 l 1,7,-1
 303 444 l 1,8,-1
 1081 863 l 1,9,-1
 498 1291 l 1,10,-1
 549 1511 l 1,4,-1
EndSplineSet
Validated: 1
EndChar

StartChar: lozenge
Encoding: 9674 9674 210
Width: 1233
GlyphClass: 2
Flags: W
HStem: 0 21G<607.165 634.03> 1491 20G<948.51 974.26>
DStem2: 290 738 493 804 0.658298 0.752758<183.316 737.87> 493 804 290 738 0.404067 -0.914729<0 581.401> 723 270 616 0 0.669574 0.742746<0 548.774> 966 1511 862 1218 0.381716 -0.92428<231.116 817.258>
LayerCount: 2
Fore
SplineSet
723 270 m 1,0,-1
 1090 678 l 1,1,-1
 862 1218 l 1,2,-1
 493 804 l 1,3,-1
 723 270 l 1,0,-1
616 0 m 1,4,-1
 290 738 l 1,5,-1
 966 1511 l 1,6,-1
 1284 741 l 1,7,-1
 616 0 l 1,4,-1
EndSplineSet
Validated: 1
EndChar

StartChar: s
Encoding: 115 115 212
Width: 1168
Flags: W
HStem: -20 136<325 770.196> 536 139<594.695 872.828> 984 136<662.22 1077.5>
VStem: 201 217<157.795 279> 361 209<698.612 867.271> 907 207<272.999 500.041> 964 218<817.479 951.789>
LayerCount: 2
Fore
SplineSet
214 279 m 9,0,-1
 427 334 l 17,1,2
 418 296 418 296 418 265 c 0,3,4
 418 116 418 116 615 116 c 0,5,6
 843 116 843 116 901 358 c 0,7,8
 907 383 907 383 907 408 c 0,9,10
 907 536 907 536 715 536 c 0,11,12
 361 536 361 536 361 715 c 0,13,14
 361 739 361 739 367 765 c 0,15,16
 449 1120 449 1120 973 1120 c 0,17,18
 1182 1120 1182 1120 1182 933 c 0,19,20
 1182 882 1182 882 1167 820 c 9,21,-1
 954 764 l 17,22,23
 964 809 964 809 964 845 c 0,24,25
 964 984 964 984 807 984 c 8,26,27
 614 984 614 984 573 794 c 0,28,29
 570 780 570 780 570 768 c 0,30,31
 570 675 570 675 749 675 c 0,32,33
 1114 675 1114 675 1114 452 c 0,34,35
 1114 416 1114 416 1104 373 c 8,36,37
 1013 -20 1013 -20 449 -20 c 0,38,39
 201 -20 201 -20 201 182 c 0,40,41
 201 227 201 227 214 279 c 9,0,-1
EndSplineSet
Validated: 1
EndChar

StartChar: M
Encoding: 77 77 213
Width: 1694
Flags: W
HStem: 0 21G<200 404.612 1339 1564> 1330 180<696 840.616 1442.94 1601>
VStem: 200 200<0 200> 500 196<1115.47 1330> 946 141<961.894 1219.16> 1334 208<1.50378 360.547>
DStem2: 200 0 400 0 0.224951 0.97437<44.9902 1405.58> 1293.74 0 1493.74 0 0.224951 0.97437<190.619 1365.03>
LayerCount: 2
Fore
SplineSet
200 0 m 1,0,-1
 479 1210 l 2,1,2
 500 1301 500 1301 500 1376 c 128,-1,3
 500 1451 500 1451 479 1510 c 1,4,-1
 699 1510 l 2,5,6
 1087 1510 1087 1510 1087 1154 c 0,7,8
 1087 1066 1087 1066 1064 958 c 1,9,-1
 1070 958 l 1,10,11
 1205 1510 1205 1510 1643 1510 c 2,12,-1
 1843 1510 l 1,13,-1
 1563 300 l 2,14,15
 1542 210 1542 210 1542 136 c 0,16,17
 1543 59 1543 59 1564 0 c 1,18,-1
 1344 0 l 1,19,20
 1334 37 1334 37 1334 87 c 0,21,22
 1334 173 1334 173 1363 300 c 2,23,-1
 1601 1330 l 1,24,25
 1254 1330 1254 1330 1100 662 c 1,26,-1
 900 662 l 1,27,28
 946 863 946 863 946 1003 c 0,29,30
 946 1330 946 1330 696 1330 c 1,31,32
 693 1268 693 1268 679 1210 c 2,33,-1
 400 0 l 1,34,-1
 200 0 l 1,0,-1
EndSplineSet
Validated: 1
EndChar

StartChar: N
Encoding: 78 78 214
Width: 1406
Flags: W
HStem: 0 21G<200 404.612 1005 1209.64> 1330 180<693.062 884.415>
VStem: 200 200<0 200> 1107 100<900 1062.32> 1355 200<1310 1510>
DStem2: 200 0 400 0 0.224951 0.97437<44.9902 1405.92> 1005 0 1205 0 0.224951 0.97437<44.9902 535.402 923.723 1550.03>
LayerCount: 2
Fore
SplineSet
200 0 m 1,0,-1
 479 1210 l 2,1,2
 500 1301 500 1301 500 1376 c 128,-1,3
 500 1451 500 1451 479 1510 c 1,4,-1
 699 1510 l 2,5,6
 1207 1510 1207 1510 1207 946 c 0,7,8
 1207 923 1207 923 1206 900 c 1,9,-1
 1213 900 l 1,10,-1
 1355 1510 l 1,11,-1
 1555 1510 l 1,12,-1
 1205 0 l 1,13,-1
 1005 0 l 1,14,15
 1107 443 1107 443 1107 738 c 0,16,17
 1107 1329 1107 1329 697 1330 c 1,18,19
 694 1272 694 1272 679 1210 c 2,20,-1
 400 0 l 1,21,-1
 200 0 l 1,0,-1
EndSplineSet
Validated: 1
EndChar

StartChar: W
Encoding: 87 87 215
Width: 1896
Flags: W
HStem: -20 150<487.734 691.576> -20 107<1150.93 1400.22> 1080 20G<1117.38 1322> 1490 20G<479 703 1860.38 2065>
VStem: 251 215<148.792 413.477> 498 209<1139.45 1508.26> 919 211<106.269 299.244> 1865 200<1310 1510>
DStem2: 194.97 -20 395.042 -20 0.224951 0.97437<326.122 1415.38> 862.97 -20 1063.04 -20 0.224951 0.97437<539.979 1149.56> 1511.64 -20 1711.4 -20 0.224951 0.97437<358.1 1570.28>
LayerCount: 2
Fore
SplineSet
479 1510 m 9,0,-1
 699 1510 l 17,1,2
 707 1469 707 1469 707 1420 c 0,3,4
 707 1329 707 1329 679 1210 c 2,5,-1
 477 335 l 2,6,7
 466 287 466 287 466 251 c 0,8,9
 466 130 466 130 585 130 c 0,10,11
 898 130 898 130 1104 1022 c 2,12,-1
 1122 1100 l 1,13,-1
 1322 1100 l 1,14,-1
 1145 335 l 2,15,16
 1130 268 1130 268 1130 220 c 0,17,18
 1130 88 1130 88 1243 87 c 0,19,20
 1536 87 1536 87 1643 549 c 2,21,-1
 1865 1510 l 25,22,-1
 2065 1510 l 25,23,-1
 1852 589 l 18,24,25
 1711 -20 1711 -20 1167 -20 c 0,26,27
 919 -20 919 -20 919 179 c 0,28,29
 919 224 919 224 932 279 c 2,30,-1
 937 300 l 1,31,32
 783 -20 783 -20 499 -20 c 0,33,34
 251 -20 251 -20 251 179 c 0,35,36
 251 224 251 224 264 279 c 2,37,-1
 479 1210 l 2,38,39
 498 1290 498 1290 498 1365 c 128,-1,40
 498 1440 498 1440 479 1510 c 9,0,-1
EndSplineSet
Validated: 1
EndChar

StartChar: A
Encoding: 65 65 216
Width: 1386
Flags: W
HStem: 0 21G<180 384.618 1031 1256> 719 127<575 1152> 1407 123<847.995 1194.63>
VStem: 180 200<0 200> 1026 208<1.50391 365.742> 1260 205<1022.52 1344.47>
DStem2: 180 0 380 0 0.224951 0.97437<44.9902 782.904 913.173 1248.48> 985.74 0 1185.74 0 0.224951 0.97437<190.619 737.973 868.241 1254.2>
LayerCount: 2
Fore
SplineSet
1181 846 m 1,0,-1
 1250 1145 l 2,1,2
 1260 1189 1260 1189 1260 1225 c 0,3,4
 1260 1407 1260 1407 1008 1407 c 0,5,6
 705 1407 705 1407 593 921 c 2,7,-1
 575 846 l 1,8,-1
 1181 846 l 1,0,-1
180 0 m 1,9,-1
 393 921 l 2,10,11
 533 1530 533 1530 1114 1530 c 0,12,13
 1465 1530 1465 1530 1465 1267 c 0,14,15
 1465 1212 1465 1212 1450 1145 c 2,16,-1
 1255 300 l 2,17,18
 1234 210 1234 210 1234 136 c 0,19,20
 1235 59 1235 59 1256 0 c 1,21,-1
 1036 0 l 1,22,23
 1026 37 1026 37 1026 88 c 0,24,25
 1026 174 1026 174 1055 300 c 2,26,-1
 1152 719 l 1,27,-1
 546 719 l 1,28,-1
 380 0 l 1,29,-1
 180 0 l 1,9,-1
EndSplineSet
Validated: 1
EndChar

StartChar: Nacute
Encoding: 323 323 217
Width: 1406
Flags: W
HStem: 0 21G<200 404.612 1005 1209.64> 1330 180<693.062 884.415>
VStem: 200 200<0 200> 1107 100<900 1062.32> 1355 200<1310 1510>
DStem2: 200 0 400 0 0.224951 0.97437<44.9902 1405.92> 1005 0 1205 0 0.224951 0.97437<44.9902 535.402 923.723 1550.03>
LayerCount: 2
Fore
SplineSet
200 0 m 1,0,-1
 479 1210 l 2,1,2
 500 1301 500 1301 500 1376 c 128,-1,3
 500 1451 500 1451 479 1510 c 1,4,-1
 699 1510 l 2,5,6
 1207 1510 1207 1510 1207 946 c 0,7,8
 1207 923 1207 923 1206 900 c 1,9,-1
 1213 900 l 1,10,-1
 1355 1510 l 1,11,-1
 1555 1510 l 1,12,-1
 1205 0 l 1,13,-1
 1005 0 l 1,14,15
 1107 443 1107 443 1107 738 c 0,16,17
 1107 1329 1107 1329 697 1330 c 1,18,19
 694 1272 694 1272 679 1210 c 2,20,-1
 400 0 l 1,21,-1
 200 0 l 1,0,-1
1090 1587 m 1,22,-1
 1027 1667 l 1,23,-1
 1336 1947 l 1,24,-1
 1431 1825 l 1,25,-1
 1090 1587 l 1,22,-1
EndSplineSet
Validated: 1
EndChar

StartChar: nacute
Encoding: 324 324 218
Width: 1268
Flags: W
HStem: 0 21G<200 404.615 914 1138> 970 150<830.424 1034.27> 1080 20G<384 608> 1510 20G<1063 1100.74>
VStem: 403 209<745.529 1098.23> 910 209<1.79797 372.961> 1056 215<765.261 950.879>
DStem2: 200 0 400 0 0.224951 0.97437<44.9902 654.575 866.102 971.984> 867.74 0 1067.74 0 0.224951 0.97437<202.009 868.49>
LayerCount: 2
Fore
SplineSet
200 0 m 1,0,-1
 385 800 l 2,1,2
 403 879 403 879 403 953 c 0,3,4
 403 1029 403 1029 384 1100 c 9,5,-1
 604 1100 l 17,6,7
 612 1058 612 1058 612 1008 c 0,8,9
 612 914 612 914 585 800 c 1,10,11
 739 1120 739 1120 1023 1120 c 0,12,13
 1271 1120 1271 1120 1271 921 c 0,14,15
 1271 876 1271 876 1258 821 c 2,16,-1
 1137 300 l 2,17,18
 1119 221 1119 221 1119 147 c 128,-1,19
 1119 73 1119 73 1138 0 c 9,20,-1
 918 0 l 17,21,22
 910 42 910 42 910 92 c 0,23,24
 910 184 910 184 937 300 c 2,25,-1
 1045 765 l 2,26,27
 1056 813 1056 813 1056 849 c 0,28,29
 1056 970 1056 970 937 970 c 0,30,31
 624 970 624 970 418 78 c 2,32,-1
 400 0 l 1,33,-1
 200 0 l 1,0,-1
840 1170 m 1,34,-1
 777 1250 l 1,35,-1
 1085 1530 l 1,36,-1
 1181 1408 l 1,37,-1
 840 1170 l 1,34,-1
EndSplineSet
Validated: 1
EndChar

StartChar: Agrave
Encoding: 192 192 219
Width: 1386
Flags: W
HStem: 0 21G<180 384.618 1031 1256> 719 127<575 1152> 1407 123<847.995 1194.63>
VStem: 180 200<0 200> 1026 208<1.50391 365.742> 1260 205<1022.52 1344.47>
DStem2: 180 0 380 0 0.224951 0.97437<44.9902 782.904 913.173 1248.48> 985.74 0 1185.74 0 0.224951 0.97437<190.619 737.973 868.241 1254.2>
LayerCount: 2
Fore
SplineSet
1181 846 m 1,0,-1
 1250 1145 l 2,1,2
 1260 1189 1260 1189 1260 1225 c 0,3,4
 1260 1407 1260 1407 1008 1407 c 0,5,6
 705 1407 705 1407 593 921 c 2,7,-1
 575 846 l 1,8,-1
 1181 846 l 1,0,-1
180 0 m 1,9,-1
 393 921 l 2,10,11
 533 1530 533 1530 1114 1530 c 0,12,13
 1465 1530 1465 1530 1465 1267 c 0,14,15
 1465 1212 1465 1212 1450 1145 c 2,16,-1
 1255 300 l 2,17,18
 1234 210 1234 210 1234 136 c 0,19,20
 1235 59 1235 59 1256 0 c 1,21,-1
 1036 0 l 1,22,23
 1026 37 1026 37 1026 88 c 0,24,25
 1026 174 1026 174 1055 300 c 2,26,-1
 1152 719 l 1,27,-1
 546 719 l 1,28,-1
 380 0 l 1,29,-1
 180 0 l 1,9,-1
1030 1587 m 1,30,-1
 799 1825 l 1,31,-1
 952 1947 l 1,32,-1
 1131 1667 l 1,33,-1
 1030 1587 l 1,30,-1
EndSplineSet
Validated: 1
EndChar

StartChar: Aacute
Encoding: 193 193 220
Width: 1386
Flags: W
HStem: 0 21G<180 384.618 1031 1256> 719 127<575 1152> 1407 123<847.995 1194.63>
VStem: 180 200<0 200> 1026 208<1.50391 365.742> 1260 205<1022.52 1344.47>
DStem2: 180 0 380 0 0.224951 0.97437<44.9902 782.904 913.173 1248.48> 985.74 0 1185.74 0 0.224951 0.97437<190.619 737.973 868.241 1254.2>
LayerCount: 2
Fore
SplineSet
1181 846 m 1,0,-1
 1250 1145 l 2,1,2
 1260 1189 1260 1189 1260 1225 c 0,3,4
 1260 1407 1260 1407 1008 1407 c 0,5,6
 705 1407 705 1407 593 921 c 2,7,-1
 575 846 l 1,8,-1
 1181 846 l 1,0,-1
180 0 m 1,9,-1
 393 921 l 2,10,11
 533 1530 533 1530 1114 1530 c 0,12,13
 1465 1530 1465 1530 1465 1267 c 0,14,15
 1465 1212 1465 1212 1450 1145 c 2,16,-1
 1255 300 l 2,17,18
 1234 210 1234 210 1234 136 c 0,19,20
 1235 59 1235 59 1256 0 c 1,21,-1
 1036 0 l 1,22,23
 1026 37 1026 37 1026 88 c 0,24,25
 1026 174 1026 174 1055 300 c 2,26,-1
 1152 719 l 1,27,-1
 546 719 l 1,28,-1
 380 0 l 1,29,-1
 180 0 l 1,9,-1
1110 1587 m 1,30,-1
 1047 1667 l 1,31,-1
 1356 1947 l 1,32,-1
 1451 1825 l 1,33,-1
 1110 1587 l 1,30,-1
EndSplineSet
Validated: 1
EndChar

StartChar: Acircumflex
Encoding: 194 194 221
Width: 1386
Flags: W
HStem: 0 21G<180 384.618 1031 1256> 719 127<575 1152> 1407 123<847.995 1194.63>
VStem: 180 200<0 200> 1026 208<1.50391 365.742> 1260 205<1022.52 1344.47>
DStem2: 180 0 380 0 0.224951 0.97437<44.9902 782.904 913.173 1248.48> 985.74 0 1185.74 0 0.224951 0.97437<190.619 737.973 868.241 1254.2>
LayerCount: 2
Fore
SplineSet
1181 846 m 1,0,-1
 1250 1145 l 2,1,2
 1260 1189 1260 1189 1260 1225 c 0,3,4
 1260 1407 1260 1407 1008 1407 c 0,5,6
 705 1407 705 1407 593 921 c 2,7,-1
 575 846 l 1,8,-1
 1181 846 l 1,0,-1
180 0 m 1,9,-1
 393 921 l 2,10,11
 533 1530 533 1530 1114 1530 c 0,12,13
 1465 1530 1465 1530 1465 1267 c 0,14,15
 1465 1212 1465 1212 1450 1145 c 2,16,-1
 1255 300 l 2,17,18
 1234 210 1234 210 1234 136 c 0,19,20
 1235 59 1235 59 1256 0 c 1,21,-1
 1036 0 l 1,22,23
 1026 37 1026 37 1026 88 c 0,24,25
 1026 174 1026 174 1055 300 c 2,26,-1
 1152 719 l 1,27,-1
 546 719 l 1,28,-1
 380 0 l 1,29,-1
 180 0 l 1,9,-1
948 1587 m 1,30,-1
 853 1709 l 1,31,-1
 1194 1947 l 1,32,-1
 1425 1709 l 1,33,-1
 1272 1587 l 1,34,-1
 1153 1773 l 1,35,-1
 948 1587 l 1,30,-1
EndSplineSet
Validated: 1
EndChar

StartChar: Atilde
Encoding: 195 195 222
Width: 1386
Flags: W
HStem: 0 21G<180 384.618 1031 1256> 719 127<575 1152> 1407 123<847.995 1194.63> 1647 127<1129.19 1399.89> 1709 127<888.22 1178.05>
VStem: 180 200<0 200> 1026 208<1.50391 365.742> 1260 205<1022.52 1344.47>
DStem2: 180 0 380 0 0.224951 0.97437<44.9902 782.904 913.173 1248.48> 985.74 0 1185.74 0 0.224951 0.97437<190.619 737.973 868.241 1254.2>
LayerCount: 2
Fore
SplineSet
1181 846 m 1,0,-1
 1250 1145 l 2,1,2
 1260 1189 1260 1189 1260 1225 c 0,3,4
 1260 1407 1260 1407 1008 1407 c 0,5,6
 705 1407 705 1407 593 921 c 2,7,-1
 575 846 l 1,8,-1
 1181 846 l 1,0,-1
180 0 m 1,9,-1
 393 921 l 2,10,11
 533 1530 533 1530 1114 1530 c 0,12,13
 1465 1530 1465 1530 1465 1267 c 0,14,15
 1465 1212 1465 1212 1450 1145 c 2,16,-1
 1255 300 l 2,17,18
 1234 210 1234 210 1234 136 c 0,19,20
 1235 59 1235 59 1256 0 c 1,21,-1
 1036 0 l 1,22,23
 1026 37 1026 37 1026 88 c 0,24,25
 1026 174 1026 174 1055 300 c 2,26,-1
 1152 719 l 1,27,-1
 546 719 l 1,28,-1
 380 0 l 1,29,-1
 180 0 l 1,9,-1
1425 1709 m 17,30,31
 1345 1647 1345 1647 1276 1647 c 0,32,33
 1210 1647 1210 1647 1129 1684 c 0,34,35
 1074 1709 1074 1709 983 1709 c 0,36,37
 907 1709 907 1709 838 1646 c 9,38,-1
 867 1773 l 17,39,40
 933 1836 933 1836 1012 1836 c 0,41,42
 1094 1836 1094 1836 1162 1806 c 0,43,44
 1235 1774 1235 1774 1306 1774 c 0,45,46
 1372 1774 1372 1774 1454 1836 c 9,47,-1
 1425 1709 l 17,30,31
EndSplineSet
Validated: 1
EndChar

StartChar: onequarter
Encoding: 188 188 223
Width: 1530
Flags: W
HStem: 0 21G<186 375.894 1180 1334.61> 222 113<1047 1231> 1396 114<499 583>
VStem: 186 176<0 176> 431 150<705 855> 583 159<1216.88 1396> 1006 150<655 805> 1180 150<0 150> 1233 178<1332 1510> 1331 150<505 655>
DStem2: 186 0 362 0 0.570539 0.821271<100.415 1837.47> 268.238 0 418.238 0 0.224951 0.97437<757.287 1430.09> 819.747 0 969.659 0 0.224951 0.97437<377.535 826.266> 1180 0 1330 0 0.224951 0.97437<33.7427 227.783 343.735 672.18>
LayerCount: 2
Fore
SplineSet
499 1510 m 1,0,-1
 732 1510 l 1,1,2
 742 1485 742 1485 742 1449 c 0,3,4
 741 1400 741 1400 726 1335 c 2,5,-1
 581 705 l 1,6,-1
 431 705 l 1,7,-1
 576 1335 l 2,8,9
 582 1366 582 1366 583 1396 c 1,10,-1
 472 1396 l 1,11,-1
 499 1510 l 1,0,-1
186 0 m 17,12,-1
 1233 1510 l 1,13,-1
 1411 1510 l 1,14,-1
 362 0 l 9,15,-1
 186 0 l 17,12,-1
1180 0 m 1,16,-1
 1231 222 l 1,17,-1
 871 222 l 1,18,-1
 1006 805 l 17,19,-1
 1156 805 l 9,20,-1
 1047 335 l 1,21,-1
 1257 335 l 1,22,-1
 1331 655 l 1,23,-1
 1481 655 l 1,24,-1
 1330 0 l 1,25,-1
 1180 0 l 1,16,-1
EndSplineSet
Validated: 1
EndChar

StartChar: onehalf
Encoding: 189 189 224
Width: 1541
Flags: W
HStem: 0 113<977 1338.25> 325 114<1051.72 1263.75> 701 113<1045.62 1326.16> 1396 114<499 583>
VStem: 186 176<0 176> 431 150<705 855> 583 159<1216.88 1396> 1233 178<1332 1510> 1333 155<508.732 688.464>
DStem2: 186 0 362 0 0.570539 0.821271<100.415 1837.47> 268.238 0 418.238 0 0.224951 0.97437<757.287 1430.09>
LayerCount: 2
Fore
SplineSet
797 0 m 1,0,1
 898 439 898 439 1136 439 c 0,2,3
 1290 439 1290 439 1329 596 c 0,4,5
 1333 612 1333 612 1333 626 c 0,6,7
 1332 701 1332 701 1215 701 c 2,8,-1
 1198 701 l 2,9,10
 1127 701 1127 701 1012 652 c 1,11,-1
 1042 783 l 1,12,13
 1158 814 1158 814 1239 814 c 2,14,-1
 1291 814 l 2,15,16
 1488 814 1488 814 1488 665 c 0,17,18
 1488 634 1488 634 1479 596 c 8,19,20
 1415 325 1415 325 1139 325 c 0,21,22
 1030 325 1030 325 977 113 c 1,23,-1
 1183 113 l 2,24,25
 1309 113 1309 113 1371 163 c 1,26,-1
 1341 33 l 1,27,28
 1253 0 1253 0 1157 0 c 2,29,-1
 797 0 l 1,0,1
499 1510 m 1,30,-1
 732 1510 l 1,31,32
 742 1485 742 1485 742 1449 c 0,33,34
 741 1400 741 1400 726 1335 c 2,35,-1
 581 705 l 1,36,-1
 431 705 l 1,37,-1
 576 1335 l 2,38,39
 582 1366 582 1366 583 1396 c 1,40,-1
 472 1396 l 1,41,-1
 499 1510 l 1,30,-1
186 0 m 17,42,-1
 1233 1510 l 1,43,-1
 1411 1510 l 1,44,-1
 362 0 l 9,45,-1
 186 0 l 17,42,-1
EndSplineSet
Validated: 1
EndChar

StartChar: threequarters
Encoding: 190 190 225
Width: 1745
Flags: W
HStem: 0 21G<393 582.894 1395 1549.61> 222 113<1262 1446> 716 112<535.691 749.16> 1108 114<568 785.979> 1417 113<603.616 851.117> 1490 20G<1426.13 1618>
VStem: 360 161<842.411 952> 393 176<0 176> 819 159<916.967 1096.41> 856 149<1286.53 1412.68> 1221 150<655 805> 1395 150<0 150> 1440 178<1332 1510> 1546 150<505 655>
DStem2: 393 0 569 0 0.570539 0.821271<100.415 1837.47> 1034.75 0 1184.66 0 0.224951 0.97437<377.535 826.266> 1395 0 1545 0 0.224951 0.97437<33.7427 227.783 343.735 672.18>
LayerCount: 2
Fore
SplineSet
370 952 m 1,0,-1
 529 993 l 1,1,2
 521 958 521 958 521 930 c 0,3,4
 521 828 521 828 633 828 c 0,5,6
 778 828 778 828 816 1006 c 16,7,8
 819 1020 819 1020 819 1032 c 0,9,10
 819 1108 819 1108 702 1108 c 2,11,-1
 542 1108 l 1,12,-1
 568 1222 l 1,13,14
 821 1223 821 1223 854 1354 c 0,15,16
 856 1362 856 1362 856 1368 c 0,17,18
 852 1417 852 1417 771 1417 c 2,19,-1
 756 1417 l 2,20,21
 686 1417 686 1417 570 1368 c 1,22,-1
 600 1499 l 1,23,24
 716 1530 716 1530 797 1530 c 2,25,-1
 811 1530 l 2,26,27
 1005 1530 1005 1530 1005 1411 c 0,28,29
 1005 1392 1005 1392 1000 1370 c 0,30,31
 978 1272 978 1272 883 1200 c 1,32,33
 978 1165 978 1165 978 1078 c 0,34,35
 978 1058 978 1058 973 1034 c 0,36,37
 907 716 907 716 555 716 c 0,38,39
 360 716 360 716 360 870 c 0,40,41
 360 907 360 907 370 952 c 1,0,-1
1395 0 m 1,42,-1
 1446 222 l 1,43,-1
 1086 222 l 1,44,-1
 1221 805 l 17,45,-1
 1371 805 l 9,46,-1
 1262 335 l 1,47,-1
 1472 335 l 1,48,-1
 1546 655 l 1,49,-1
 1696 655 l 1,50,-1
 1545 0 l 1,51,-1
 1395 0 l 1,42,-1
393 0 m 17,52,-1
 1440 1510 l 1,53,-1
 1618 1510 l 1,54,-1
 569 0 l 9,55,-1
 393 0 l 17,52,-1
EndSplineSet
Validated: 1
EndChar

StartChar: Adieresis
Encoding: 196 196 226
Width: 1386
Flags: W
HStem: 0 21G<180 384.618 1031 1256> 719 127<575 1152> 1407 123<847.995 1194.63> 1692 255<910.684 1078.76 1238.68 1406.76>
VStem: 180 200<0 200> 862 264<1739.53 1899.75> 1026 208<1.50391 365.742> 1190 264<1739.53 1899.75> 1260 205<1022.52 1344.47>
DStem2: 180 0 380 0 0.224951 0.97437<44.9902 782.904 913.173 1248.48> 985.74 0 1185.74 0 0.224951 0.97437<190.619 737.973 868.241 1254.2>
LayerCount: 2
Fore
SplineSet
1181 846 m 1,0,-1
 1250 1145 l 2,1,2
 1260 1189 1260 1189 1260 1225 c 0,3,4
 1260 1407 1260 1407 1008 1407 c 0,5,6
 705 1407 705 1407 593 921 c 2,7,-1
 575 846 l 1,8,-1
 1181 846 l 1,0,-1
180 0 m 1,9,-1
 393 921 l 2,10,11
 533 1530 533 1530 1114 1530 c 0,12,13
 1465 1530 1465 1530 1465 1267 c 0,14,15
 1465 1212 1465 1212 1450 1145 c 2,16,-1
 1255 300 l 2,17,18
 1234 210 1234 210 1234 136 c 0,19,20
 1235 59 1235 59 1256 0 c 1,21,-1
 1036 0 l 1,22,23
 1026 37 1026 37 1026 88 c 0,24,25
 1026 174 1026 174 1055 300 c 2,26,-1
 1152 719 l 1,27,-1
 546 719 l 1,28,-1
 380 0 l 1,29,-1
 180 0 l 1,9,-1
1293 1692 m 16,30,31
 1190 1692 1190 1692 1190 1776 c 0,32,33
 1190 1796 1190 1796 1196 1820 c 0,34,35
 1228 1947 1228 1947 1352 1947 c 0,36,37
 1454 1947 1454 1947 1454 1863 c 0,38,39
 1454 1844 1454 1844 1448 1820 c 0,40,41
 1420 1692 1420 1692 1293 1692 c 16,30,31
965 1692 m 16,42,43
 862 1692 862 1692 862 1776 c 0,44,45
 862 1796 862 1796 868 1820 c 0,46,47
 900 1947 900 1947 1024 1947 c 0,48,49
 1126 1947 1126 1947 1126 1863 c 0,50,51
 1126 1844 1126 1844 1120 1820 c 0,52,53
 1092 1692 1092 1692 965 1692 c 16,42,43
EndSplineSet
Validated: 1
EndChar

StartChar: Aring
Encoding: 197 197 227
Width: 1386
Flags: W
HStem: 0 21G<180 384.618 1031 1256> 719 127<575 1152> 1407 123<847.995 1194.63> 1617 103<1099.18 1206.79> 1839 104<1104.68 1216.19>
VStem: 180 200<0 200> 987 110<1721.3 1832.16> 1026 208<1.50391 365.742> 1217 114<1725.28 1838.67> 1260 205<1022.52 1344.47>
DStem2: 180 0 380 0 0.224951 0.97437<44.9902 782.904 913.173 1248.48> 985.74 0 1185.74 0 0.224951 0.97437<190.619 737.973 868.241 1254.2>
LayerCount: 2
Fore
SplineSet
1181 846 m 1,0,-1
 1250 1145 l 2,1,2
 1260 1189 1260 1189 1260 1225 c 0,3,4
 1260 1407 1260 1407 1008 1407 c 0,5,6
 705 1407 705 1407 593 921 c 2,7,-1
 575 846 l 1,8,-1
 1181 846 l 1,0,-1
180 0 m 1,9,-1
 393 921 l 2,10,11
 533 1530 533 1530 1114 1530 c 0,12,13
 1465 1530 1465 1530 1465 1267 c 0,14,15
 1465 1212 1465 1212 1450 1145 c 2,16,-1
 1255 300 l 2,17,18
 1234 210 1234 210 1234 136 c 0,19,20
 1235 59 1235 59 1256 0 c 1,21,-1
 1036 0 l 1,22,23
 1026 37 1026 37 1026 88 c 0,24,25
 1026 174 1026 174 1055 300 c 2,26,-1
 1152 719 l 1,27,-1
 546 719 l 1,28,-1
 380 0 l 1,29,-1
 180 0 l 1,9,-1
1143 1720 m 8,30,31
 1199 1720 1199 1720 1214 1780 c 0,32,33
 1217 1792 1217 1792 1217 1801 c 0,34,35
 1216 1839 1216 1839 1171 1839 c 0,36,37
 1114 1839 1114 1839 1100 1780 c 0,38,39
 1097 1768 1097 1768 1097 1757 c 0,40,41
 1097 1719 1097 1719 1143 1720 c 8,30,31
1119 1617 m 0,42,43
 987 1617 987 1617 987 1726 c 0,44,45
 988 1753 988 1753 995 1785 c 0,46,47
 1030 1943 1030 1943 1195 1943 c 0,48,49
 1331 1943 1331 1943 1331 1835 c 0,50,51
 1331 1811 1331 1811 1324 1781 c 0,52,53
 1286 1617 1286 1617 1119 1617 c 0,42,43
EndSplineSet
Validated: 1
EndChar

StartChar: AE
Encoding: 198 198 228
Width: 1982
Flags: W
HStem: 0 127<1215 1888.66> 698 127<570 1147 1376 1914> 1383 127<1491 2072> 1407 123<847.995 1193.45>
VStem: 180 200<0 200> 1260 231<1131.8 1346.17>
DStem2: 180 0 380 0 0.224951 0.97437<44.9902 761.318 891.586 1248.48> 986 0 1185.68 0 0.224951 0.97437<175.259 716.327 891.586 1254.14>
LayerCount: 2
Fore
SplineSet
180 0 m 1,0,-1
 393 921 l 2,1,2
 533 1530 533 1530 1114 1530 c 0,3,4
 1211 1530 1211 1530 1282 1510 c 1,5,-1
 2102 1510 l 1,6,-1
 2072 1383 l 1,7,-1
 1491 1383 l 1,8,9
 1488 1306 1488 1306 1465 1210 c 2,10,-1
 1376 825 l 1,11,-1
 1943 825 l 1,12,-1
 1914 698 l 1,13,-1
 1347 698 l 1,14,-1
 1215 127 l 1,15,-1
 1631 127 l 2,16,17
 1813 127 1813 127 1947 197 c 1,18,-1
 1914 50 l 1,19,20
 1781 0 1781 0 1602 0 c 2,21,-1
 986 0 l 1,22,-1
 1147 698 l 1,23,-1
 541 698 l 1,24,-1
 380 0 l 1,25,-1
 180 0 l 1,0,-1
570 825 m 1,26,-1
 1176 825 l 1,27,-1
 1250 1145 l 2,28,29
 1260 1189 1260 1189 1260 1225 c 0,30,31
 1260 1407 1260 1407 1008 1407 c 0,32,33
 705 1407 705 1407 593 921 c 2,34,-1
 570 825 l 1,26,-1
EndSplineSet
Validated: 1
EndChar

StartChar: Amacron
Encoding: 256 256 229
Width: 1386
Flags: W
HStem: 0 21G<180 384.618 1031 1256> 719 127<575 1152> 1407 123<847.995 1194.63> 1709 127<882 1425>
VStem: 180 200<0 200> 1026 208<1.50391 365.742> 1260 205<1022.52 1344.47>
DStem2: 180 0 380 0 0.224951 0.97437<44.9902 782.904 913.173 1248.48> 985.74 0 1185.74 0 0.224951 0.97437<190.619 737.973 868.241 1254.2>
LayerCount: 2
Fore
SplineSet
1181 846 m 1,0,-1
 1250 1145 l 2,1,2
 1260 1189 1260 1189 1260 1225 c 0,3,4
 1260 1407 1260 1407 1008 1407 c 0,5,6
 705 1407 705 1407 593 921 c 2,7,-1
 575 846 l 1,8,-1
 1181 846 l 1,0,-1
180 0 m 1,9,-1
 393 921 l 2,10,11
 533 1530 533 1530 1114 1530 c 0,12,13
 1465 1530 1465 1530 1465 1267 c 0,14,15
 1465 1212 1465 1212 1450 1145 c 2,16,-1
 1255 300 l 2,17,18
 1234 210 1234 210 1234 136 c 0,19,20
 1235 59 1235 59 1256 0 c 1,21,-1
 1036 0 l 1,22,23
 1026 37 1026 37 1026 88 c 0,24,25
 1026 174 1026 174 1055 300 c 2,26,-1
 1152 719 l 1,27,-1
 546 719 l 1,28,-1
 380 0 l 1,29,-1
 180 0 l 1,9,-1
882 1836 m 17,30,-1
 1454 1836 l 1,31,-1
 1425 1709 l 1,32,-1
 853 1709 l 9,33,-1
 882 1836 l 17,30,-1
EndSplineSet
Validated: 1
EndChar

StartChar: Abreve
Encoding: 258 258 230
Width: 1386
Flags: W
HStem: 0 21G<180 384.618 1031 1256> 719 127<575 1152> 1407 123<847.995 1194.63> 1641 126<937.457 1360.1>
VStem: 180 200<0 200> 1026 208<1.50391 365.742> 1260 205<1022.52 1344.47>
DStem2: 180 0 380 0 0.224951 0.97437<44.9902 782.904 913.173 1248.48> 985.74 0 1185.74 0 0.224951 0.97437<190.619 737.973 868.241 1254.2>
LayerCount: 2
Fore
SplineSet
1181 846 m 1,0,-1
 1250 1145 l 2,1,2
 1260 1189 1260 1189 1260 1225 c 0,3,4
 1260 1407 1260 1407 1008 1407 c 0,5,6
 705 1407 705 1407 593 921 c 2,7,-1
 575 846 l 1,8,-1
 1181 846 l 1,0,-1
180 0 m 1,9,-1
 393 921 l 2,10,11
 533 1530 533 1530 1114 1530 c 0,12,13
 1465 1530 1465 1530 1465 1267 c 0,14,15
 1465 1212 1465 1212 1450 1145 c 2,16,-1
 1255 300 l 2,17,18
 1234 210 1234 210 1234 136 c 0,19,20
 1235 59 1235 59 1256 0 c 1,21,-1
 1036 0 l 1,22,23
 1026 37 1026 37 1026 88 c 0,24,25
 1026 174 1026 174 1055 300 c 2,26,-1
 1152 719 l 1,27,-1
 546 719 l 1,28,-1
 380 0 l 1,29,-1
 180 0 l 1,9,-1
882 1836 m 25,30,31
 1023 1767 1023 1767 1144 1767 c 128,-1,32
 1265 1767 1265 1767 1454 1836 c 17,33,-1
 1425 1709 l 9,34,35
 1253 1641 1253 1641 1118 1641 c 0,36,37
 987 1641 987 1641 853 1709 c 25,38,-1
 882 1836 l 25,30,31
EndSplineSet
Validated: 1
EndChar

StartChar: Ccedilla
Encoding: 199 199 231
Width: 1388
Flags: W
HStem: -430 21G<569.343 677> -19 123<508.38 602.281> 1406 124<847.209 1210.92>
VStem: 229 206<171.877 486.625> 639 171<-215.399 -55.3477> 1131 208<385.75 472> 1293 214<1142.85 1330.13>
DStem2: 60.4598 -430 260.46 -430 0.224951 0.97437<786.867 1678.45>
LayerCount: 2
Fore
SplineSet
1339 497 m 1,0,1
 1202 72 1202 72 777 -4 c 1,2,3
 810 -48 810 -48 810 -107 c 0,4,5
 810 -132 810 -132 804 -159 c 0,6,7
 766 -329 766 -329 588 -430 c 1,8,-1
 463 -296 l 1,9,10
 621 -226 621 -226 637 -154 c 0,11,12
 639 -145 639 -145 639 -136 c 0,13,14
 639 -77 639 -77 545 -19 c 1,15,16
 229 -7 229 -7 229 243 c 0,17,18
 229 298 229 298 244 365 c 2,19,-1
 373 921 l 2,20,21
 514 1530 514 1530 1156 1530 c 0,22,23
 1507 1530 1507 1530 1507 1267 c 0,24,25
 1507 1211 1507 1211 1492 1145 c 1,26,-1
 1280 1090 l 1,27,28
 1293 1148 1293 1148 1293 1195 c 0,29,30
 1293 1406 1293 1406 1026 1406 c 0,31,32
 686 1406 686 1406 573 921 c 2,33,-1
 444 365 l 2,34,35
 435 325 435 325 435 290 c 0,36,37
 435 104 435 104 711 104 c 0,38,39
 1008 104 1008 104 1131 472 c 1,40,-1
 1339 497 l 1,0,1
EndSplineSet
Validated: 1
EndChar

StartChar: Ccircumflex
Encoding: 264 264 232
Width: 1388
Flags: W
HStem: -20 124<507.899 883.277> 1406 124<846.805 1210.92>
VStem: 229 206<173.651 486.625> 1131 208<390.091 472> 1293 214<1142.85 1330.13>
DStem2: 155.116 -20 355.116 -20 0.224951 0.97437<366.082 1257.57>
LayerCount: 2
Fore
SplineSet
1339 497 m 17,0,1
 1172 -20 1172 -20 580 -20 c 0,2,3
 229 -20 229 -20 229 243 c 0,4,5
 229 298 229 298 244 365 c 2,6,-1
 373 921 l 18,7,8
 513 1530 513 1530 1156 1530 c 0,9,10
 1507 1530 1507 1530 1507 1267 c 0,11,12
 1507 1211 1507 1211 1492 1145 c 9,13,-1
 1280 1090 l 17,14,15
 1293 1148 1293 1148 1293 1195 c 0,16,17
 1293 1406 1293 1406 1026 1406 c 0,18,19
 685 1406 685 1406 573 921 c 2,20,-1
 444 365 l 2,21,22
 435 325 435 325 435 290 c 0,23,24
 435 104 435 104 711 104 c 0,25,26
 1008 104 1008 104 1131 472 c 9,27,-1
 1339 497 l 17,0,1
928 1587 m 1,28,-1
 833 1709 l 1,29,-1
 1174 1947 l 1,30,-1
 1405 1709 l 1,31,-1
 1252 1587 l 1,32,-1
 1133 1773 l 1,33,-1
 928 1587 l 1,28,-1
EndSplineSet
Validated: 1
EndChar

StartChar: Cdotaccent
Encoding: 266 266 233
Width: 1388
Flags: W
HStem: -20 124<507.899 883.277> 1406 124<846.805 1210.92> 1692 255<1052.68 1220.76>
VStem: 229 206<173.651 486.625> 1004 264<1739.53 1899.75> 1131 208<390.091 472> 1293 214<1142.85 1330.13>
DStem2: 155.116 -20 355.116 -20 0.224951 0.97437<366.082 1257.57>
LayerCount: 2
Fore
SplineSet
1339 497 m 17,0,1
 1172 -20 1172 -20 580 -20 c 0,2,3
 229 -20 229 -20 229 243 c 0,4,5
 229 298 229 298 244 365 c 2,6,-1
 373 921 l 18,7,8
 513 1530 513 1530 1156 1530 c 0,9,10
 1507 1530 1507 1530 1507 1267 c 0,11,12
 1507 1211 1507 1211 1492 1145 c 9,13,-1
 1280 1090 l 17,14,15
 1293 1148 1293 1148 1293 1195 c 0,16,17
 1293 1406 1293 1406 1026 1406 c 0,18,19
 685 1406 685 1406 573 921 c 2,20,-1
 444 365 l 2,21,22
 435 325 435 325 435 290 c 0,23,24
 435 104 435 104 711 104 c 0,25,26
 1008 104 1008 104 1131 472 c 9,27,-1
 1339 497 l 17,0,1
1107 1692 m 16,28,29
 1004 1692 1004 1692 1004 1776 c 0,30,31
 1004 1796 1004 1796 1010 1820 c 0,32,33
 1042 1947 1042 1947 1166 1947 c 0,34,35
 1268 1947 1268 1947 1268 1863 c 0,36,37
 1268 1844 1268 1844 1262 1820 c 0,38,39
 1234 1692 1234 1692 1107 1692 c 16,28,29
EndSplineSet
Validated: 1
EndChar

StartChar: Ccaron
Encoding: 268 268 234
Width: 1388
Flags: W
HStem: -20 124<507.899 883.277> 1406 124<846.805 1210.92>
VStem: 229 206<173.651 486.625> 1131 208<390.091 472> 1293 214<1142.85 1330.13>
DStem2: 155.116 -20 355.116 -20 0.224951 0.97437<366.082 1257.57>
LayerCount: 2
Fore
SplineSet
1339 497 m 17,0,1
 1172 -20 1172 -20 580 -20 c 0,2,3
 229 -20 229 -20 229 243 c 0,4,5
 229 298 229 298 244 365 c 2,6,-1
 373 921 l 18,7,8
 513 1530 513 1530 1156 1530 c 0,9,10
 1507 1530 1507 1530 1507 1267 c 0,11,12
 1507 1211 1507 1211 1492 1145 c 9,13,-1
 1280 1090 l 17,14,15
 1293 1148 1293 1148 1293 1195 c 0,16,17
 1293 1406 1293 1406 1026 1406 c 0,18,19
 685 1406 685 1406 573 921 c 2,20,-1
 444 365 l 2,21,22
 435 325 435 325 435 290 c 0,23,24
 435 104 435 104 711 104 c 0,25,26
 1008 104 1008 104 1131 472 c 9,27,-1
 1339 497 l 17,0,1
1012 1947 m 1,28,-1
 1131 1761 l 1,29,-1
 1336 1947 l 1,30,-1
 1431 1825 l 1,31,-1
 1090 1587 l 1,32,-1
 859 1825 l 1,33,-1
 1012 1947 l 1,28,-1
EndSplineSet
Validated: 1
EndChar

StartChar: germandbls
Encoding: 223 223 235
Width: 1256
Flags: W
HStem: 0 127<598 790.799> 1406 124<841.033 1094.63>
VStem: 200 200<0 200> 1046 210<449.348 699.227> 1119 196<1146.75 1380.82>
DStem2: 200 0 400 0 0.224951 0.97437<44.9902 1270.8>
LayerCount: 2
Fore
SplineSet
200 0 m 9,0,-1
 413 921 l 18,1,2
 553 1530 553 1530 1034 1530 c 0,3,4
 1315 1530 1315 1530 1315 1328 c 0,5,6
 1315 1286 1315 1286 1303 1237 c 0,7,8
 1241 982 1241 982 976 880 c 1,9,10
 1256 837 1256 837 1256 642 c 0,11,12
 1256 607 1256 607 1247 566 c 0,13,14
 1123 2 1123 2 569 0 c 1,15,-1
 598 127 l 1,16,-1
 604 127 l 2,17,18
 944 127 944 127 1038 527 c 0,19,20
 1046 561 1046 561 1046 591 c 0,21,22
 1045 765 1045 765 766 765 c 2,23,-1
 746 765 l 1,24,-1
 776 898 l 1,25,26
 1040 933 1040 933 1110 1221 c 16,27,28
 1119 1258 1119 1258 1119 1288 c 0,29,30
 1117 1406 1117 1406 982 1406 c 0,31,32
 725 1406 725 1406 613 921 c 2,33,-1
 400 0 l 17,34,-1
 200 0 l 9,0,-1
EndSplineSet
Validated: 1
EndChar

StartChar: Eth
Encoding: 208 208 236
Width: 1388
Flags: W
HStem: 0 127<429 890.215> 696 127<280 360 590 941> 1383 127<705 1223.09>
VStem: 498 207<1131.39 1381.35> 1297 206<996 1315.04>
DStem2: 200 0 399.68 0 0.224951 0.97437<175.259 714.154 889.637 1394.82> 1028.4 0 1228.4 0 0.224951 0.97437<379.764 1226.68>
LayerCount: 2
Fore
SplineSet
200 0 m 1,0,-1
 360 696 l 1,1,-1
 251 696 l 1,2,-1
 280 823 l 1,3,-1
 390 823 l 1,4,-1
 479 1210 l 2,5,6
 498 1292 498 1292 498 1365 c 0,7,8
 498 1440 498 1440 479 1510 c 1,9,-1
 1152 1510 l 2,10,11
 1503 1510 1503 1510 1503 1247 c 0,12,13
 1503 1192 1503 1192 1488 1125 c 2,14,-1
 1369 609 l 2,15,16
 1228 0 1228 0 586 0 c 2,17,-1
 200 0 l 1,0,-1
429 127 m 1,18,-1
 717 127 l 2,19,20
 1057 127 1057 127 1169 609 c 2,21,-1
 1288 1125 l 2,22,23
 1297 1164 1297 1164 1297 1198 c 0,24,25
 1297 1383 1297 1383 1019 1383 c 2,26,-1
 705 1383 l 1,27,28
 703 1314 703 1314 679 1210 c 2,29,-1
 590 823 l 1,30,-1
 970 823 l 1,31,-1
 941 696 l 1,32,-1
 560 696 l 1,33,-1
 429 127 l 1,18,-1
EndSplineSet
Validated: 1
EndChar

StartChar: Dcaron
Encoding: 270 270 237
Width: 1388
Flags: W
HStem: 0 127<429 890.215> 1383 127<705 1223.09>
VStem: 498 207<1142.31 1381.35> 1297 206<996 1315.04>
DStem2: 200 0 399.68 0 0.224951 0.97437<175.259 1394.76> 1028.4 0 1228.4 0 0.224951 0.97437<379.764 1226.68>
LayerCount: 2
Fore
SplineSet
429 127 m 1,0,-1
 717 127 l 2,1,2
 1057 127 1057 127 1169 609 c 2,3,-1
 1288 1125 l 2,4,5
 1297 1164 1297 1164 1297 1198 c 0,6,7
 1297 1383 1297 1383 1019 1383 c 2,8,-1
 705 1383 l 1,9,10
 703 1314 703 1314 679 1210 c 2,11,-1
 429 127 l 1,0,-1
200 0 m 1,12,-1
 479 1210 l 2,13,14
 498 1290 498 1290 498 1365 c 128,-1,15
 498 1440 498 1440 479 1510 c 1,16,-1
 1152 1510 l 2,17,18
 1503 1510 1503 1510 1503 1247 c 0,19,20
 1503 1192 1503 1192 1488 1125 c 10,21,-1
 1369 609 l 2,22,23
 1228 0 1228 0 586 0 c 2,24,-1
 200 0 l 1,12,-1
1012 1947 m 1,25,-1
 1131 1761 l 1,26,-1
 1336 1947 l 1,27,-1
 1431 1825 l 1,28,-1
 1090 1587 l 1,29,-1
 859 1825 l 1,30,-1
 1012 1947 l 1,25,-1
EndSplineSet
Validated: 1
EndChar

